<?xml version="1.0" standalone="no"?><!DOCTYPE svg PUBLIC "-//W3C//DTD SVG 1.1//EN" "http://www.w3.org/Graphics/SVG/1.1/DTD/svg11.dtd" ><svg xmlns="http://www.w3.org/2000/svg"><metadata></metadata><defs><font id="FontForge 2.0 : YuPearl-Medium : 23-3-2020" horiz-adv-x="2048"><font-face font-family="YuPearl" font-weight="500" font-stretch="normal" units-per-em="2048" panose-1="2 15 5 0 0 0 0 0 0 0" ascent="1742" descent="-306" x-height="0" bbox="-615 -567 2059 1681" underline-thickness="100" underline-position="-150" unicode-range="U+0009-ff9f" /><missing-glyph horiz-adv-x="1200"  /><glyph glyph-name="exclam" unicode="!" d="M283 -21 q-54 0 -93 39 q-39 39 -39 93 q0 54 39 93 q39 39 93 39 q54 0 93 -39 q39 -39 39 -93 q0 -54 -39 -93 q-39 -39 -93 -39 ZM165 1302 q0 49 34 83 q34 34 83 34 q49 0 82 -34.5 q33 -34.5 33 -82.5 l0 -198 l-36 -661 q-2 -32 -23.5 -51 q-21.5 -19 -55.5 -19 q-38 0 -61 23 q-18 18 -20 47 l-36 661 l0 198 Z" /><glyph glyph-name="quotedbl" unicode="&quot;" d="M719 1456 l0 -1 l-2 -16 l-42 -293 q-6 -36 -25 -55.5 q-19 -19.5 -52 -19.5 q-31 0 -50 19 q-19 19 -25 56 l-44 293 l-2 21 q0 55 30 85 q30 30 90.5 30 q60.5 0 91 -30.5 q30.5 -30.5 30.5 -88.5 ZM228 1575 q51 0 90 -39 q31 -33 31 -68 q0 -5 0 -10 q-2 -10 -4 -20 l-42 -292 q-10 -62 -56 -73 q-9 -2 -19 -2 q-33 0 -52 19.5 q-19 19.5 -25 55.5 l-42 293 l-2 19 q0 57 30 86 q30 31 91 31 ZM345 1438 q0 0 0 0 l0 0 Z" /><glyph glyph-name="numbersign" unicode="#" d="M703 517 l44 278 l-228 0 l-44 -278 l228 0 ZM987 1250 q0 -19 -46 -289 l139 0 q29 0 58 29 l19 19 l0 -125 q0 -47 -23 -69 q-19 -20 -54 -20 l-165 0 l-44 -278 l139 0 q29 0 58 29 l19 19 l0 -125 q0 -47 -23 -69 q-19 -20 -54 -20 l-165 0 l-48 -305 q-5 -28 -29 -48.5 q-24 -20.5 -54 -20.5 q-35 0 -59 24 q-24 24 -24 59 l0 1 l46 290 l-228 0 l-48 -305 q-5 -28 -29 -48.5 q-24 -20.5 -54 -20.5 q-35 0 -59 24 q-24 24 -24 59 l0 1 l46 290 l-139 0 q-29 0 -58 -29 l-19 -19 l0 125 q0 47 23 69 q19 20 54 20 l165 0 l44 278 l-139 0 q-29 0 -58 -29 l-19 -19 l0 125 q0 47 23 69 q19 20 54 20 l165 0 l48 305 q4 25 21 43 l7 6 q23 18 57 18 q35 0 58 -24.5 q23 -24.5 23 -58.5 q0 -19 -46 -289 l228 0 l48 305 q5 30 28 48.5 q23 18.5 57 18.5 q35 0 58 -24.5 q23 -24.5 23 -58.5 Z" /><glyph glyph-name="dollar" unicode="$" d="M953 382 q0 66 -60.5 107 q-60.5 41 -195.5 79 l0 -400 q141 12 204 76 q52 51 52 138 ZM311 1020 q0 -79 57.5 -123 q57.5 -44 180.5 -79 l0 409 q-124 -20 -187 -83 q-51 -52 -51 -124 ZM697 -160 q0 -44 -7 -62 q-2 -5 -7 -10 q-5 -5 -13 -5 l-94 0 q-8 0 -14 6 q-13 13 -13 71 l0 130 q-208 15 -395 94 q-27 11 -46 37.5 q-19 26.5 -19 56.5 q0 42 27.5 69.5 q27.5 27.5 67.5 27.5 q25 0 43 -9 q152 -69 322 -78 l0 436 q-133 35 -220 76 q-110 49 -168 133 q-58 84 -58 192 q0 108 54 201 q55 94 160 152 q100 55 232 68 l0 128 q0 58 14 71 q5 6 13 6 l94 0 q8 0 14 -6 q13 -13 13 -71 l0 -126 q191 -11 339 -66 q24 -9 39 -24 q26 -26 26 -68 q0 -40 -31 -71 q-26 -26 -62 -26 q-16 0 -36 9 q-126 46 -275 53 l0 -452 q132 -32 231 -73 q107 -45 169 -128.5 q62 -83.5 62 -211.5 q0 -109 -58 -200 q-18 -28 -46 -56 q-50 -50 -122 -85 q-104 -50 -236 -59 l0 -130 Z" /><glyph glyph-name="percent" unicode="%" d="M1389 322 q0 113 -59 172 q-43 43 -110 43 q-77 0 -123 -57.5 q-46 -57.5 -46 -157.5 q0 -100 47 -158 l12 -14 q43 -43 110 -43 q77 0 123 57.5 q46 57.5 46 157.5 ZM974 54.5 q-89 103.5 -89 267.5 q0 164 89 267 q89 104 246 104 q157 0 246 -104 q89 -103 89 -267 q0 -180 -104 -284 q-87 -87 -231 -87 q-157 0 -246 103.5 ZM577 1072 q0 113 -59 172 q-43 43 -110 43 q-77 0 -123 -57.5 q-46 -57.5 -46 -157.5 q0 -113 59 -172 q43 -43 110 -43 q77 0 123 57.5 q46 57.5 46 157.5 ZM352 -8 q-11 11 -17 24.5 q-6 13.5 -6 27.5 q0 25 12 44 l814 1302 q25 37 67 37 q39 0 61 -23 q20 -19 20 -50 q0 -27 -16 -52 l-808 -1294 q-25 -41 -71 -41 q-32 0 -56 25 ZM73 1072 q0 180 104 284 q87 87 231 87 q157 0 246 -103.5 q89 -103.5 89 -267.5 q0 -164 -89 -267 q-89 -104 -246 -104 q-157 0 -246 103.5 q-89 103.5 -89 267.5 Z" /><glyph glyph-name="ampersand" unicode="&amp;" d="M327 386 q0 -67 37 -121 q37 -54 104 -86 q67 -32 148 -32 q158 0 287 100 l-426 401 q-65 -44 -107.5 -110.5 q-42.5 -66.5 -42.5 -151.5 ZM129 392 q0 129 67 230 q63 95 154 156 q-59 72 -88 138 q-29 66 -29 150 q0 97 47 181 q48 85 136.5 133.5 q88.5 48.5 203.5 48.5 q135 0 274 -90 q16 -9 28.5 -29.5 q12.5 -20.5 12.5 -41.5 q0 -35 -24 -59 q-24 -24 -59 -24 q-14 0 -41 11 q-96 51 -183 51 q-98 0 -153 -55 q-48 -48 -48 -116 q0 -56 19 -97 q21 -46 71 -99 q37 -39 107 -104 l406 -383 q18 30 56 106 q11 27 36 42.5 q25 15.5 54 15.5 q42 0 69.5 -27.5 q27.5 -27.5 27.5 -67.5 q0 -19 -12 -46 q-34 -78 -90 -157 q132 -124 134 -126 q14 -14 19 -24 q9 -18 9 -41 q0 -43 -27 -70 q-27 -27 -67.5 -27 q-40.5 0 -71.5 27 l-126 121 q-86 -70 -190.5 -111 q-104.5 -41 -218.5 -41 q-169 0 -283 61 q-111 58 -165.5 153.5 q-54.5 95.5 -54.5 210.5 Z" /><glyph glyph-name="quotesingle" unicode="&#39;" d="M107 1394 q0 47 34.5 80 q34.5 33 80.5 33 q48 0 82 -35 q33 -32 33 -78 q0 -141 -44 -362 q-5 -28 -24 -44.5 q-19 -16.5 -47 -16.5 q-28 0 -47 17 l-4 3 q-16 16 -20 41 q-44 221 -44 362 Z" /><glyph glyph-name="parenleft" unicode="(" d="M162.5 116.5 q-73.5 231.5 -73.5 497.5 q0 266 73.5 497.5 q73.5 231.5 211.5 397.5 q4 5 13.5 14.5 q9.5 9.5 18.5 15.5 q17 10 44 10 q39 0 67 -29 q26 -25 26 -62 q0 -14 -4 -27 q-7 -20 -10 -25 q-111 -183 -171.5 -384.5 q-60.5 -201.5 -60.5 -407.5 q0 -206 60.5 -407.5 q60.5 -201.5 172.5 -385.5 q13 -31 13 -50 q0 -40 -28.5 -66 q-28.5 -26 -64.5 -26 q-27 0 -43 10 q-16 9 -33 30 q-138 166 -211.5 397.5 Z" /><glyph glyph-name="parenright" unicode=")" d="M83 -230 q0 20 13 51 q112 184 172.5 385.5 q60.5 201.5 60.5 407.5 q0 305 -134 605 q-43 96 -99 188 q-13 31 -13 51 q0 39 28.5 65 q28.5 26 64.5 26 q27 0 43 -10 q16 -9 33 -30 q138 -166 211.5 -397.5 q73.5 -231.5 73.5 -497.5 q0 -266 -74 -497 q-73 -232 -211 -398 q-4 -5 -13.5 -14.5 q-9.5 -9.5 -19.5 -15.5 q-16 -10 -43 -10 q-39 0 -67 29 q-26 25 -26 62 Z" /><glyph glyph-name="asterisk" unicode="*" d="M462 1007 q27 -167 27 -181 q0 -29 -22.5 -50 q-22.5 -21 -50.5 -21 q-30 0 -52 23 q-21 20 -21 48 q0 14 27 181 q-119 -96 -130.5 -104.5 q-11.5 -8.5 -14.5 -10.5 q-14 -7 -31 -7 q-37 0 -65 35 q-10 19 -10 40 q0 41 36 60 l169 66 l-170 67 q-35 21 -35 61 q0 21 9 40 q24 35 64 35 q10 0 17 -3 q16 -6 19.5 -8.5 q3.5 -2.5 6.5 -4.5 q16 -12 135 -108 q-27 167 -27 181 q0 29 22.5 50 q22.5 21 50.5 21 q30 0 52 -23 q21 -20 21 -48 q0 -14 -27 -181 l141 114 q13 10 37 10 q40 0 64 -35 q9 -19 9 -36 q0 -42 -36 -66 l-169 -66 l170 -67 q35 -21 35 -61 q0 -19 -10 -38 q-28 -35 -65 -35 q-16 0 -30 7 q-8 3 -127 99 l-19 16 Z" /><glyph glyph-name="plus" unicode="+" d="M471 601 l-315 0 q-29 0 -58 -29 l-19 -19 l0 125 q0 92 62 102 q7 1 15 1 l315 0 l0 315 q0 58 14 71 q5 6 13 6 l128 0 q12 0 18 -12 q9 -17 9 -65 l0 -315 l313 0 q29 0 58 29 l19 19 l0 -125 q0 -92 -62 -102 q-7 -1 -15 -1 l-313 0 l0 -315 q0 -38 -26.5 -64.5 q-26.5 -26.5 -64 -26.5 q-37.5 0 -64.5 27 q-27 27 -27 64 l0 315 Z" /><glyph glyph-name="comma" unicode="," d="M113 -242 q0 38 35 61 q24 15 34 24 q27 22 41 45 q20 34 22 93 q-47 2 -83.5 38 q-36.5 36 -36.5 87 l0 12 q0 51 37 88 q37 37 88 37 l20 0 q49 0 83 -36 q39 -42 45 -107 q1 -17 1 -39 q0 -42 -4 -63 q-21 -143 -76 -218 q-36 -48 -93 -83 q-19 -12 -42 -12 q-28 0 -49.5 21.5 q-21.5 21.5 -21.5 51.5 Z" /><glyph glyph-name="hyphen" unicode="-" d="M218 467 q-39 0 -66 27 q-27 27 -27 67 q0 41 27 68 q26 26 66 26 l378 0 q29 0 58 29 l19 19 l0 -125 q0 -88 -49 -106 q-13 -5 -28 -5 l-378 0 Z" /><glyph glyph-name="period" unicode="." d="M125 106 l0 12 q0 51 37 88 q37 37 88 37 l20 0 q51 0 88 -37 q37 -37 37 -88 l0 -12 q0 -51 -37 -88 q-37 -37 -88 -37 l-20 0 q-51 0 -88 37 q-37 37 -37 88 Z" /><glyph glyph-name="slash" unicode="/" d="M83 -108 q0 14 7 34 l530 1549 q9 30 32.5 48 q23.5 18 57.5 18 q41 0 68 -27 q27 -27 27 -68 q0 -14 -7 -34 l-530 -1549 q-9 -30 -32.5 -48 q-23.5 -18 -57.5 -18 q-41 0 -68 27 q-27 27 -27 68 Z" /><glyph glyph-name="zero" unicode="0" d="M975 698 q0 286 -114 426 q-87 109 -233 109 q-164 0 -255 -138 q-92 -140 -92 -398 q0 -287 114 -427 q87 -109 233 -109 q164 0 255.5 139 q91.5 139 91.5 398 ZM216.5 162.5 q-143.5 195.5 -143.5 535.5 q0 340 143 535 q144 196 412 196 q263 0 410 -194 q145 -193 145 -537 q0 -344 -145 -537 q-23 -30 -48 -55 q-140 -139 -363 -139 q-267 0 -410.5 195.5 Z" /><glyph glyph-name="one" unicode="1" d="M354 183 l225 0 l0 967 q-2 10 -2 10 q-3 0 -10 -4 l-174 -84 q-29 -13 -51 -13 q-43 0 -71 28 q-28 28 -28 71 q0 65 60 94 q136 71 272 142 q24 15 61 15 l42 0 q45 0 77 -32 q32 -32 32 -77 l0 -1117 l185 0 q29 0 58 29 l19 19 l0 -125 q0 -72 -29 -100 q-18 -19 -48 -19 l-618 0 q-41 0 -69 28 q-28 28 -28 69.5 q0 41.5 28.5 70 q28.5 28.5 68.5 28.5 Z" /><glyph glyph-name="two" unicode="2" d="M117 104 q0 109 64 200 q57 84 138 149.5 q81 65.5 241 167.5 q116 74 193 132 q164 123 164 243 q0 115 -75.5 175 q-75.5 60 -227.5 60 q-178 0 -338 -71 q-25 -11 -42 -11 q-37 0 -63 26 q-26 26 -26 65 q0 56 52 86 l0 0 q206 103 449 103 q161 0 283 -75 q79 -49 128 -125 q62 -96 62 -220 q0 -124 -70 -225 q-65 -95 -154.5 -170 q-89.5 -75 -264.5 -187 q-180 -124 -234 -172 q-40 -36 -62 -72 l674 0 q29 0 58 29 l19 19 l0 -125 q0 -95 -50 -114 q-13 -5 -27 -5 l-772 0 q-54 0 -86.5 32.5 q-32.5 32.5 -32.5 84.5 Z" /><glyph glyph-name="three" unicode="3" d="M1069 1056 q0 -236 -215 -332 q108 -33 181 -113 q84 -91 84 -245 q0 -188 -146.5 -293.5 q-146.5 -105.5 -384.5 -105.5 q-230 0 -422 81 q-22 9 -36 23 q-25 25 -25 65 q0 43 29 71 q25 26 64 26 q20 0 42 -9 q144 -57 310.5 -57 q166.5 0 265.5 53 q95 51 95 156 q0 116 -100 175 q-108 64 -329 64 l-32 0 q-29 0 -58 -29 l-19 -19 l0 125 q0 93 50 112 q12 5 27 5 l12 0 q252 0 346 94 q53 53 53 135 q0 92 -77 143 q-79 52 -226 52 q-168 0 -306 -65 q-22 -9 -40 -9 q-36 0 -61.5 25.5 q-25.5 25.5 -25.5 61.5 q0 52 48 80 l0 0 q192 103 401 103 q273 0 402 -129 q93 -93 93 -244 Z" /><glyph glyph-name="four" unicode="4" d="M763 527 l0 621 q0 5 -2 8 q-3 -3 -6 -7 l-482 -619 q0 -1 0 -1 q2 -2 11 -2 l479 0 ZM763 80 l0 259 l-597 0 q-54 0 -91.5 37.5 q-37.5 37.5 -37.5 89.5 l0 18 q0 46 26 81 l628 802 q20 24 49 38 q29 14 62 14 l40 0 q57 0 93 -37.5 q36 -37.5 36 -91.5 l0 -763 l139 0 q29 0 58 29 l19 19 l0 -125 q0 -65 -27 -92 q-19 -19 -50 -19 l-139 0 l0 -259 q-1 -43 -31 -73 q-32 -30 -74.5 -30 q-42.5 0 -72.5 30 q-30 30 -30 73 Z" /><glyph glyph-name="five" unicode="5" d="M115 168 q0 45 29 73 q25 26 64 26 q20 0 47 -11 q160 -83 315 -83 q193 0 286 63 q91 62 91 206 q0 109 -66 175 l-12 12 q-79 68 -219 68 q-165 0 -301 -85 l-24 -12 q-22 -13 -53 -13 q-68 0 -110 42 q-35 35 -35 87 q0 17 4 50 l90 532 q7 49 38 80 q33 31 81 31 l642 0 q29 0 58 29 l19 19 l0 -125 q0 -95 -50 -114 q-13 -5 -27 -5 l-540 0 q-23 0 -30 -16 q-2 -4 -3 -11 q-28 -180 -55 -361 q149 72 322 72 q147 0 259 -59 q51 -28 94 -70 q41 -42 70 -95 q56 -104 56 -241 q0 -213 -145.5 -339 q-145.5 -126 -415.5 -126 q-247 0 -434 118 q-21 14 -33 33 q-12 19 -12 50 Z" /><glyph glyph-name="six" unicode="6" d="M965 438 q0 136 -76 212 q-75 75 -209 75 q-250 0 -365 -209 q41 -265 218 -331 q60 -22 135 -22 q87 0 159 39 q65 36 101.5 98.5 q36.5 62.5 36.5 137.5 ZM308 768 q141 149 394 149 q139 0 245 -59 q50 -29 93.5 -72 q43.5 -43 73.5 -100 q59 -111 59 -252 q0 -127 -61 -235 q-64 -111 -180.5 -171.5 q-116.5 -60.5 -265.5 -60.5 q-243 0 -381 138 q-180 180 -180 591 q0 172 59 342 q61 177 197.5 284 q136.5 107 336.5 107 q107 0 192 -22 q84 -23 167 -65 q23 -12 37 -36 q13 -23 13 -48 q0 -39 -30 -68 q-26 -27 -65 -27 q-22 0 -39 7 q-123 57 -261 57 q-200 0 -296 -136 q-90 -128 -108 -323 Z" /><glyph glyph-name="seven" unicode="7" d="M357 80 q0 31 13 53 l534 1063 l3 11 q0 2 -9 2 l-692 0 q-29 0 -58 -29 l-19 -19 l0 125 q0 107 59 121 q9 2 18 2 l816 0 q56 0 93 -37 q32 -32 32 -82 q0 -44 -21 -93 l-568 -1162 q-14 -27 -41.5 -42.5 q-27.5 -15.5 -56.5 -15.5 q-43 0 -73 30 q-30 30 -30 73 Z" /><glyph glyph-name="eight" unicode="8" d="M967 390 q0 118 -95.5 187.5 q-95.5 69.5 -243.5 69.5 q-148 0 -245 -70 q-94 -69 -94 -187 q0 -47 34 -102 q37 -60 113.5 -97.5 q76.5 -37.5 191.5 -37.5 q121 0 199 41 q90 47 124 126 q16 35 16 70 ZM901 1040 q0 94 -72 148 q-73 55 -201 55 q-149 0 -223 -73 q-50 -51 -50 -130 q0 -87 68.5 -145 q68.5 -58 204.5 -58 q136 0 205 58 q68 58 68 145 ZM901 749 q274 -106 274 -379 q0 -114 -66 -211 q-59 -85 -174 -136 q-125 -56 -310.5 -56 q-185.5 0 -307.5 59 q-119 57 -177.5 148 q-58.5 91 -58.5 196 q0 273 274 379 q-88 38 -144 108 q-64 81 -64 195 q0 93 49 175 q50 93 161 148 q110 54 275 54 q165 0 271 -55 q103 -54 154.5 -140.5 q51.5 -86.5 51.5 -181.5 q0 -114 -64 -195 q-56 -70 -144 -108 Z" /><glyph glyph-name="nine" unicode="9" d="M588 1233 q-89 0 -157 -37 q-67 -36 -103.5 -98.5 q-36.5 -62.5 -36.5 -139.5 q0 -136 75.5 -211.5 q75.5 -75.5 209.5 -75.5 q250 0 365 209 q-27 177 -115 265 q-88 88 -238 88 ZM948 628 q-141 -149 -394 -149 q-135 0 -243 59 q-52 29 -95.5 73 q-43.5 44 -74.5 101 q-58 109 -58 250 q0 129 61 235 q64 111 180.5 171.5 q116.5 60.5 265.5 60.5 q243 0 381 -138 q180 -180 180 -591 q0 -178 -57 -342 q-61 -177 -198.5 -284 q-137.5 -107 -337.5 -107 q-107 0 -191.5 22.5 q-84.5 22.5 -167.5 64.5 q-23 12 -36.5 35.5 q-13.5 23.5 -13.5 48.5 q0 38 28.5 66.5 q28.5 28.5 66.5 28.5 q22 0 39 -7 q123 -57 261 -57 q200 0 296 136 q90 128 108 323 Z" /><glyph glyph-name="colon" unicode=":" d="M125 106 l0 12 q0 51 37 88 q37 37 88 37 l20 0 q51 0 88 -37 q37 -37 37 -88 l0 -12 q0 -51 -37 -88 q-37 -37 -88 -37 l-20 0 q-51 0 -88 37 q-37 37 -37 88 ZM125 902 l0 12 q0 51 37 88 q37 37 88 37 l20 0 q51 0 88 -37 q37 -37 37 -88 l0 -12 q0 -51 -37 -88 q-37 -37 -88 -37 l-20 0 q-51 0 -88 37 q-37 37 -37 88 Z" /><glyph glyph-name="semicolon" unicode=";" d="M113 -242 q0 38 35 61 q24 15 34 24 q27 22 41 45 q20 34 22 93 q-47 2 -83.5 38 q-36.5 36 -36.5 87 l0 12 q0 51 37 88 q37 37 88 37 l20 0 q49 0 83 -36 q39 -42 45 -107 q1 -17 1 -39 q0 -42 -4 -63 q-21 -143 -76 -218 q-36 -48 -93 -83 q-19 -12 -42 -12 q-28 0 -49.5 21.5 q-21.5 21.5 -21.5 51.5 ZM125 902 l0 12 q0 51 37 88 q37 37 88 37 l20 0 q51 0 88 -37 q37 -37 37 -88 l0 -12 q0 -51 -37 -88 q-37 -37 -88 -37 l-20 0 q-51 0 -88 37 q-37 37 -37 88 Z" /><glyph glyph-name="less" unicode="&lt;" d="M57 584 l0 16 q0 77 80 116 l799 358 q18 7 36 7 q39 0 66 -27 q27 -27 27 -66 q0 -28 -18 -52 q-18 -25 -45 -36 q-346 -154 -693 -308 q699 -311 703 -313 q4 -2 8 -4 q15 -11 27 -27 q18 -24 18 -52 q0 -39 -27 -66 q-27 -27 -66 -27 q-20 0 -37 7 l-798 358 q-80 39 -80 116 ZM1002 284 l0 0 l0 0 Z" /><glyph glyph-name="equal" unicode="=" d="M133 438 q0 12 3 24 q6 23 24 41 q28 26 64 26 l976 0 q29 0 58 29 l19 19 l0 -125 q0 -82 -49 -100 q-13 -5 -28 -5 l-976 0 q-37 0 -64 27 q-27 27 -27 64 ZM224 795 q-37 0 -64 27 q-27 27 -27 65 q0 38 27.5 64 q27.5 26 63.5 26 l976 0 q29 0 58 29 l19 19 l0 -125 q0 -93 -62 -104 q-7 -1 -15 -1 l-976 0 Z" /><glyph glyph-name="greater" unicode="&gt;" d="M95 196 q0 28 18 52 q18 25 45 36 l691 308 q-697 311 -701 313 q-4 2 -8 4 q-15 11 -27 27 q-18 24 -18 52 q0 39 27 66 q27 27 66 27 q20 0 36 -7 l799 -358 q80 -39 80 -116 l0 -16 q0 -77 -80 -116 l-799 -358 q-16 -7 -36 -7 q-39 0 -66 27 q-27 27 -27 66 ZM158 900 l0 0 l0 0 ZM158 284 q0 0 0 0 l0 0 Z" /><glyph glyph-name="question" unicode="?" d="M307 111 q0 54 39 93 q39 39 93 39 q54 0 93 -39 q39 -39 39 -93 q0 -54 -39 -93 q-40 -39 -93.5 -39 q-53.5 0 -92.5 39 q-39 39 -39 93 ZM341 450 q0 95 33 163 q31 65 72 111 q40 46 121 111 q81 63 112.5 104 q31.5 41 31.5 89 q0 89 -50 139 q-66 66 -223 66 q-69 0 -133.5 -16.5 q-64.5 -16.5 -114.5 -47.5 q-30 -18 -58 -18 q-37 0 -65 28 q-28 28 -28 65 q0 52 55 87 q84 53 169 76 q86 22 191 22 q210 0 336 -106 q127 -106 127 -285 q0 -76 -28 -138 q-28 -62 -67 -104 q-39 -40 -111 -99 q-93 -73 -130.5 -125 q-37.5 -52 -37.5 -122 q0 -34 -26 -60 l-5 -4 q-30 -27 -70 -27 q-45 0 -76 31 q-25 25 -25 60 Z" /><glyph glyph-name="at" unicode="@" d="M1136 788 q-82 83 -212 83 q-87 0 -155 -37 q-43 -23 -71 -50.5 q-28 -27.5 -44.5 -55 q-16.5 -27.5 -25.5 -54.5 q-19 -52 -19 -114 q0 -105 58 -163 q58 -58 159 -58 q120 0 189 70 q67 67 90 199 l31 180 ZM916 1039 q146 0 247 -90 l2 11 q5 32 30 52.5 q25 20.5 57 20.5 q37 0 61 -25.5 q24 -25.5 24 -61.5 l0 -1 l-2 -23 l-66 -380 q-14 -69 -14 -128 q0 -22 2.5 -33.5 q2.5 -11.5 4 -17 q1.5 -5.5 3 -10.5 q1.5 -5 4.5 -10 q4 -9 10 -16 l7 -9 q21 -21 56 -21 q114 0 179 100 q66 102 66 287 q0 179 -92 310 q-90 127 -236.5 195 q-146.5 68 -312.5 68 q-191 0 -360 -100 q-170 -103 -270.5 -271.5 q-100.5 -168.5 -100.5 -361.5 q0 -141 71 -277 q72 -135 204.5 -215.5 q132.5 -80.5 309.5 -80.5 q115 0 203 21 q88 21 212 70 q18 5 25 5 q27 0 45 -18 q18 -18 18 -43 q0 -22 -14 -40 q-9 -12 -22 -18 q-215 -107 -467 -107 q-209 0 -376 96 q-160 95 -249.5 257.5 q-89.5 162.5 -89.5 349.5 q0 233 118 430 q117 200 316.5 317.5 q199.5 117.5 426.5 117.5 q209 0 387 -89 q107 -54 189 -137 q54 -54 95 -118 q104 -162 104 -361 q0 -134 -39 -242 q-41 -121 -129 -193 q-89 -72 -217 -72 q-121 0 -189 68 q-29 29 -42 66 q-89 -99 -226 -127 q-47 -9 -97 -9 q-163 0 -258 101.5 q-95 101.5 -95 263.5 q0 153 70 268 q65 110 177.5 170.5 q112.5 60.5 239.5 60.5 Z" /><glyph glyph-name="A" unicode="A" d="M752 1128 q-3 7 -6 7 q-3 0 -6 -7 l-246 -591 l504 0 l-246 591 ZM87 80 q0 17 11 44 l510 1205 q19 42 52 66 q32 24 76 24 l20 0 q55 0 93 -38 q21 -21 35 -52 l510 -1205 q11 -28 11 -44 q0 -44 -30 -74 q-29 -29 -73 -29 q-45 0 -75 30 q-14 15 -23 35 l-127 303 l-662 0 l-127 -303 q-13 -31 -39 -48 q-26 -17 -59 -17 q-45 0 -74 30.5 q-29 30.5 -29 72.5 Z" /><glyph glyph-name="B" unicode="B" d="M1093 398 q0 86 -51 136 q-80 81 -290 81 l-363 0 l0 -419 q0 -7 3 -10 q3 -3 10 -3 l348 0 q185 0 264 54.5 q79 54.5 79 160.5 ZM1017 1020 q0 88 -73.5 140.5 q-73.5 52.5 -201.5 52.5 l-340 0 q-7 0 -10 -3 q-3 -4 -3 -10 l0 -395 l319 0 q187 0 256 70 q53 52 53 145 ZM181 90 l0 1214 q0 44 30.5 74.5 q30.5 30.5 72.5 30.5 l472 0 q240 0 365 -124 q96 -97 96 -251 q0 -151 -97 -249 q-34 -34 -78 -57 q110 -41 177 -120 q76 -88 76 -216 q0 -199 -134.5 -302 q-134.5 -103 -392.5 -103 l-484 0 q-43 0 -73 30 q-30 30 -30 73 Z" /><glyph glyph-name="C" unicode="C" d="M240 235 q-143 190 -143 464 q0 220 93 386 q92 165 253.5 254.5 q161.5 89.5 366.5 89.5 q134 0 241 -30.5 q107 -30.5 220 -94.5 q15 -7 26 -18 q26 -26 26 -70 q0 -36 -27 -63 q-26 -26 -66 -26 q-25 0 -41 9 q-91 48 -173.5 70.5 q-82.5 22.5 -187.5 22.5 q-169 0 -284.5 -68.5 q-115.5 -68.5 -177 -187 q-61.5 -118.5 -61.5 -275.5 q0 -157 61 -273 q18 -37 38 -65 q55 -76 141 -125 q120 -68 283 -68 q105 0 187.5 22.5 q82.5 22.5 173.5 70.5 q16 9 41 9 q41 0 67 -26 q26 -26 26 -63 q0 -61 -52 -88 q-113 -64 -220 -94.5 q-107 -30.5 -241 -30.5 q-203 0 -363 89 q-124 68 -207 179 Z" /><glyph glyph-name="D" unicode="D" d="M1199 698 q0 153 -67 271 q-66 117 -187.5 180.5 q-121.5 63.5 -280.5 63.5 l-262 0 q-7 0 -10 -3 q-3 -4 -3 -10 l0 -1004 q0 -7 3 -10 q3 -3 10 -3 l262 0 q161 0 283 67 q65 35 111 80 q141 142 141 368 ZM181 90 l0 1214 q0 44 30.5 74.5 q30.5 30.5 72.5 30.5 l402 0 q229 0 396 -102 q29 -18 60 -43 q114 -92 180 -220 q83 -161 83 -344 q0 -183 -81 -343 q-84 -171 -248.5 -270.5 q-164.5 -99.5 -389.5 -99.5 l-402 0 q-43 0 -73 30 q-30 30 -30 73 Z" /><glyph glyph-name="E" unicode="E" d="M181 90 l0 1214 q0 44 30.5 74.5 q30.5 30.5 72.5 30.5 l802 0 q29 0 58 29 l19 19 l0 -125 q0 -95 -50 -114 q-13 -5 -27 -5 l-684 0 q-7 0 -10 -3 q-3 -3 -3 -10 l0 -403 l625 0 q29 0 58 29 l19 19 l0 -125 q0 -72 -29 -100 q-18 -19 -48 -19 l-625 0 l0 -405 q0 -7 3 -10 q3 -3 10 -3 l684 0 q29 0 58 29 l19 19 l0 -125 q0 -95 -50 -114 q-13 -5 -27 -5 l-802 0 q-43 0 -73 30 q-30 30 -30 73 Z" /><glyph glyph-name="F" unicode="F" d="M181 80 l0 1224 q0 44 30.5 74.5 q30.5 30.5 72.5 30.5 l778 0 q29 0 58 29 l19 19 l0 -125 q0 -95 -50 -114 q-13 -5 -27 -5 l-660 0 q-7 0 -10 -3 q-3 -3 -3 -10 l0 -403 l603 0 q29 0 58 29 l19 19 l0 -125 q0 -72 -29 -100 q-18 -19 -48 -19 l-603 0 l0 -521 q0 -43 -31.5 -73 q-31.5 -30 -74 -30 q-42.5 0 -72.5 30 q-30 30 -30 73 Z" /><glyph glyph-name="G" unicode="G" d="M97 698 q0 213 93.5 379.5 q93.5 166.5 256 259 q162.5 92.5 359.5 92.5 q150 0 268 -36.5 q118 -36.5 235 -108.5 q21 -10 34.5 -33.5 q13.5 -23.5 13.5 -50.5 q0 -40 -28 -68 q-27 -27 -69 -27 q-20 0 -47 11 q-95 56 -188 83.5 q-93 27.5 -199 27.5 q-143 0 -269 -63 q-121 -64 -186.5 -185.5 q-65.5 -121.5 -65.5 -282.5 q0 -151 65 -273 q64 -123 185.5 -190.5 q121.5 -67.5 280.5 -67.5 q178 0 337 84 l0 327 q0 7 -3 10 q-3 3 -10 3 l-304 0 q-29 0 -58 -29 l-19 -19 l0 125 q0 66 28 94 q19 19 49 19 l394 0 q45 0 77 -32 q32 -32 32 -77 l0 -454 q0 -65 -42 -106 q-18 -18 -42 -30 q-230 -113 -463 -113 q-211 0 -371 93 q-165 94 -255 260 q-89 165 -89 378 Z" /><glyph glyph-name="H" unicode="H" d="M181 80 l0 1234 q0 58 14 71 q5 6 13 6 l154 0 q8 0 14 -6.5 q6 -6.5 9 -18.5 q4 -21 4 -52 l0 -519 l732 0 l0 519 q0 58 14 71 q5 6 13 6 l154 0 q8 0 14 -6.5 q6 -6.5 9 -18.5 q4 -21 4 -52 l0 -1234 q0 -58 -14 -71 q-5 -6 -13 -6 l-154 0 q-8 0 -14 6.5 q-6 6.5 -9 18.5 q-4 21 -4 52 l0 519 l-732 0 l0 -519 q0 -43 -31.5 -73 q-31.5 -30 -74 -30 q-42.5 0 -72.5 30 q-30 30 -30 73 Z" /><glyph glyph-name="I" unicode="I" d="M181 80 l0 1234 q0 58 14 71 q5 6 13 6 l154 0 q8 0 14 -6.5 q6 -6.5 9 -18.5 q4 -21 4 -52 l0 -1234 q0 -43 -31.5 -73 q-31.5 -30 -74 -30 q-42.5 0 -72.5 30 q-30 30 -30 73 Z" /><glyph glyph-name="J" unicode="J" d="M13 122 q0 36 25 65 q25 30 64 30 q25 0 41 -9 q88 -43 181 -43 q111 0 170 63 q59 62 59 220 l0 866 q0 58 14 71 q5 6 13 6 l154 0 q8 0 13 -5 q5 -5 7 -10 q7 -18 7 -62 l0 -854 q0 -261 -125 -386 q-107 -107 -300 -107 q-149 0 -273 69 q-12 7 -24 19 q-12 12 -19 29.5 q-7 17.5 -7 37.5 Z" /><glyph glyph-name="K" unicode="K" d="M181 80 l0 1234 q0 58 14 71 q5 6 13 6 l154 0 q8 0 14 -6.5 q6 -6.5 9 -18.5 q4 -21 4 -52 l0 -605 l661 674 q29 36 78 36 q43 0 71 -29 q26 -25 26 -65.5 q0 -40.5 -25 -69.5 l-455 -452 l524 -658 q24 -31 24 -70 q0 -42 -31 -70 q-30 -28 -70 -28 q-49 0 -82 40 l-507 646 l-214 -214 l0 -369 q0 -43 -31.5 -73 q-31.5 -30 -74 -30 q-42.5 0 -72.5 30 q-30 30 -30 73 Z" /><glyph glyph-name="L" unicode="L" d="M181 126 l0 1188 q0 58 14 71 q5 6 13 6 l154 0 q8 0 14 -6.5 q6 -6.5 9 -18.5 q4 -21 4 -52 l0 -1106 q0 -7 3 -10 q3 -3 10 -3 l628 0 q29 0 58 29 l19 19 l0 -125 q0 -82 -31 -113 q-18 -18 -46 -18 l-710 0 q-57 0 -98 41 q-41 41 -41 98 Z" /><glyph glyph-name="M" unicode="M" d="M181 80 l0 1194 q0 60 42.5 102.5 q42.5 42.5 100.5 42.5 l66 0 q41 0 78 -25 q37 -25 56 -68 l436 -1088 q3 -7 6 -7 q3 0 6 7 l436 1089 q19 42 56 67 q37 25 78 25 l66 0 q59 0 101 -43.5 q42 -43.5 42 -101.5 l0 -1194 q0 -44 -7 -62 q-2 -5 -7 -10 q-5 -5 -13 -5 l-154 0 q-8 0 -14 6.5 q-6 6.5 -9 18.5 q-4 21 -4 52 l0 1056 q0 4 -1 7 q-2 -1 -4 -6 l-432 -1067 q-17 -41 -56 -67 q-39 -26 -84 -26 q-45 0 -84 26 q-39 26 -56 67 l-432 1067 l-3 5 l-1 1 l-1 -7 l0 -1056 q0 -43 -31.5 -73 q-31.5 -30 -74 -30 q-42.5 0 -72.5 30 q-30 30 -30 73 ZM972 238 q0 0 0 0 l0 0 ZM960 238 l0 0 l0 0 Z" /><glyph glyph-name="N" unicode="N" d="M391 1114 q-2 -4 -2 -8 l0 -1026 q0 -43 -31.5 -73 q-31.5 -30 -74 -30 q-42.5 0 -72.5 30 q-30 30 -30 73 l0 1194 q0 60 42.5 102.5 q42.5 42.5 100.5 42.5 l26 0 q69 0 121 -64 l738 -1066 q3 -4 6 -7 q2 4 2 8 l0 1024 q0 58 14 71 q5 6 13 6 l154 0 q8 0 13 -5 q5 -5 7 -10.5 q2 -5.5 4 -13.5 q3 -17 3 -48 l0 -1194 q0 -59 -43.5 -101 q-43.5 -42 -101.5 -42 l-24 0 q-47 0 -86 29 q-18 12 -31 30 l-742 1071 q-3 4 -6 7 Z" /><glyph glyph-name="O" unicode="O" d="M1257 422 q62 121 62 275 q0 154 -61 276 q-62 123 -177.5 191.5 q-115.5 68.5 -268.5 68.5 q-159 0 -270 -70 q-51 -32 -89 -70 q-51 -51 -86 -119 q-62 -121 -62 -275 q0 -185 87 -322 q58 -92 151 -147 q114 -67 271 -67 q157 0 268 70 q51 32 89 70 q51 51 86 119 ZM367 1288 q185 141 446 141 q212 0 375 -94 q158 -93 247 -260 q88 -166 92 -377 l0 0 q-4 -211 -91 -375 q-90 -169 -251.5 -262.5 q-161.5 -93.5 -373.5 -93.5 q-212 0 -375 94 q-158 93 -246.5 258.5 q-88.5 165.5 -92.5 378.5 l0 0 q4 213 91 377 q67 128 179 213 Z" /><glyph glyph-name="P" unicode="P" d="M1079 952 q0 126 -89.5 192.5 q-89.5 66.5 -267.5 66.5 l-320 0 q-7 0 -10 -3 q-3 -4 -3 -10 l0 -505 l333 0 q205 0 294 89 q63 63 63 170 ZM181 80 l0 1224 q0 44 30.5 74.5 q30.5 30.5 72.5 30.5 l456 0 q191 0 315 -65 q115 -62 173.5 -161.5 q58.5 -99.5 58.5 -230.5 q0 -127 -60 -233 q-56 -101 -175 -161 q-125 -63 -312 -63 l-351 0 l0 -415 q0 -43 -31.5 -73 q-31.5 -30 -74 -30 q-42.5 0 -72.5 30 q-30 30 -30 73 Z" /><glyph glyph-name="Q" unicode="Q" d="M1257 422 q62 121 62 275 q0 154 -61 276 q-62 123 -177.5 191.5 q-115.5 68.5 -268.5 68.5 q-159 0 -270 -70 q-51 -32 -89 -70 q-51 -51 -86 -119 q-62 -121 -62 -275 q0 -185 87 -322 q58 -92 151 -147 q114 -67 271 -67 q157 0 268 70 q51 32 89 70 q51 51 86 119 ZM928 -26 q-46 -7 -116 -7 q-213 0 -376 94 q-158 93 -246.5 258.5 q-88.5 165.5 -92.5 378.5 l0 0 q4 213 91 377 q88 167 250.5 260.5 q162.5 93.5 374.5 93.5 q212 0 375 -94 q158 -93 247 -260 q88 -166 92 -377 l0 0 q-4 -237 -115 -415 q-106 -171 -290 -253 l164 -181 q27 -31 27 -71 q0 -39 -31 -67 q-30 -28 -68 -28 q-43 0 -74 36 l-212 255 Z" /><glyph glyph-name="R" unicode="R" d="M1099 978 q0 116 -85 174.5 q-85 58.5 -286 58.5 l-326 0 q-7 0 -10 -3 q-3 -4 -3 -10 l0 -469 l349 0 q171 0 266 66.5 q95 66.5 95 182.5 ZM1295 172 l0 -92 q0 -58 -14 -71 q-5 -6 -13 -6 l-154 0 q-8 0 -14 6 q-13 13 -13 71 l0 60 q0 99 -18 184 q-19 90 -87 148.5 q-68 58.5 -192 58.5 l-401 0 l0 -451 q0 -44 -7 -62 q-2 -5 -7 -10 q-5 -5 -13 -5 l-154 0 q-8 0 -14 6 q-13 13 -13 71 l0 1224 q0 44 30.5 74.5 q30.5 30.5 72.5 30.5 l466 0 q268 0 412 -113 q145 -115 145 -306 q0 -141 -85 -248 q-59 -73 -152 -113 q113 -45 166 -163 q59 -132 59 -294 Z" /><glyph glyph-name="S" unicode="S" d="M89 158 q0 42 27.5 69.5 q27.5 27.5 67.5 27.5 q24 0 43 -9 q183 -81 389 -81 q285 0 329 154 q8 28 8 58 q0 30 -8 51 q-10 25 -32 44 l-1 0 q-38 36 -96.5 57.5 q-58.5 21.5 -196.5 57.5 q-158 41 -263 83 q-125 47 -189 132 q-64 86 -64 203.5 q0 117.5 62 216.5 q64 101 187.5 154 q123.5 53 281.5 53 q222 0 402 -67 q24 -9 39 -24 q26 -26 26 -68 q0 -40 -31 -71 q-26 -26 -62 -26 q-16 0 -36 9 q-154 53 -318 53 q-157 0 -251 -58 q-92 -57 -92 -157 q0 -67 44 -106 l1 0 q42 -41 106.5 -66 q64.5 -25 196.5 -55 q168 -40 257 -77 q109 -41 176 -127.5 q67 -86.5 67 -218.5 q0 -113 -66 -208 q-18 -26 -42 -49 q-60 -60 -146 -96 q-119 -50 -271 -50 q-256 0 -480 97 q-27 11 -46 37.5 q-19 26.5 -19 56.5 Z" /><glyph glyph-name="T" unicode="T" d="M505 80 l0 1133 l-395 0 q-29 0 -58 -29 l-19 -19 l0 125 q0 95 50 114 q13 5 27 5 l996 0 q29 0 58 29 l19 19 l0 -125 q0 -95 -50 -114 q-13 -5 -27 -5 l-393 0 l0 -1133 q0 -43 -31.5 -73 q-31.5 -30 -74 -30 q-42.5 0 -72.5 30 q-30 30 -30 73 Z" /><glyph glyph-name="U" unicode="U" d="M171 524 l0 790 q0 48 9 65 q6 12 18 12 l154 0 q12 0 18 -12 q9 -17 9 -65 l0 -796 q0 -119 54 -196 q17 -25 27 -36.5 q10 -11.5 19 -20.5 q39 -39 91 -64 q87 -42 187.5 -42 q100.5 0 187.5 41 q91 43 141.5 125 q50.5 82 50.5 193 l0 796 q0 58 14 71 q5 6 13 6 l154 0 q8 0 13 -5 q5 -5 7 -10.5 q2 -5.5 4 -13.5 q3 -17 3 -48 l0 -790 q0 -179 -86 -308 q-84 -123 -217.5 -186 q-133.5 -63 -281.5 -63 q-148 0 -281 61 q-140 63 -224 192 q-84 129 -84 304 Z" /><glyph glyph-name="V" unicode="V" d="M35 1314 q0 48 28.5 76.5 q28.5 28.5 74.5 28.5 q42 0 72 -30 q16 -16 26 -41 l452 -1128 q3 -7 6 -7 q3 0 6 7 l452 1128 q13 33 38.5 52 q25.5 19 59.5 19 q47 0 75 -29.5 q28 -29.5 28 -75.5 q0 -21 -7 -38 l-494 -1198 q-17 -38 -38 -60 q-42 -41 -98 -41 l-44 0 q-91 0 -136 101 l-494 1198 q-7 18 -7 38 ZM700 220 q0 0 0 0 l0 0 ZM688 220 l0 0 l0 0 Z" /><glyph glyph-name="W" unicode="W" d="M43 1322 q0 41 29.5 69 q29.5 28 71.5 28 q42 0 73 -31 q20 -20 30 -51 l319 -1049 q2 -5 4 -8 q2 3 4 8 l321 1045 q12 40 45 63 q33 23 72 23 q39 0 72 -23 q34 -23 45 -63 q161 -523 321 -1045 q2 -5 4 -7 l4 7 l319 1049 q11 37 39 59.5 q28 22.5 64 22.5 q44 0 72.5 -28.5 q28.5 -28.5 28.5 -68.5 q0 -15 -6 -41 l-393 -1205 q-21 -59 -68 -84 q-28 -15 -62 -15 q-55 0 -95 40 q-25 25 -36 60 l-305 967 q-2 5 -4 8 q-2 -3 -4 -8 l-305 -967 q-13 -44 -49 -72 q-36 -28 -82 -28 q-55 0 -93 38 q-25 25 -37 62 l-393 1204 q-6 26 -6 41 Z" /><glyph glyph-name="X" unicode="X" d="M172 -23 q-39 0 -68 29 q-29 29 -29 66 q0 37 20 67 l457 559 l-453 556 q-20 31 -20 64 q0 43 29 72 q29 29 72 29 q25 0 45 -10 q25 -13 40 -30 l411 -523 l411 527 q27 36 77 36 q42 0 71.5 -29.5 q29.5 -29.5 29.5 -69.5 q0 -34 -18 -59 l-457 -561 l456 -559 q21 -23 21 -61 q0 -44 -30 -74 q-29 -29 -72 -29 q-48 0 -78 35 l-423 532 l-412 -527 q-35 -40 -80 -40 Z" /><glyph glyph-name="Y" unicode="Y" d="M535 80 l0 506 l-477 667 q-11 23 -14 37.5 q-3 14.5 -3 23.5 q0 45 32 77 q28 28 71 28 q56 0 89 -51 q204 -296 407 -593 l411 599 q32 45 87 45 q41 0 71 -30 q30 -30 30 -71 q0 -26 -17 -65 l-479 -667 l0 -506 q0 -43 -30 -73 q-30 -30 -73 -30 q-44 0 -74.5 30.5 q-30.5 30.5 -30.5 72.5 ZM1047 1368 l0 0 l0 0 Z" /><glyph glyph-name="Z" unicode="Z" d="M107 199 l811 1001 l5 6 l0 1 q-2 2 -9 2 l-730 0 q-29 0 -58 -29 l-19 -19 l0 125 q0 99 51 118 q12 5 26 5 l868 0 q59 0 97 -39.5 q38 -39.5 38 -97.5 q0 -44 -34 -89 l-801 -991 l-5 -6 l0 -1 q2 -2 9 -2 l744 0 q29 0 58 29 l19 19 l0 -125 q0 -95 -50 -114 q-13 -5 -27 -5 l-890 0 q-53 0 -91 38 q-38 38 -38 89 q0 51 26 85 ZM347 186 l0 0 l0 0 Z" /><glyph glyph-name="bracketleft" unicode="[" d="M161 -176 l0 1552 q0 41 30 71 q30 30 71 30 l254 0 q29 0 58 29 l19 19 l0 -125 q0 -71 -47 -88 q-13 -5 -30 -5 l-158 0 q-7 0 -10 -3 q-3 -3 -3 -10 l0 -1390 q0 -7 3 -10 q3 -3 10 -3 l158 0 q29 0 58 29 l19 19 l0 -125 q0 -48 -23 -71 q-20 -20 -54 -20 l-254 0 q-41 0 -71 30 q-30 30 -30 71 Z" /><glyph glyph-name="backslash" unicode="\" d="M81 1446 q0 41 27 68 q27 27 68 27 q41 0 67 -27 q16 -16 23 -39 l530 -1550 q7 -19 7 -33 q0 -41 -27 -68 q-27 -27 -68 -27 q-41 0 -67 27 q-16 16 -23 39 l-530 1550 q-7 19 -7 33 Z" /><glyph glyph-name="bracketright" unicode="]" d="M128 -277 q-35 0 -60 25 q-25 25 -25 59 q0 34 25 59 q25 25 60 25 l158 0 q7 0 10 3 q3 3 3 10 l0 1390 q0 7 -3 10 q-3 3 -10 3 l-158 0 q-29 0 -58 -29 l-19 -19 l0 125 q0 71 47 88 q13 5 30 5 l254 0 q41 0 71 -30 q30 -30 30 -71 l0 -1552 q0 -41 -30 -71 q-30 -30 -71 -30 l-254 0 Z" /><glyph glyph-name="asciicircum" unicode="^" d="M151 902 q0 15 13 41 l210 398 q22 38 47 57 q25 19 63 19 l76 0 q38 0 64 -19 q15 -14 18.5 -17.5 q3.5 -3.5 5 -5.5 q1.5 -2 3 -4.5 q1.5 -2.5 3.5 -4.5 q2 -2 3.5 -4.5 q1.5 -2.5 3 -5 q1.5 -2.5 2.5 -4.5 q4 -5 7 -11 l210 -398 q13 -26 13 -41 q0 -35 -25 -60 q-25 -25 -61 -25 q-36 0 -65 30 q-14 13 -139 225 l-73 121 q-4 8 -8 8 q-3 0 -7 -7 q-35 -59 -126 -208 q-82 -134 -93 -146 q-20 -23 -60 -23 q-35 0 -60 25 q-25 25 -25 60 Z" /><glyph glyph-name="underscore" unicode="_" d="M115.5 -284 q-24.5 23 -24.5 55 q0 32 24 56 q24 24 55 24 l986 0 q29 0 58 29 l19 19 l0 -125 q0 -41 -20 -61 q-20 -20 -57 -20 l-986 0 q-30 0 -54.5 23 Z" /><glyph glyph-name="grave" unicode="`" d="M467 1188 q0 -30 -18.5 -48.5 q-18.5 -18.5 -48.5 -18.5 q-33 0 -54 26 l-138 164 q-23 23 -23 61 q0 39 24.5 62 q24.5 23 62.5 23 q55 0 78 -46 l102 -177 q15 -27 15 -46 ZM350 1411 q0 0 0 0 l0 0 Z" /><glyph glyph-name="a" unicode="a" d="M781 445 l-205 0 q-97 0 -161 -16 q-97 -25 -120 -84 q-8 -20 -8 -45 q0 -63 35 -99 q49 -48 164 -48 q83 0 162 40 q77 39 133 101 l0 151 ZM79 280 q0 162 126 250 q124 87 347 87 l229 0 l0 3 q0 123 -59.5 179 q-59.5 56 -195.5 56 q-71 0 -128 -11 q-57 -11 -135 -37 l-28 -4 l-1 0 q-35 0 -61 26 q-26 26 -26 65 q0 61 61 86 q170 73 350 73 q202 0 320 -118 q39 -38 64 -87 q47 -91 47 -202 l0 -566 q0 -58 -14 -71 q-5 -6 -13 -6 l-154 0 q-8 0 -14 6 q-13 13 -13 71 l0 22 q-143 -135 -363 -135 q-88 0 -167 37 q-81 37 -126.5 110 q-45.5 73 -45.5 166 Z" /><glyph glyph-name="b" unicode="b" d="M971 510 q0 172 -93 264 q-82 83 -222 83 q-85 0 -164 -39 q-77 -38 -139 -102 l0 -412 q62 -64 140 -102.5 q78 -38.5 163 -38.5 q147 0 231 91.5 q84 91.5 84 255.5 ZM1110 223 q-70 -123 -183.5 -189.5 q-113.5 -66.5 -244.5 -66.5 q-188 0 -329 135 l0 -22 q0 -44 -7 -62 q-2 -5 -7 -10 q-5 -5 -13 -5 l-154 0 q-8 0 -14 6 q-13 13 -13 71 l0 1298 q0 51 10 67 q6 10 17 10 l154 0 q8 0 14 -6.5 q6 -6.5 9 -18.5 q4 -21 4 -52 l0 -460 q141 135 329 135 q133 0 241 -63 q119 -66 188 -193 q68 -126 68 -290 q0 -164 -69 -284 Z" /><glyph glyph-name="c" unicode="c" d="M201 161 q-118 145 -118 351 q0 163 76 288 q73 120 196.5 186.5 q123.5 66.5 274.5 66.5 q102 0 179 -26 q78 -25 155 -72 q8 -5 17 -14 q28 -28 28 -67 q0 -37 -30 -67 q-26 -26 -59 -26 q-23 0 -49 13 q-69 36 -114 49 q-45 14 -111 14 q-165 0 -262 -96 q-93 -94 -93 -251 q0 -159 95.5 -253 q95.5 -94 259.5 -94 q66 0 111 14 q42 12 114 49 q26 13 49 13 q35 0 62 -29.5 q27 -29.5 27 -63.5 q0 -50 -45 -81 l0 0 q-77 -47 -154.5 -72.5 q-77.5 -25.5 -179.5 -25.5 q-145 0 -271 65 q-94 49 -158 129 Z" /><glyph glyph-name="d" unicode="d" d="M606 857 q-147 0 -231 -91 q-84 -92 -84 -256 q0 -172 93 -264 q82 -83 222 -83 q85 0 164 39 q77 38 139 102 l0 412 q-62 64 -140 102.5 q-78 38.5 -163 38.5 ZM152.5 223.5 q-69.5 125.5 -69.5 288.5 q0 163 71 287 q70 123 182.5 188.5 q112.5 65.5 243.5 65.5 q188 0 329 -135 l0 460 q0 44 7 62 q2 5 7 10 q5 5 13 5 l154 0 q8 0 14 -6.5 q6 -6.5 9 -18.5 q4 -21 4 -52 l0 -1298 q0 -58 -14 -71 q-5 -6 -13 -6 l-154 0 q-8 0 -14 6 q-13 13 -13 71 l0 22 q-141 -135 -329 -135 q-125 0 -239 65 q-119 66 -188.5 191.5 Z" /><glyph glyph-name="e" unicode="e" d="M842 607 q8 0 10.5 2.5 q2.5 2.5 2.5 6.5 q0 4 0 5 q-8 77 -46 129 q-42 61 -105 92 q-63 31 -127.5 31 q-64.5 0 -131.5 -29 q-67 -33 -107 -97 q-37 -60 -44 -140 l548 0 ZM83 510 q0 138 53 266 q35 84 97 146 q131 131 341 131 q151 0 264 -70 q39 -25 75 -61 q54 -54 91 -126 q59 -117 59 -260 q0 -44 -29.5 -73.5 q-29.5 -29.5 -75.5 -29.5 l-663 0 q19 -129 101 -198 q86 -72 234 -72 q79 0 140.5 14.5 q61.5 14.5 124.5 46.5 q16 9 37.5 9 q21.5 0 37.5 -7 q19 -7 33 -22 q26 -25 26 -61 q0 -53 -60 -87 q-85 -46 -162 -68 q-77 -21 -193 -21 q-251 0 -391 143.5 q-140 143.5 -140 399.5 Z" /><glyph glyph-name="f" unicode="f" d="M221 80 l0 771 l-105 0 q-29 0 -58 -29 l-19 -19 l0 125 q0 60 26 86 q19 19 51 19 l105 0 l0 103 q0 125 45 203 q42 77 114 116 q71 38 154 38 q92 0 179 -41 q15 -8 28 -21 q26 -26 26 -61 q0 -36 -28 -63 q-25 -26 -59 -26 q-23 0 -48 6 l-53 6 q-82 0 -116 -36.5 q-34 -36.5 -34 -126.5 l0 -97 l237 0 q29 0 58 29 l19 19 l0 -125 q0 -60 -26 -86 q-19 -19 -51 -19 l-237 0 l0 -771 q0 -43 -31.5 -73 q-31.5 -30 -74 -30 q-42.5 0 -72.5 30 q-30 30 -30 73 Z" /><glyph glyph-name="g" unicode="g" d="M618 861 q-149 0 -238 -89 q-89 -89 -89 -252 q0 -163 89 -252 q89 -89 238 -89 q85 0 153.5 35.5 q68.5 35.5 137.5 104.5 l0 402 q-69 69 -137.5 104.5 q-68.5 35.5 -153.5 35.5 ZM157 -306 q0 39 30 69 q26 26 63 26 q20 0 41 -9 q154 -75 325 -75 q143 0 215 73 q78 77 78 240 l0 101 q-136 -132 -329 -132 q-123 0 -233 61 q-121 64 -192.5 185.5 q-71.5 121.5 -71.5 289.5 q0 238 149 387 q49 49 110 82 q113 61 238 61 q193 0 329 -132 l0 17 q0 44 7 62 q2 5 7 10 q5 5 13 5 l154 0 q8 -1 13 -6 q14 -13 14 -71 l0 -894 q0 -272 -141 -413 q-124 -124 -342 -124 q-141 0 -291 46 q-83 26 -143 60 q-43 27 -43 81 Z" /><glyph glyph-name="h" unicode="h" d="M145 80 l0 1298 q0 51 10 67 q6 10 17 10 l154 0 q8 0 14 -6.5 q6 -6.5 9 -18.5 q4 -21 4 -52 l0 -489 q74 75 154 117 q90 47 205 47 q113 0 200 -54 q30 -18 56 -45 q43 -43 71 -101 q44 -92 44 -205 l0 -568 q0 -58 -14 -71 q-5 -6 -13 -6 l-154 0 q-8 0 -14 6 q-13 13 -13 71 l0 548 q0 123 -57 180 q-51 51 -150 51 q-93 0 -167 -46.5 q-74 -46.5 -148 -136.5 l0 -596 q0 -43 -31.5 -73 q-31.5 -30 -74 -30 q-42.5 0 -72.5 30 q-30 30 -30 73 Z" /><glyph glyph-name="i" unicode="i" d="M145 80 l0 858 q0 58 14 71 q5 6 13 6 l154 0 q8 0 14 -6 q13 -13 13 -71 l0 -858 q0 -43 -31.5 -73 q-31.5 -30 -74 -30 q-42.5 0 -72.5 30 q-30 30 -30 73 ZM129 1330 l0 8 q0 47 34 81 q34 34 81 34 l12 0 q47 0 81 -34 q34 -34 34 -81 l0 -8 q0 -47 -34 -81 q-34 -34 -81 -34 l-12 0 q-47 0 -81 34 q-34 34 -34 81 Z" /><glyph glyph-name="j" unicode="j" d="M139 1330 l0 8 q0 47 34 81 q34 34 81 34 l12 0 q47 0 81 -34 q34 -34 34 -81 l0 -8 q0 -47 -34 -81 q-34 -34 -81 -34 l-12 0 q-47 0 -81 34 q-34 34 -34 81 ZM11 -305 l6 0 q12 -2 29 -2 q65 0 87 22 q22 22 22 83 l0 1138 q0 58 14 71 q5 6 13 6 l154 0 q12 0 18 -12 q9 -17 9 -65 l0 -1142 q0 -143 -74 -217 q-70 -70 -201 -70 q-74 0 -129 19 q-30 9 -46 32 q-16 23 -16 52 q0 36 26.5 62.5 q26.5 26.5 62.5 26.5 l1 0 l24 -4 Z" /><glyph glyph-name="k" unicode="k" d="M145 80 l0 1298 q0 51 10 67 q6 10 17 10 l154 0 q8 0 14 -6.5 q6 -6.5 9 -18.5 q4 -21 4 -52 l0 -789 l454 422 q35 28 69 28 q49 0 75 -27.5 q26 -27.5 26 -73.5 q0 -36 -37 -78 l-281 -249 l356 -471 q22 -33 22 -62 q0 -54 -43 -83 q-27 -18 -62 -18 q-22 0 -43 10 q-26 12 -42 32 l-335 459 l-159 -145 l0 -253 q0 -43 -31.5 -73 q-31.5 -30 -74 -30 q-42.5 0 -72.5 30 q-30 30 -30 73 Z" /><glyph glyph-name="l" unicode="l" d="M145 80 l0 1298 q0 51 10 67 q6 10 17 10 l154 0 q8 0 14 -6.5 q6 -6.5 9 -18.5 q4 -21 4 -52 l0 -1298 q0 -43 -31.5 -73 q-31.5 -30 -74 -30 q-42.5 0 -72.5 30 q-30 30 -30 73 Z" /><glyph glyph-name="m" unicode="m" d="M988 861 q127 192 366 192 q120 0 197 -58 q74 -56 112 -146.5 q38 -90.5 38 -192.5 l0 -576 q0 -44 -7 -62 q-2 -5 -7 -10 q-5 -5 -13 -5 l-154 0 q-8 0 -14 6.5 q-6 6.5 -9 18.5 q-4 21 -4 52 l0 540 q0 141 -53 194 q-45 45 -138 45 q-92 0 -155 -47 q-64 -47 -120 -135 l0 -597 q0 -58 -14 -71 q-5 -6 -13 -6 l-154 0 q-8 0 -14 6 q-13 13 -13 71 l0 540 q0 141 -53 194 q-45 45 -138 45 q-92 0 -155 -47 q-64 -47 -120 -135 l0 -597 q0 -44 -7 -62 q-2 -5 -7 -10 q-5 -5 -13 -5 l-154 0 q-8 0 -14 6 q-13 13 -13 71 l0 858 q0 58 14 71 q5 6 13 6 l154 0 q8 0 14 -6 q13 -13 13 -71 l0 -42 q56 68 125 108 q83 49 202 49 q127 0 220 -78 q57 -47 88 -114 Z" /><glyph glyph-name="n" unicode="n" d="M145 80 l0 858 q0 58 14 71 q5 6 13 6 l154 0 q8 0 14 -6 q13 -13 13 -71 l0 -49 q74 75 154 117 q90 47 205 47 q113 0 200 -54 q30 -18 56 -45 q43 -43 71 -101 q44 -92 44 -205 l0 -568 q0 -58 -14 -71 q-5 -6 -13 -6 l-154 0 q-8 0 -14 6 q-13 13 -13 71 l0 548 q0 123 -57 180 q-51 51 -150 51 q-93 0 -167 -46.5 q-74 -46.5 -148 -136.5 l0 -596 q0 -43 -31.5 -73 q-31.5 -30 -74 -30 q-42.5 0 -72.5 30 q-30 30 -30 73 Z" /><glyph glyph-name="o" unicode="o" d="M880.5 314.5 q44.5 80.5 44.5 200.5 q0 120 -46 195 q-16 26 -28 40.5 q-12 14.5 -24 26.5 q-26 26 -61 45 q-71 39 -158 39 q-79 0 -153 -35 q-75 -38 -119 -117 q-45 -80 -45 -197 q0 -125 46 -200 q14 -23 25 -38 q52 -69 137 -98 q51 -17 109 -17 q79 0 153 37 q75 38 119.5 118.5 ZM148.5 228.5 q-65.5 124.5 -65.5 282.5 q0 158 65 282 q66 125 185.5 192.5 q119.5 67.5 274.5 67.5 q192 0 327 -103 q83 -63 133 -158 q65 -123 65 -282 q0 -187 -91 -324 q-63 -96 -162 -152 q-119 -67 -274 -67 q-155 0 -274 68 q-118 69 -183.5 193.5 Z" /><glyph glyph-name="p" unicode="p" d="M971 510 q0 172 -93 264 q-82 83 -222 83 q-85 0 -164 -39 q-77 -38 -139 -102 l0 -412 q62 -64 140 -102.5 q78 -38.5 163 -38.5 q147 0 231 91.5 q84 91.5 84 255.5 ZM145 -378 l0 1318 q0 58 14 71 q5 6 13 6 l154 0 q8 0 14 -6.5 q6 -6.5 9 -18.5 q4 -21 4 -52 l0 -22 q141 135 329 135 q133 0 241 -63 q119 -66 188 -193 q68 -126 68 -290 q0 -164 -69 -284 q-70 -123 -183.5 -189.5 q-113.5 -66.5 -244.5 -66.5 q-188 0 -329 135 l0 -480 q0 -58 -14 -71 q-5 -6 -13 -6 l-148 0 l-3 3 q-30 32 -30 74 Z" /><glyph glyph-name="q" unicode="q" d="M606 857 q-147 0 -231 -91 q-84 -92 -84 -256 q0 -172 93 -264 q82 -83 222 -83 q85 0 164 39 q77 38 139 102 l0 412 q-62 64 -140 102.5 q-78 38.5 -163 38.5 ZM909 -378 l0 480 q-141 -135 -329 -135 q-125 0 -239 65 q-119 66 -188.5 191.5 q-69.5 125.5 -69.5 288.5 q0 163 71 287 q70 123 182.5 188.5 q112.5 65.5 243.5 65.5 q188 0 329 -135 l0 22 q0 51 10 67 q6 10 17 10 l154 0 q8 0 13 -5 q5 -5 7 -10.5 q2 -5.5 4 -13.5 q3 -17 3 -48 l0 -1318 q0 -44 -32 -75 q-29 -30 -71 -30 q-44 0 -74.5 30.5 q-30.5 30.5 -30.5 74.5 Z" /><glyph glyph-name="r" unicode="r" d="M353 890 q134 163 301 163 l10 0 q29 0 58 29 l19 19 l0 -125 q0 -77 -30 -106 q-18 -19 -47 -19 l-14 0 q-91 0 -168 -44 q-75 -43 -129 -122 l0 -605 q0 -43 -31.5 -73 q-31.5 -30 -74 -30 q-42.5 0 -72.5 30 q-30 30 -30 73 l0 858 q0 58 14 71 q5 6 13 6 l154 0 q8 0 14 -6 q13 -13 13 -71 l0 -48 Z" /><glyph glyph-name="s" unicode="s" d="M106 203 q25 26 62 26 q22 0 41 -9 q67 -30 129.5 -44.5 q62.5 -14.5 137.5 -14.5 q130 0 179 49 q30 30 30 80 q0 37 -42 58 q-49 24 -166 53 q-116 26 -195 59 q-89 33 -143 99 q-54 67 -54 165 q0 147 107.5 238 q107.5 91 295.5 91 q162 0 294 -51 q31 -9 49 -33.5 q18 -24.5 18 -54.5 q0 -38 -27.5 -65.5 q-27.5 -27.5 -65.5 -27.5 l-1 0 l-28 4 q-119 36 -222 36 q-123 0 -183 -50 q-37 -32 -37 -77 q0 -51 48 -76 q57 -26 172 -53 q99 -25 193 -59 q83 -31 137 -100 q52 -68 52 -170 q0 -135 -107.5 -222 q-107.5 -87 -291.5 -87 q-201 0 -371 91 q-7 4 -14 12 q-26 26 -26 65.5 q0 39.5 29 67.5 Z" /><glyph glyph-name="t" unicode="t" d="M735 86 q0 -53 -54 -82 l0 0 q-81 -37 -171 -37 q-159 0 -235 77 q-70 69 -70 200 l0 597 l-89 0 q-29 0 -58 -29 l-19 -19 l0 125 q0 60 26 86 q19 19 51 19 l89 0 l0 131 q0 51 10 67 q6 10 17 10 l154 0 q8 0 14 -6.5 q6 -6.5 9 -18.5 q4 -21 4 -52 l0 -131 l213 0 q29 0 58 29 l19 19 l0 -125 q0 -60 -26 -86 q-19 -19 -51 -19 l-213 0 l0 -581 q0 -58 23 -81 l5 -4 q29 -22 89 -22 q40 0 78 12 l1 0 l2 1 q24 5 39 5 q35 0 60 -25 q25 -25 25 -60 Z" /><glyph glyph-name="u" unicode="u" d="M135 372 l0 568 q0 58 14 71 q5 6 13 6 l154 0 q8 0 13 -5 q5 -5 7 -10.5 q2 -5.5 4 -13.5 q3 -17 3 -48 l0 -548 q0 -123 57 -180 q51 -51 150 -51 q93 0 167 46.5 q74 46.5 148 136.5 l0 596 q0 51 10 67 q6 10 17 10 l154 0 q8 0 14 -6.5 q6 -6.5 9 -18.5 q4 -21 4 -52 l0 -858 q0 -58 -14 -71 q-5 -6 -13 -6 l-154 0 q-8 0 -14 6 q-13 13 -13 71 l0 49 q-74 -75 -154 -117 q-90 -47 -203 -47 q-113 0 -200 54 q-30 19 -57 46 q-43 43 -71 100 q-45 92 -45 205 Z" /><glyph glyph-name="v" unicode="v" d="M39 938 q0 44 30.5 74.5 q30.5 30.5 72.5 30.5 q43 0 74 -31 q13 -13 20 -30 l288 -732 q3 -7 6 -7 l2 1 q2 2 4 6 l288 732 q13 33 49 50 q22 11 45 11 q43 0 73 -31.5 q30 -31.5 30 -73.5 q0 -18 -11 -46 l-348 -832 q-15 -37 -49 -60 q-34 -23 -73 -23 l-20 0 q-39 0 -73 23 q-34 23 -49 60 l-348 832 q-11 28 -11 46 ZM536 250 q0 0 0 0 l0 0 ZM524 250 l0 0 l0 0 Z" /><glyph glyph-name="w" unicode="w" d="M43 940 q0 43 30 73 q30 30 73 30 q45 0 74 -28 q14 -15 21 -36 l217 -715 q2 -5 4 -8 q2 3 4 8 l215 697 q12 38 42.5 60 q30.5 22 68.5 22 q38 0 68 -22 q31 -22 43 -60 q108 -349 215 -697 q2 -5 4 -8 q2 3 4 8 l217 715 q10 30 36 47 q26 17 59 17 q43 0 73 -30 q30 -30 30 -73 q0 -18 -7 -38 l-284 -831 q-13 -42 -48.5 -68 q-35.5 -26 -79.5 -26 q-44 0 -79.5 26 q-35.5 26 -50.5 69 l-196 610 q-2 5 -4 8 q-2 -3 -4 -8 l-196 -610 q-15 -43 -50.5 -69 q-35.5 -26 -79.5 -26 q-44 0 -79.5 26 q-35.5 26 -48.5 68 l-284 832 q-7 19 -7 37 Z" /><glyph glyph-name="x" unicode="x" d="M89 82 q0 31 22 65 l305 357 l-305 369 q-24 31 -24 67 q0 45 30.5 74 q30.5 29 74.5 29 q51 0 81 -38 l269 -333 l268 333 q31 38 80 38 q47 0 77 -31 q28 -27 28 -68 q0 -31 -22 -65 l-311 -363 l306 -367 q25 -29 25 -69 q0 -43 -32 -74 q-28 -29 -72 -29 q-50 0 -82 40 l-273 328 l-257 -324 q-33 -44 -89 -44 q-47 0 -73 30 q-26 29 -26 75 ZM273 1005 q0 0 0 0 l0 0 Z" /><glyph glyph-name="y" unicode="y" d="M287 -382 q0 18 7 36 l128 330 l-374 912 q-9 22 -9 42 q0 44 30.5 74.5 q30.5 30.5 72.5 30.5 q31 0 58 -18 q27 -18 38 -47 q148 -367 296 -733 l302 730 q31 68 96 68 q43 0 73 -31.5 q30 -31.5 30 -73.5 q0 -21 -7 -38 l-546 -1312 q-31 -71 -96 -71 q-41 0 -70 30.5 q-29 30.5 -29 70.5 Z" /><glyph glyph-name="z" unicode="z" d="M907 106 q-1 -119 -77 -119 l-624 0 q-67 0 -107 40 q-32 32 -32 80.5 q0 48.5 35 89.5 l547 629 q4 7 4 10 q-2 1 -7 1 l-464 0 q-29 0 -58 -29 l-19 -19 l0 125 q0 72 29 100 q18 19 48 19 l606 0 q57 0 93 -36 q36 -36 36 -91 q0 -48 -30 -89 l-532 -624 q-4 -5 -4 -9 q2 -1 7 -1 l472 0 q29 0 58 29 l19 19 l0 -125 Z" /><glyph glyph-name="braceleft" unicode="{" d="M269 614 q158 -71 158 -236 l0 -444 q0 -35 19.5 -53 q19.5 -18 85.5 -18 l30 0 q29 0 58 29 l19 19 l0 -125 q0 -47 -23 -69 q-19 -20 -54 -20 l-24 0 q-162 0 -233 71 q-60 60 -60 182 l0 422 q0 67 -36 99.5 q-36 32.5 -137 49.5 q-38 7 -58.5 32 q-20.5 25 -20.5 61 q0 36 20.5 61 q20.5 25 58.5 32 q106 18 141 54 q32 31 32 95 l0 422 q0 137 74.5 195 q74.5 58 218.5 58 l24 0 q29 0 58 29 l19 19 l0 -125 q0 -47 -23 -69 q-19 -20 -54 -20 l-30 0 q-68 0 -87 -20 q-18 -17 -18 -51 l0 -444 q0 -165 -158 -236 Z" /><glyph glyph-name="bar" unicode="|" d="M159 -312 l0 1712 q0 58 14 71 q5 6 13 6 l134 0 q11 0 17 -10 q10 -16 10 -67 l0 -1712 q0 -49 -9 -65 q-6 -12 -18 -12 l-110 0 l0 22 l-6 -3 l0 -15 l-16 5 q-29 29 -29 68 Z" /><glyph glyph-name="braceright" unicode="}" d="M419 614 q-158 71 -158 236 l0 444 q0 35 -19.5 53 q-19.5 18 -85.5 18 l-30 0 q-29 0 -58 -29 l-19 -19 l0 125 q0 47 23 69 q19 20 54 20 l24 0 q144 0 218 -57 q75 -59 75 -196 l0 -422 q0 -67 36 -99.5 q36 -32.5 137 -49.5 q38 -7 58.5 -32 q20.5 -25 20.5 -61 q0 -41 -26 -67 q-20 -20 -53.5 -26 q-33.5 -6 -60.5 -14 q-57 -16 -80 -40 q-32 -31 -32 -95 l0 -422 q0 -122 -60 -182 l-15 -14 q-74 -57 -218 -57 l-24 0 q-33 0 -58 25 q-25 25 -25 58 q0 33 25 58 q25 25 58 25 l30 0 q33 0 55 5 q23 5 32 15 q18 17 18 51 l0 444 q0 165 158 236 Z" /><glyph glyph-name="asciitilde" unicode="~" d="M388 551 q-100 0 -127 -98 q-5 -21 -22 -34.5 q-17 -13.5 -40.5 -13.5 q-23.5 0 -43.5 20 q-20 20 -20 45 q0 67 37 132 q38 64 99 104 q62 41 133.5 41 q71.5 0 132.5 -20 q61 -19 164 -67 q51 -25 73.5 -35 q22.5 -10 42.5 -17 q39 -13 83 -13 q48 0 68 17 q18 16 40 57 q8 22 18 38 q19 38 60 38 q29 0 48 -22 q15 -16 15 -38 q0 -8 -2 -17 q-25 -129 -95 -199 q-70 -70 -172 -70 q-72 0 -133 20 q-61 19 -164 67 q-44 22 -56 27 q-33 15 -60 25 q-39 13 -79 13 Z" /><glyph glyph-name="ograve" unicode="ò" d="M880.5 314.5 q44.5 80.5 44.5 200.5 q0 120 -46 195 q-16 26 -28 40.5 q-12 14.5 -24 26.5 q-26 26 -61 45 q-71 39 -158 39 q-79 0 -153 -35 q-75 -38 -119 -117 q-45 -80 -45 -197 q0 -125 46 -200 q14 -23 25 -38 q52 -69 137 -98 q51 -17 109 -17 q79 0 153 37 q75 38 119.5 118.5 ZM148.5 228.5 q-65.5 124.5 -65.5 282.5 q0 158 65 282 q66 125 185.5 192.5 q119.5 67.5 274.5 67.5 q192 0 327 -103 q83 -63 133 -158 q65 -123 65 -282 q0 -187 -91 -324 q-63 -96 -162 -152 q-119 -67 -274 -67 q-155 0 -274 68 q-118 69 -183.5 193.5 ZM675 1188 q0 -30 -19 -49 q-18 -18 -48 -18 q-29 0 -49 20 l-5 6 l-138 164 q-23 23 -23 59 q0 41 24.5 64 q24.5 23 62.5 23 q55 0 78 -46 l102 -177 q15 -27 15 -46 ZM558 1411 q0 0 0 0 l0 0 Z" /><glyph glyph-name="oacute" unicode="ó" d="M880.5 314.5 q44.5 80.5 44.5 200.5 q0 120 -46 195 q-16 26 -28 40.5 q-12 14.5 -24 26.5 q-26 26 -61 45 q-71 39 -158 39 q-79 0 -153 -35 q-75 -38 -119 -117 q-45 -80 -45 -197 q0 -125 46 -200 q14 -23 25 -38 q52 -69 137 -98 q51 -17 109 -17 q79 0 153 37 q75 38 119.5 118.5 ZM148.5 228.5 q-65.5 124.5 -65.5 282.5 q0 158 65 282 q66 125 185.5 192.5 q119.5 67.5 274.5 67.5 q192 0 327 -103 q83 -63 133 -158 q65 -123 65 -282 q0 -187 -91 -324 q-63 -96 -162 -152 q-119 -67 -274 -67 q-155 0 -274 68 q-118 69 -183.5 193.5 ZM800 1311 l-138 -164 q-21 -26 -54 -26 q-14 0 -26 5 q-13 4 -23 14 q-18 18 -18 48 q0 19 15 45 l102 178 l142 -100 Z" /><glyph glyph-name="uni02CA" unicode="&#x2ca;" d="M856 1553 q35 0 58 -28 q21 -23 21 -53 q0 -44 -51 -99 l-442 -453 q-43 -43 -84 -43 q-47 0 -82 42 q-35 37 -35 80 q0 48 50 93 l470 416 q51 45 95 45 Z" /><glyph glyph-name="uni02CB" unicode="&#x2cb;" d="M860 887 q-46 0 -93 41 l-480 408 l-12 11 q-42 42 -42 82 q0 40 35 75 q37 37 80 37 q49 0 92 -43 q457 -432 460 -435 q49 -48 49 -93 q0 -33 -24 -56 q-29 -27 -65 -27 Z" /><glyph glyph-name="uni02CD" unicode="&#x2cd;" d="M19 -405 l986 0 l0 -162 l-986 0 l0 162 Z" /><glyph glyph-name="gravecomb" unicode="&#x300;" d="M-333 1188 q0 -30 -18.5 -48.5 q-18.5 -18.5 -48.5 -18.5 q-33 0 -54 26 l-139 165 q-22 33 -22 58 q0 41 24 64 q25 23 63 23 q55 0 78 -46 l102 -177 q15 -27 15 -46 ZM-450 1411 q0 0 0 0 l0 0 Z" /><glyph glyph-name="acutecomb" unicode="&#x301;" d="M-208 1311 l-138 -164 q-21 -26 -54 -26 l-48 18 q-19 18 -19 49 q0 15 9 33 q3 6 6 12 l102 178 l142 -100 Z" /><glyph glyph-name="sigma" unicode="&#x3c3;" d="M1211 594 q0 112 -53 164 q-48 49 -145 49 q-122 0 -238 -148 l-1 0 q-121 -145 -121 -333 q0 -107 50 -157 q46 -46 135 -46 q150 0 261 153 q112 158 112 318 ZM439 340 q0 281 207 482 q162 155 512 157 l350 0 q110 0 133 -61 q6 -15 6 -34 q0 -75 -60 -95 q-19 -6 -45 -6 l-231 14 q106 -110 106 -253 q0 -216 -167 -407 q-169 -194 -408 -194 q-187 0 -298 112 q-105 104 -105 285 Z" /><glyph glyph-name="omega" unicode="&#x3c9;" d="M961 166 q-111 -221 -319 -221 q-147 0 -239 120 q-90 115 -90 265 q0 222 178 453 q117 149 202 200 q44 26 81 26 q49 0 73 -24 q24 -24 24 -67 q0 -45 -60 -94 q-286 -239 -286 -504 q0 -105 44 -148 q32 -33 91 -33 q203 0 297 465 q15 80 67 101 q16 6 39.5 6 q23.5 0 43.5 -6 q52 -16 52 -71 l0 -1 l-11 -46 q-59 -179 -59 -301 q0 -80 38 -118 q35 -35 105 -35 q120 0 205 125 q88 127 88 274 q0 165 -123 288 q-59 57 -59 96 q0 44 24.5 68.5 q24.5 24.5 76.5 24.5 q98 0 195 -159 q96 -161 96 -324 q0 -234 -151 -405 q-18 -21 -36 -40 q-137 -136 -306 -136 q-125 0 -200 75 q-54 54 -81 146 Z" /><glyph glyph-name="afii10021" unicode="&#x414;" d="M1329 175 l0 1003 q0 41 -20 61 q-20 20 -61 20 l-248 0 q-32 0 -49 -17 q-19 -20 -22 -63 l0 0 q-58 -587 -233 -1004 l633 0 ZM1725 -180 q0 -47 -3.5 -70.5 q-3.5 -23.5 -11.5 -31.5 q-5 -5 -12 -5 l-166 0 q-7 0 -12 5 q-15 15 -15 102 l0 70 q0 71 -59 81 q-10 2 -22 2 l-840 0 q-39 0 -59 -20 q-20 -20 -20 -63 l0 -70 q0 -47 -3 -65 q-3 -18 -5 -25 q-2 -7 -6 -11 q-6 -6 -13 -6 l-166 0 q-7 0 -11 4.5 q-4 4.5 -7 8.5 q-9 21 -9 94 l0 196 l0 0 q3 78 44 119 q41 41 120 41 q6 0 12 -1 q209 407 266 1040 q12 184 118 231 q27 12 60 15 l1 0 l472 0 q73 0 122 -50.5 q49 -50.5 49 -114.5 l0 -1121 q90 -3 134 -47 q40 -40 42 -112 l0 -196 Z" /><glyph glyph-name="quotedblleft" unicode="&#x201c;" d="M481 1065 q-4 44 -4 58 q0 31 4 63 q16 109 53 181 q38 73 117 121 q22 11 41 11 q29 0 50 -22.5 q21 -22.5 21 -50.5 q0 -38 -35 -61 l0 0 q-52 -31 -75 -69 q-20 -34 -22 -93 q47 -2 83 -37 q37 -37 37 -88 l0 -12 q0 -51 -37 -88 q-37 -37 -88 -37 l-20 0 q-49 0 -83 36 q-33 36 -42 88 ZM119 1065 q-4 44 -4 58 q0 31 4 63 q21 143 76 218 q36 48 94 84 q22 11 39 11 q31 0 52 -22.5 q21 -22.5 21 -50.5 q0 -38 -35 -61 q-20 -13 -30 -21 q-29 -21 -45 -48 q-20 -34 -22 -93 q47 -2 83 -37 q37 -37 37 -88 l0 -12 q0 -51 -37 -88 q-37 -37 -88 -37 l-20 0 q-49 0 -83 36 q-33 36 -42 88 Z" /><glyph glyph-name="quotedblright" unicode="&#x201d;" d="M747 1432 q9 -19 13.5 -43.5 q4.5 -24.5 4.5 -59 q0 -34.5 -6 -75.5 q-21 -143 -76 -218 q-36 -48 -94 -84 q-22 -11 -41 -11 q-29 0 -50 22 q-21 23 -21 51 q0 38 35 61 l0 0 q52 31 75 69 q20 34 22 93 q-47 2 -83.5 38 q-36.5 36 -36.5 87 l0 12 q0 51 37 88 q37 37 88 37 l20 0 q82 0 113 -67 ZM403 1334 q0 -39 -6 -80 q-21 -143 -76 -218 q-36 -48 -94 -84 q-22 -11 -41 -11 q-29 0 -50 22 q-21 23 -21 51 q0 38 35 61 q20 13 30.5 20.5 q10.5 7.5 17 14.5 q6.5 7 10 11 q3.5 4 6.5 7 q6 8 11 16 q20 34 22 93 q-47 2 -83.5 38 q-36.5 36 -36.5 87 l0 12 q0 51 37 88 q37 37 88 37 l20 0 q57 0 90 -33 q41 -41 41 -132 Z" /><glyph glyph-name="bullet" unicode="&#x2022;" d="M99 786 q0 94 58 170 q33 43 81 72 q65 37 140 37 q94 0 168 -58 q43 -33 72 -81 q37 -65 37 -140 q0 -94 -58 -171 q-33 -43 -80 -70 q-64 -38 -139 -38 q-75 0 -139.5 37.5 q-64.5 37.5 -102 102 q-37.5 64.5 -37.5 139.5 Z" /><glyph glyph-name="minute" unicode="&#x2032;" d="M107 1394 q0 47 34.5 80 q34.5 33 80.5 33 q48 0 82 -35 q33 -32 33 -78 q0 -141 -44 -362 q-5 -28 -24 -44.5 q-19 -16.5 -47 -16.5 q-28 0 -47 17 l-4 3 q-16 16 -20 41 q-44 221 -44 362 Z" /><glyph glyph-name="uni2035" unicode="&#x2035;" d="M1723 1375 q49 -120 146 -313 q22 -46 44 -70 q24 -26 24 -38 q0 -19 -14 -34 q-22 -21 -78 -31 l-1 0 q-53 0 -95 25 q-40 23 -77 66 q-37 43 -73 102 q-36 58 -79 131 q-17 31 -34.5 53 q-17.5 22 -24 34.5 q-6.5 12.5 -6.5 23.5 q0 29 26 54 q26 25 58 43.5 q32 18.5 62.5 30 q30.5 11.5 42.5 11.5 q49 0 58 -21 l1 -1 q2 -20 20 -66 Z" /><glyph glyph-name="universal" unicode="&#x2200;" d="M1024 166 l312 615 l-624 0 l312 -615 ZM275 1302 q0 33 19 51 q21 22 66 22 q51 0 84 -64 l185 -368 l786 0 l189 368 q31 64 84 64 q43 0 64 -21 q19 -19 19 -52 q0 -21 -17 -55 l-634 -1232 q-35 -72 -96 -72 q-61 0 -100 72 l-634 1232 q-15 28 -15 55 Z" /><glyph glyph-name="summation" unicode="&#x2211;" d="M69 -78 q0 50 41 101 l526 565 q5 5 5 8 q-2 6 -4 8 l-528 565 q-40 51 -40 101 q0 60 40.5 100.5 q40.5 40.5 98.5 40.5 l884 0 q29 0 58 29 l19 19 l0 -125 q0 -75 -29 -104 q-19 -19 -48 -19 l-742 0 l-9 -1 q0 -4 5 -8 l472 -499 q41 -47 41 -107 q0 -60 -41 -107 l-472 -499 q-5 -4 -5 -8 l9 -1 l742 0 q29 0 58 29 l19 19 l0 -125 q0 -75 -29 -104 q-19 -19 -48 -19 l-884 0 q-59 0 -99 41.5 q-40 41.5 -40 99.5 Z" /><glyph glyph-name="minus" unicode="&#x2212;" d="M226 567 q-39 0 -66 27 q-27 27 -27 67 q0 41 26.5 67.5 q26.5 26.5 66.5 26.5 l970 0 q29 0 58 29 l19 19 l0 -125 q0 -65 -27 -92 q-19 -19 -50 -19 l-970 0 Z" /><glyph glyph-name="lessequal" unicode="&#x2264;" d="M103 72.5 q0 35.5 25.5 61 q25.5 25.5 59.5 25.5 l846 0 q29 0 58 29 l19 19 l0 -125 q0 -73 -47 -90 q-14 -5 -30 -5 l-846 0 q-35 0 -60 25 q-25 25 -25 60.5 ZM111 694 l0 16 q0 77 80 116 l799 358 q18 7 36 7 q39 0 66 -27 q27 -27 27 -66 q0 -28 -18 -52 q-18 -25 -45 -36 q-346 -154 -693 -308 l693 -308 q27 -11 45 -36 q18 -24 18 -52 q0 -39 -27 -66 q-27 -27 -66 -27 q-20 0 -37 7 l-798 358 q-80 39 -80 116 Z" /><glyph glyph-name="greaterequal" unicode="&#x2265;" d="M165.5 12 q-26.5 25 -26.5 60 q0 35 26 61 q26 26 61 26 l846 0 q29 0 58 29 l19 19 l0 -125 q0 -52 -24 -76 q-19 -19 -53 -19 l-846 0 q-34 0 -60.5 25 ZM171 372 q14 14 33 22 q346 154 693 308 l-693 308 q-27 11 -45 36 q-18 24 -18 52 q0 39 27 66 q27 27 66 27 q20 0 36 -7 l799 -358 q80 -39 80 -116 l0 -16 q0 -77 -80 -116 l-799 -358 q-16 -7 -36 -7 q-39 0 -66 27 q-27 27 -27 64.5 q0 37.5 30 67.5 Z" /><glyph glyph-name="uni2266" unicode="&#x2266;" d="M319 44 q0 37 21 57 q23 24 72 24 l1224 0 q46 0 75 25 l18 16 l0 -122 q0 -37 -21 -57 q-23 -24 -72 -24 l-1224 0 q-46 0 -75 -25 l-18 -16 l0 122 ZM319 316 q0 37 21 57 q23 24 72 24 l1224 0 q46 0 75 25 l18 16 l0 -122 q0 -37 -21 -57 q-23 -24 -72 -24 l-1224 0 q-46 0 -75 -25 l-18 -16 l0 122 ZM1659 612 q31 -9 49 -26 q21 -21 21 -54 q0 -39 -20 -59 q-20 -20 -59 -20 q-32 0 -48 7 l57 152 Z" /><glyph glyph-name="uni2267" unicode="&#x2267;" d="M319 44 q0 37 21 57 q23 24 72 24 l1224 0 q46 0 75 25 l18 16 l0 -122 q0 -37 -21 -57 q-23 -24 -72 -24 l-1224 0 q-46 0 -75 -25 l-18 -16 l0 122 ZM319 316 q0 37 21 57 q23 24 72 24 l1224 0 q46 0 75 25 l18 16 l0 -122 q0 -37 -21 -57 q-23 -24 -72 -24 l-1224 0 q-46 0 -75 -25 l-18 -16 l0 122 ZM398 453 q-39 0 -59 20 q-20 20 -20 58 q0 61 68 81 l1009 352 l-1010 348 q-67 24 -67 82 q0 41 21 61 q19 20 56 20 l1 0 l36 -6 l1221 -437 q59 -20 59 -68 q0 -45 -59 -70 l-1209 -435 l-47 -6 Z" /><glyph glyph-name="uni25BD" unicode="&#x25bd;" d="M1024 170 l655 1165 l-1312 0 l657 -1165 ZM91 1497 l1866 0 l-933 -1655 l-933 1655 Z" /><glyph glyph-name="uni3001" unicode="&#x3001;" d="M771 838 q0 37 29 61 q26 20 65 20 q4 0 8 0 q37 -2 93.5 -48.5 q56.5 -46.5 161.5 -150.5 l0 0 q89 -95 125 -149 q36 -54 36 -97 q0 -45 -26 -68 q-25 -23 -61 -23 q-65 0 -119 68 q-121 156 -267 307 q-31 32 -38 47 q-7 14 -7 33 Z" /><glyph glyph-name="uni3002" unicode="&#x3002;" d="M1024 545 q66 0 118.5 52.5 q52.5 52.5 52.5 120.5 q0 69 -51 118 q-54 51 -124 51 q-75 0 -122 -56 l0 0 q-45 -51 -45 -115 q0 -77 50 -122 q55 -49 121 -49 ZM794 946 q100 95 236 95 q131 0 224 -97 q95 -98 95 -228 q0 -139 -97 -232 q-96 -93 -230 -93 q-137 0 -230 95.5 q-93 95.5 -93 231 q0 135.5 95 228.5 Z" /><glyph glyph-name="uni3010" unicode="&#x3010;" d="M1271 -48 l0 1530 q0 67 34 101 q34 34 101 34 l510 0 q17 0 25 -8 q8 -8 8 -17 q0 -9 -4 -16 q-12 -20 -59 -49 q-125 -79 -231 -310 q-106 -231 -106 -498 q0 -267 107 -502 q109 -233 230 -310 q47 -27 59 -48 q4 -7 4 -16.5 q0 -9.5 -8 -17.5 q-8 -8 -25 -8 l-510 0 q-67 0 -101 34 q-34 34 -34 101 Z" /><glyph glyph-name="uni3011" unicode="&#x3011;" d="M99 -156 q0 22 35 47 q11 8 26 16 q121 77 230 310 q109 239 109 502 q0 263 -107 496 q-111 235 -226 308 q-35 21 -51 37 q-16 16 -16 30 q0 12 7 19 q8 8 24 8 l512 0 q84 0 116 -54 q19 -31 19 -81 l0 -1530 q0 -67 -34 -101 q-34 -34 -101 -34 l-512 0 q-16 0 -23.5 7.5 q-7.5 7.5 -7.5 19.5 Z" /><glyph glyph-name="uni306E" unicode="&#x306e;" d="M371 596 q0 -135 50 -212 q49 -75 107 -75 q54 0 114 60 q66 66 137 202 q138 262 192 678 q-276 -34 -436 -214 q-164 -185 -164 -439 ZM1187 1247 l-10 0 l-10 2 q-62 -421 -163 -663 q-206 -493 -482 -493 q-146 0 -246.5 146 q-100.5 146 -100.5 363 q0 349 252 598 q252 249 645 249 q375 0 593 -218 q206 -206 206 -521 q0 -469 -414 -672 q-226 -109 -369 -109 q-53 0 -80 27 q-27 27 -27 78 q0 38 25 63 q31 31 100 42 q252 39 405.5 193 q153.5 154 153.5 392 q0 225 -143 368 q-129 129 -335 155 Z" /><glyph glyph-name="uni309C" unicode="&#x309c;" d="M392.5 1494.5 q-22.5 22.5 -70.5 22.5 q-48 0 -71 -23 q-22 -22 -22 -69.5 q0 -47.5 23 -70.5 q23 -23 70 -23 q47 0 70 23 q23 23 23 70.5 q0 47.5 -22.5 70 ZM533 1426 q0 -93 -63.5 -153 q-63.5 -60 -148.5 -60 q-88 0 -149 63.5 q-61 63.5 -61 150 q0 86.5 63 148.5 q63 62 150 62 q87 0 148 -64.5 q61 -64.5 61 -146.5 Z" /><glyph glyph-name="uni30ED" unicode="&#x30ed;" d="M1541 1100 q0 55 -27 82 q-27 27 -82 27 l-820 0 q-55 0 -82 -27 q-27 -27 -27 -82 l0 -796 q0 -55 27 -82 q27 -27 82 -27 l820 0 q55 0 82 27 q27 27 27 82 l0 796 ZM1747 230 q0 -99 -70.5 -166 q-70.5 -67 -164.5 -67 l-980 0 q-99 0 -166 69.5 q-67 69.5 -67 163.5 l0 944 q0 103 78 172 q65 61 155 61 l980 0 q107 0 174 -78 q61 -67 61 -155 l0 -944 Z" /><glyph glyph-name="uni4E00" unicode="&#x4e00;" d="M111 740 q0 46 26 72 q31 31 97 31 l1582 0 q79 0 111 4 l12 1 l0 -110 q0 -45 -25 -70 q-31 -31 -98 -31 l-1582 0 q-79 0 -110 -6 l-13 -2 l0 111 Z" /><glyph glyph-name="uni4E03" unicode="&#x4e03;" d="M1839 1156 q41 0 65.5 -24.5 q24.5 -24.5 24.5 -65.5 q0 -20 -6 -37 q-21 -54 -106 -64 q-472 -61 -944 -123 l0 -678 q0 -32 20 -59 q12 -15 45.5 -22.5 q33.5 -7.5 93.5 -7.5 q60 0 96 -2 l106 -2 q268 0 344 24 q17 5 22 11 q31 31 47 193 q4 48 28.5 71 q24.5 23 70.5 23 q53 0 79 -27 q26 -25 26 -74 q0 -324 -140 -368 q-141 -45 -575 -45 q-291 0 -371 43 q-45 24 -66.5 71 q-21.5 47 -21.5 117 l0 712 l-447 -57 q-9 -2 -24 -2 q-45 0 -67 25.5 q-22 25.5 -22 66.5 q0 44 27 67.5 q27 23.5 82 34.5 l451 57 l0 486 q0 58 14 71 q5 6 13 6 l142 0 q8 0 14 -6 q13 -13 13 -71 l0 -462 l946 117 q10 1 20 1 Z" /><glyph glyph-name="uni4E07" unicode="&#x4e07;" d="M1061 -34.5 q0 47.5 25.5 70.5 q25.5 23 75.5 23 q110 -2 114 -2 q136 0 178 90 q11 26 19 83 q8 59 22 187 q22 226 22 291 q0 49 -22 71 q-20 20 -61 20 l-603 0 q-48 -295 -145 -480 q-101 -194 -253 -325 q-155 -133 -229 -133 q-35 0 -64 29 q-29 29 -29 74 q0 66 74 108 q371 213 460 720 q33 184 36 545 l-449 0 q-29 0 -58 -29 l-19 -19 l0 125 q0 90 62 100 q7 1 15 1 l1594 0 q29 0 58 29 l19 19 l0 -125 q0 -79 -48 -96 q-13 -5 -29 -5 l-957 0 l0 -27 l-15 -335 l652 0 q109 0 160 -51 q43 -43 43 -122 q0 -109 -30 -431 q-30 -319 -104 -421 q-33 -46 -126 -69.5 q-93 -23.5 -251 -23.5 q-76 0 -110 34 q-27 27 -27 74.5 Z" /><glyph glyph-name="uni4E09" unicode="&#x4e09;" d="M103 -8 q0 46 26 71 q29 30 91 30 l1606 0 q29 0 58 29 l19 19 l0 -125 q0 -75 -29 -104 q-19 -19 -48 -19 l-1606 0 q-72 0 -103 -9 l-14 -5 l0 113 ZM379 724 q0 64 48 87 q25 12 63 12 l1050 0 q66 0 97 9 l14 5 l0 -113 q0 -46 -25 -71 q-28 -28 -86 -28 l-1050 0 q-66 0 -97 -9 l-14 -5 l0 113 ZM241 1384 q0 45 25 70 q29 29 90 29 l1332 0 q29 0 58 29 l19 19 l0 -125 q0 -97 -51 -116 q-12 -5 -26 -5 l-1332 0 q-70 0 -101 -9 l-14 -5 l0 113 Z" /><glyph glyph-name="uni4E0A" unicode="&#x4e0a;" d="M109 8 q0 42 23 65 q26 26 80 26 l641 0 l0 1425 q0 48 3.5 72 q3.5 24 11.5 32 q5 5 12 5 l136 0 q7 0 12 -5 q15 -15 15 -104 l0 -453 l609 0 q59 0 89 17 l16 9 l0 -117 q0 -43 -24 -66 q-26 -27 -81 -27 l-609 0 l0 -788 l789 0 q61 0 91 17 l16 9 l0 -117 q0 -42 -24 -66 q-27 -27 -83 -27 l-1620 0 q-57 0 -87 -15 l-16 -8 l0 116 Z" /><glyph glyph-name="uni4E0B" unicode="&#x4e0b;" d="M1693 560 q0 -34 -27 -65 q-27 -32 -68 -32 q-39 0 -75 31 q-200 169 -404 329 q-44 33 -44 75 q0 21 16 48 q23 39 69 39 q31 0 57 -16.5 q26 -16.5 54 -35 q28 -18.5 57 -38.5 q57 -40 119 -86 q122 -93 206 -169 q40 -36 40 -80 ZM1939 1422 q0 -40 -23 -63 q-28 -28 -88 -28 l-773 0 l0 -1421 q0 -58 -14 -71 q-5 -6 -13 -6 l-144 0 q-8 0 -13 5 q-5 5 -7 10 q-7 18 -7 62 l0 1421 l-637 0 q-29 0 -58 -29 l-19 -19 l0 125 q0 82 49 100 q13 5 28 5 l1608 0 q65 0 95 17 l16 9 l0 -117 Z" /><glyph glyph-name="uni4E0D" unicode="&#x4e0d;" d="M1939 372 q0 -34 -27 -65 l-6 -7 q-27 -27 -62 -27 q-41 0 -78 37 q-272 276 -485 458 q-42 35 -42 74 q0 31 25 56 q25 25 56 25 q30 0 67 -26 q116 -86 268 -216 q153 -129 251 -235 q33 -36 33 -74 ZM1119 -100 q0 -47 -3.5 -70.5 q-3.5 -23.5 -11.5 -31.5 q-5 -5 -12 -5 l-136 0 q-9 0 -15 9 q-12 17 -12 98 l0 991 q-139 -179 -307 -327 q-180 -159 -365 -264 q-28 -15 -55 -15 q-37 0 -61 24 q-12 12 -19 29 q-11 26 -11 44 q0 48 55 81 q269 166 488 394 q212 221 344 484 l-774 0 q-29 0 -58 -29 l-19 -19 l0 125 q0 80 48 98 q13 5 29 5 l1600 0 q55 0 84 18 l17 11 l0 -118 q0 -42 -23 -65 q-26 -26 -78 -26 l-621 0 q-33 -73 -84 -168 l0 -1273 Z" /><glyph glyph-name="uni4E0E" unicode="&#x4e0e;" d="M1412 501 q11 143 11 191 q0 43 -36 55 q-12 4 -27 4 l-792 0 q-131 0 -160 83 q-9 24 -9 54 q0 45 16 136 l62 477 q10 85 42 117 q25 25 65 25 q64 0 86 -44 q11 -22 11 -53 l0 -1 q-7 -67 -15 -134 l1036 0 q68 0 98 13 l15 7 l0 -115 q0 -40 -23 -63 q-28 -28 -90 -28 l-1060 0 q-33 -258 -33 -260 q0 -13 9 -20 q12 -10 36 -10 l778 0 q101 0 151 -50 q48 -48 48 -139 l-10 -141 q-3 -52 -5 -104 l224 0 q61 0 88 -27 q23 -23 23 -66 q0 -93 -111 -93 l-240 0 q-22 -226 -66 -328 q-46 -108 -146 -144 q-98 -36 -308 -36 l-96 0 l0 0 q-58 2 -87 27 l-5 4 q-25 25 -25 71 q0 46 26 71 q28 29 87 29 l132 0 q199 0 228 54 q30 55 56 252 l-1128 0 q-29 0 -58 -29 l-19 -19 l0 125 q0 86 49 104 q13 5 28 5 l1144 0 Z" /><glyph glyph-name="uni4E14" unicode="&#x4e14;" d="M1451 401 l-854 0 l0 -328 l854 0 l0 328 ZM597 575 l854 0 l0 306 l-854 0 l0 -306 ZM597 1055 l854 0 l0 215 q0 46 -22.5 68.5 q-22.5 22.5 -70.5 22.5 l-668 0 q-49 0 -71 -22 q-22 -22 -22 -65 q0 -2 0 -4 l0 -215 ZM1854 73 q95 0 95 -88 q0 -44 -23.5 -65 q-23.5 -21 -71.5 -21 l-1662 0 q-29 0 -58 -29 l-19 -19 l0 125 q0 53 24 78 q20 19 53 19 l217 0 l0 1259 q-1 15 -1 29 q0 87 44 131 q44 44 129 44 q14 0 29 -1 l826 0 q14 1 22.5 1 q8.5 0 17.5 0 q9 0 24 -2 q15 -2 28 -5.5 q13 -3.5 25 -8.5 q85 -37 85 -159 q0 -14 -1 -29 l0 -1259 l217 0 Z" /><glyph glyph-name="uni4E2A" unicode="&#x4e2a;" d="M919 -104 l0 1002 q0 45 3.5 68.5 q3.5 23.5 11.5 31.5 q5 5 12 5 l142 0 q18 0 23 -35 q4 -25 4 -70 l0 -1002 q0 -47 -3.5 -70.5 q-3.5 -23.5 -11.5 -31.5 q-5 -5 -12 -5 l-142 0 q-7 0 -11 4.5 q-4 4.5 -7 8.5 q-9 21 -9 94 ZM99 724 q0 70 105 131 q424 249 705 703 q37 59 77 80 q19 9 38 9 q49 0 76 -27 q23 -23 23 -56 q0 -14 -18 -50 l1 -8 q273 -364 723 -608 q120 -65 120 -134 q0 -59 -29 -87 q-25 -26 -72 -26 q-47 0 -141 58 q-91 56 -242 176 q-265 212 -457 480 q-211 -295 -463 -517 q-122 -109 -214 -167 q-92 -58 -139 -58 q-35 0 -64 33.5 q-29 33.5 -29 67.5 Z" /><glyph glyph-name="uni4E2D" unicode="&#x4e2d;" d="M1669 994 q0 65 -20 85 q-20 20 -83 20 l-443 0 l0 -542 l443 0 q32 0 53 5.5 q21 5.5 30 14.5 q20 20 20 83 l0 334 ZM925 1099 l-425 0 q-32 0 -53 -5.5 q-21 -5.5 -30 -14.5 q-20 -20 -20 -85 l0 -334 q0 -32 5.5 -53 q5.5 -21 14.5 -30 q20 -20 83 -20 l425 0 l0 542 ZM1638 1281 q13 1 26.5 1 q13.5 0 33.5 -2 q20 -2 43 -8 q44 -12 74 -42 q53 -53 53 -157 q0 -12 -1 -23 l0 -446 q0 -125 -57 -182 q-48 -48 -144 -48 q-14 0 -28 1 l-515 0 l0 -473 q0 -48 -3 -66.5 q-3 -18.5 -5 -25.5 q-2 -7 -6 -11 q-6 -6 -13 -6 l-144 0 q-7 0 -12 5 q-15 15 -15 104 l0 473 l-495 0 q-13 -1 -25 -1 q-101 0 -153 52 q-52 52 -52 156 q0 11 1 22 l0 446 q0 128 57 184 q47 48 143 48 q14 0 29 -1 l495 0 l0 251 q0 49 3.5 73.5 q3.5 24.5 11.5 32.5 q5 5 12 5 l144 0 q7 0 11 -4.5 q4 -4.5 7 -9.5 q9 -21 9 -97 l0 -251 l515 0 Z" /><glyph glyph-name="uni4E30" unicode="&#x4e30;" d="M1939 356 q0 -38 -22 -60 q-27 -27 -85 -27 l-711 0 l0 -357 q0 -48 -9 -65 q-6 -12 -18 -12 l-142 0 q-8 0 -14 6 q-13 13 -13 71 l0 357 l-713 0 q-57 0 -86 -20 l-17 -12 l0 119 q0 39 22 61 q26 26 81 26 l713 0 l0 288 l-549 0 q-54 0 -83 -22 l-18 -13 l0 120 q0 37 21 58 q25 25 80 25 l549 0 l0 263 q-285 -23 -603 -29 q-2 0 -5 0 q-50 0 -74 24 q-22 22 -22 63 q0 41 22 62 l4 5 q25 20 70 22 l1 0 q295 6 607 31 l0 176 q0 51 10 67 q6 10 17 10 l142 0 q8 0 14 -6 q13 -13 13 -71 l0 -156 q279 32 545 87 q9 2 23 2 q14 0 22.5 -1.5 q8.5 -1.5 16.5 -4.5 q16 -6 29 -19 q24 -26 24 -76 q0 -34 -22 -55 q-21 -21 -61 -30 q-251 -51 -577 -85 l0 -279 l555 0 q54 0 83 22 l18 13 l0 -120 q0 -37 -21 -58 q-25 -25 -80 -25 l-555 0 l0 -288 l711 0 q61 0 90 20 l17 12 l0 -119 Z" /><glyph glyph-name="uni4E32" unicode="&#x4e32;" d="M1685 492 q0 30 -13.5 43.5 q-13.5 13.5 -39.5 13.5 l-509 0 l0 -268 l509 0 q26 0 39.5 13.5 q13.5 13.5 13.5 43.5 l0 154 ZM929 549 l-491 0 q-28 0 -41.5 -13.5 q-13.5 -13.5 -13.5 -43.5 l0 -154 q0 -30 14 -44 q13 -13 41 -13 l491 0 l0 268 ZM1123 1027 l415 0 q27 0 40 13 q13 13 13 42 l0 132 q0 27 -13 40 q-13 13 -40 13 l-415 0 l0 -240 ZM929 1267 l-397 0 q-27 0 -40 -13 q-13 -13 -13 -40 l0 -132 q0 -29 13 -42 q13 -13 40 -13 l397 0 l0 240 ZM1878 551 q0 -10 -1 -21 l0 -228 q0 -101 -46 -147 q-41 -41 -121 -41 q-11 0 -22 1 l-565 0 l0 -229 q0 -42 -4 -64 q-5 -35 -23 -35 l-140 0 q-18 0 -23 34 q-4 23 -4 65 l0 229 l-549 0 q-103 0 -150 47 q-40 40 -40 119 q0 10 1 21 l0 228 q0 102 46 148 q40 40 121 40 q11 0 22 -1 l549 0 l0 144 l-457 0 q-100 0 -145 45 q-39 39 -39 118 q0 11 1 22 l0 202 q0 102 46 147 q38 39 115 39 q11 0 22 -1 l457 0 l0 117 q0 42 3.5 64 q3.5 22 11.5 30 q5 5 12 5 l140 0 q18 0 23 -34 q4 -23 4 -65 l0 -117 l475 0 q152 0 178 -104 q6 -24 6 -54 q0 -13 -1 -27 l0 -202 q1 -14 1 -28 q0 -75 -41 -116.5 q-41 -41.5 -122 -41.5 q-10 0 -21 1 l-475 0 l0 -144 l565 0 q103 0 150 -47 q40 -40 40 -119 Z" /><glyph glyph-name="uni4E3B" unicode="&#x4e3b;" d="M1945 -14 q0 -41 -23 -65 q-29 -28 -90 -28 l-1618 0 q-65 0 -95 -15 l-16 -8 l0 116 q0 42 24 65 q27 28 87 28 l703 0 l0 452 l-517 0 q-63 0 -93 -15 l-16 -8 l0 116 q0 42 24 65 q27 28 85 28 l517 0 l0 390 l-633 0 q-63 0 -93 -15 l-16 -8 l0 116 q0 59 46 81 q25 12 63 12 l1478 0 q67 0 97 15 l16 8 l0 -116 q0 -41 -23 -65 q-29 -28 -90 -28 l-649 0 l0 -390 l527 0 q67 0 97 15 l16 8 l0 -116 q0 -41 -23 -65 q-29 -28 -90 -28 l-527 0 l0 -452 l719 0 q67 0 97 15 l16 8 l0 -116 ZM767 1542 q0 44 24.5 68.5 q24.5 24.5 74.5 24.5 q10 0 27 -6 q62 -20 170 -81 q96 -53 136 -93 q30 -30 30 -55 q0 -45 -25 -70 q-25 -25 -78 -25 q-13 0 -32 9 q-33 15 -78 43 q-24 16 -68 43.5 q-44 27.5 -111 63.5 q-44 22 -59 44 q-11 16 -11 34 Z" /><glyph glyph-name="uni4E45" unicode="&#x4e45;" d="M115 -68 q0 65 102 114 q500 239 838 734 q97 140 145 242 q48 102 59 157 q2 5 2 13 q0 15 -8 24 q-14 13 -49 13 l-492 0 q-137 -222 -290 -381 q-100 -103 -158 -144 q-40 -29 -62 -29 q-44 0 -68.5 24.5 q-24.5 24.5 -24.5 76.5 q0 51 60 101 q330 268 499 671 q15 35 36 57 q28 28 66 28 q74 0 92 -49 q5 -14 5 -32 q0 -24 -15 -60 q-12 -30 -36 -81 l498 0 q108 0 151 -44 q32 -31 32 -85 q0 -42 -77 -228 q-65 -161 -201 -360 q259 -423 598 -614 q122 -68 122 -136 q0 -56 -27.5 -83.5 q-27.5 -27.5 -79.5 -27.5 q-50 0 -132 60 q-81 58 -204 173 q-231 219 -387 477 q-220 -276 -508 -490 q-153 -112 -248.5 -169 q-95.5 -57 -142.5 -57 q-33 0 -68 38 q-27 29 -27 67 Z" /><glyph glyph-name="uni4E48" unicode="&#x4e48;" d="M1857 -92 q0 -33 -29 -62 q-29 -29 -69 -29 q-48 0 -68 31 q-35 57 -70 144 q-268 -34 -934 -93 l-318 -24 q-12 -1 -23 -1 q-56 0 -77 22 q-22 22 -22 68 q0 44 39 67 q35 20 111 24 q44 3 87 6 q215 323 554 928 q63 114 91 136 q29 22 63 22 q12 0 38 -9 q67 -29 67 -84 q0 -9 -3.5 -18.5 q-3.5 -9.5 -8.5 -20.5 q-11 -24 -48.5 -87.5 q-37.5 -63.5 -193.5 -311.5 q-132 -216 -364 -541 q471 34 876 71 q-74 146 -177 325 q-49 86 -49 129 q0 25 21.5 42 q21.5 17 59.5 17 q62 0 135 -125 q147 -247 229 -410 q83 -165 83 -216 ZM262 599 q-33 0 -55 23.5 q-22 23.5 -22 55.5 q0 57 64 110 q288 255 553 727 q32 55 84 55 q8 0 16 -1 l0 0 q38 -6 59.5 -27.5 q21.5 -21.5 21.5 -59.5 q0 -6 0 -11 q-4 -37 -63 -135 q-59 -98 -167 -243 q-94 -126 -141 -184 q-59 -72 -134 -153 q-73 -78 -118 -114 q-56 -43 -98 -43 Z" /><glyph glyph-name="uni4E4B" unicode="&#x4e4b;" d="M1919 -97 q-34 -34 -107 -34 l0 0 l-366 8 q-325 8 -534 54 q-342 73 -448 345 q-4 11 -8 14 q-4 -4 -10 -15 l-30 -66 q-105 -230 -159 -277 q-17 -15 -30.5 -23 q-13.5 -8 -32.5 -8 q-47 0 -73 26 q-28 28 -28 85 q0 42 38 89 q149 189 223 379 q33 83 102 83 q64 0 91 -90 q13 -48 44 -96 q362 227 792 593 l102 92 q20 17 26 28 q4 6 4 8 q0 2 0 3 q-1 4 -6.5 8 q-5.5 4 -18.5 4 l-1182 0 q-70 0 -100 -13 l-15 -7 l0 115 q0 41 23 64 q29 29 92 29 l601 0 l0 219 q0 80 11 98 q6 11 16 11 l146 0 q7 0 12 -5 q15 -15 15 -104 l0 -219 l521 0 q110 0 155 -45 q30 -30 30 -78 q0 -23 -21.5 -59 q-21.5 -36 -73.5 -93 q-92 -102 -267 -245 q-379 -308 -742 -533 q-8 -4 -16 -9 q88 -82 234 -120 q158 -42 629 -42 q267 6 269 6 q62 0 93 -31 q27 -27 27 -74 q0 -47 -28 -75 ZM446 275 q0 0 0 0 q0 0 0 0 Z" /><glyph glyph-name="uni4E4E" unicode="&#x4e4e;" d="M327 1152 q0 37 21 57 q23 24 72 24 q36 0 72.5 -36.5 q36.5 -36.5 75.5 -115.5 q77 -150 77 -191 q0 -44 -24 -68 q-25 -25 -75 -25 q-61 0 -104 92 l-84 178 q-16 32 -23.5 52 q-7.5 20 -7.5 33 ZM1630 1259 q48 0 72 -24 q21 -21 21 -59 q0 -27 -26 -92.5 q-26 -65.5 -89 -188.5 q-59 -114 -120 -114 q-50 0 -74 24 q-21 21 -21 57 l0 1 l6 30 l131 287 q17 41 40.5 60 q23.5 19 59.5 19 ZM613 -98 q0 45 26 71 q30 30 93 30 l110 0 q44 0 65 21 q21 21 22 64 q0 209 0 417 l-713 0 q-29 0 -58 -29 l-19 -19 l0 125 q0 79 48 96 q13 5 29 5 l713 0 l0 690 q-674 -26 -677 -26 q-48 0 -71.5 23.5 q-23.5 23.5 -23.5 65 q0 41.5 22 63.5 q18 18 46 22 q64 8 263 8 q229 0 619 36 q222 22 334.5 35 q112.5 13 154.5 25 l83 12 l1 0 q50 0 76.5 -26.5 q26.5 -26.5 26.5 -78.5 q0 -40 -43 -64 q-27 -14 -79 -24 q-110 -21 -336 -41 l-206 -17 l0 -703 l711 0 q29 0 58 29 l19 19 l0 -125 q0 -71 -40 -93 q-16 -8 -37 -8 l-711 0 l0 -465 q1 -14 1 -28 q0 -103 -53 -156 q-56 -56 -168 -56 q-13 0 -27 1 l-140 0 q-75 0 -105 -8 l-14 -3 l0 112 Z" /><glyph glyph-name="uni4E5D" unicode="&#x4e5d;" d="M1939 254 q0 -280 -87 -335 q-34 -21 -107.5 -35.5 q-73.5 -14.5 -142.5 -14.5 q-89 0 -171 8 q-84 8 -113 19 q-52 19 -75 61 q-20 37 -20 96 q0 6 0 11 q4 143 17 363 q13 220 17 302 q14 268 14 270 q0 22 -11 33 q-11 11 -36 11 l-364 0 q-21 -345 -97 -574 q-9 -27 -19 -53 q-81 -216 -266 -398 q-173 -173 -274 -173 q-35 0 -68 36 q-27 29 -27 68 q0 57 67 98 q263 163 388 449 q51 117 74 247 q22 126 30 300 l-422 0 q-29 0 -58 -29 l-19 -19 l0 125 q0 84 49 102 q13 5 28 5 l427 0 q4 121 4 197 l2 104 q0 46 24.5 70.5 q24.5 24.5 72.5 24.5 q44 0 68 -24 q27 -27 27 -81 q0 -115 -4 -291 l413 0 q103 0 147 -49 q39 -42 39 -135 q0 -13 -1 -28 q-4 -102 -8 -144 q-30 -547 -30 -727 q0 -49 22 -64 q8 -6 22 -9 q42 -10 111 -10 q119 0 137 24 q8 9 15.5 48.5 q7.5 39.5 12.5 123.5 q3 48 26.5 71 q23.5 23 62.5 23 q52 0 78 -26 q25 -25 25 -71 Z" /><glyph glyph-name="uni4E5F" unicode="&#x4e5f;" d="M437 152 l0 669 q-196 -58 -236 -66 q-9 -2 -13 -2 q-65 0 -80 51 q-5 17 -5 40 q0 71 82 91 l252 75 l0 394 q0 25 1 39 q1 24 3 37 q3 24 11 32 q5 5 12 5 l132 0 q10 0 16 -11 q11 -19 11 -102 l0 -343 l360 105 l0 358 q0 51 3 70.5 q3 19.5 5 27 q2 7.5 7 12.5 q5 5 12 5 l132 0 q7 0 12 -5 q5 -5 7 -12.5 q2 -7.5 4 -20.5 q4 -26 4 -77 l0 -303 l412 118 l39 4 q61 0 96 -35 q43 -43 43 -136 l0 -518 q0 -189 -148 -259 q-85 -40 -217 -40 q-52 0 -78.5 26.5 q-26.5 26.5 -26.5 76.5 q0 36 23 59 q31 31 106 34 q43 2 66 6 q23 3 36 12 q51 35 51 135 l0 384 q0 26 -11 37 q-10 10 -29 10 l-23 -4 l-339 -97 l0 -748 q0 -50 -3 -69 q-3 -19 -5 -26.5 q-2 -7.5 -7 -12.5 q-5 -5 -12 -5 l-132 0 q-7 0 -12 5 q-8 8 -11.5 33 q-3.5 25 -3.5 75 l0 693 l-360 -103 l0 -696 q0 -71 67 -100 q23 -9 112 -15 q89 -6 276 -6 l412 2 q167 0 212 45 q16 16 24 48 q9 34 15 95 q3 36 24 57 q25 25 75 25 q53 0 80 -27 q25 -25 25 -70 q0 -88 -35 -191 q-35 -104 -151 -138 q-119 -34 -637 -34 q-405 0 -518 24 q-62 13 -101 52 q-66 66 -66 205 ZM185 935 q0 0 0 0 q0 0 0 0 Z" /><glyph glyph-name="uni4E71" unicode="&#x4e71;" d="M874 75 q59 0 59 59 l0 264 q0 27 -15 42 q-15 15 -44 15 l-430 0 q-48 0 -57 -36 q-2 -9 -2 -21 l0 -264 q0 -30 14.5 -44.5 q14.5 -14.5 44.5 -14.5 l430 0 ZM1269 34 l0 1476 q0 68 9 88 q6 13 18 13 l128 0 q18 0 23 -34 q4 -24 4 -67 l0 -1378 q0 -57 20 -72 q21 -15 159 -15 q81 0 104 38 q19 36 25 173 q1 64 30 93 q22 22 59 22 q48 0 72 -24 q23 -23 23 -67 q0 -145 -30 -273 q-20 -79 -90 -113 q-62 -29 -233 -29 q-179 0 -238 23 q-83 33 -83 146 ZM198 57 q0 10 1 21 l0 374 q0 100 46 146 q40 40 119 40 q11 0 22 -1 l181 0 l0 288 l-361 0 q-61 0 -91 -17 l-16 -9 l0 117 q0 41 23 64 q27 27 84 27 l361 0 l0 267 l-358 -29 q-4 0 -8 0 q-35 0 -56.5 21 q-21.5 21 -21.5 63.5 q0 42.5 38 64.5 q34 19 102 23 q449 34 725 102 l36 6 q9 1 18 1 q31 0 51 -22 q24 -26 24 -70 q0 -32 -21 -52 q-17 -18 -52 -32 q-56 -24 -291 -54 l0 -289 l337 0 q61 0 91 17 l16 9 l0 -117 q0 -41 -23 -64 q-27 -27 -84 -27 l-337 0 l0 -288 l179 0 q101 0 146 -46 q40 -39 40 -117 q0 -11 -1 -22 l0 -374 q0 -100 -46 -146 q-40 -40 -118 -40 q-10 0 -21 1 l-546 0 q-102 0 -148 46 q-40 40 -40 118 Z" /><glyph glyph-name="uni4E86" unicode="&#x4e86;" d="M587 -78 q2 97 121 97 l130 0 q45 0 66 21 q21 21 21 62 q0 2 0 4 l0 792 q0 81 38 119 q33 33 164 97 l54 26 q185 94 224 114 l85 51 q8 5 12 10 l5 7 q0 7 -4.5 11 q-4.5 4 -12.5 4 l-1198 0 q-29 0 -58 -29 l-19 -19 l0 125 q0 79 48 96 q13 5 29 5 l1412 0 q91 0 128 -36 q27 -28 27 -75 q0 -48 -219 -185 q-251 -159 -437 -249 q-43 -20 -65 -43 q-27 -26 -27 -57 l0 -814 q1 -16 1 -30 q0 -205 -195 -205 q-17 0 -35 2 l-174 0 q-76 0 -107 -9 l-14 -5 l0 113 Z" /><glyph glyph-name="uni4E8B" unicode="&#x4e8b;" d="M1129 267 l381 0 q27 0 39 12 q12 12 12 37 l0 61 l-432 0 l0 -110 ZM1561 584 q0 23 -12 35 q-12 12 -39 14 l-381 0 l0 -102 l432 0 l0 53 ZM1555 1038 l0 40 q0 18 -9 27 q-9 9 -28 10 l-389 0 l0 -116 l389 0 q19 0 28 9 q9 9 9 30 ZM939 999 l0 116 l-403 0 q-19 0 -29 -10 q-10 -10 -10 -27 l0 -40 q0 -20 9.5 -29.5 q9.5 -9.5 29.5 -9.5 l403 0 ZM661 -112 q0 53 37 75 q24 14 62 14 l118 0 q31 0 46 15 q15 15 15 46 l0 79 l-607 0 q-33 0 -62 -31 l-19 -20 l0 126 q0 35 20 55 q20 20 61 20 l607 0 l0 110 l-747 0 q-29 0 -58 -29 l-19 -19 l0 125 q0 38 19.5 57.5 q19.5 19.5 57.5 19.5 l747 0 l0 102 l-589 0 q-39 0 -68 -31 l-19 -20 l0 126 q0 34 19 53 q22 22 68 22 l589 0 l0 74 l-463 0 q-85 0 -127 42 q-38 38 -38 109 l0 100 q0 77 41.5 113 q41.5 36 123.5 36 l463 0 l0 76 l-697 0 q-39 0 -68 -29 l-19 -19 l0 125 q0 35 20 55 q22 22 67 22 l699 0 l0 65 q0 58 14 71 q5 6 13 6 l136 0 q8 0 14 -6.5 q6 -6.5 9 -18.5 q4 -21 4 -52 l0 -65 l677 0 q37 0 66 29 l19 19 l0 -125 q0 -36 -20.5 -56.5 q-20.5 -20.5 -64.5 -20.5 l-679 0 l0 -76 l447 0 q128 0 156 -85 q9 -26 9 -60 l0 -102 q0 -79 -41.5 -116 q-41.5 -37 -123.5 -37 l-447 0 l0 -74 l445 0 q92 0 135 -43 q38 -39 38 -115 q0 -8 0 -15 l0 -79 l105 0 q45 0 74 29 l19 19 l0 -125 q0 -34 -20 -54 q-23 -23 -73 -23 l-105 0 l0 -89 q0 -91 -42 -133 q-39 -38 -116 -38 q-7 0 -15 0 l-445 0 l0 -127 q0 -93 -49 -142 q-49 -49 -142 -49 l-178 0 q-53 0 -82 -18 l-17 -11 l0 118 Z" /><glyph glyph-name="uni4E8C" unicode="&#x4e8c;" d="M107 64 q0 51 29.5 75 q29.5 24 89.5 24 l1594 0 q76 0 107 9 l14 5 l0 -113 q0 -44 -25 -69 q-30 -30 -96 -30 l-1594 0 q-66 0 -95 29 q-24 24 -24 70 ZM323 1350 q0 43 24 67 q30 30 95 30 l1164 0 q29 0 58 29 l19 19 l0 -125 q0 -97 -51 -116 q-12 -5 -26 -5 l-1164 0 q-75 0 -105 -8 l-14 -3 l0 112 Z" /><glyph glyph-name="uni4E8E" unicode="&#x4e8e;" d="M1124 8 q0 -196 -205 -196 q-11 0 -23 1 l-170 0 q-62 0 -91 29 q-24 24 -24 68 q0 49 29.5 73 q29.5 24 85.5 24 l122 0 q45 0 67 22 q22 22 24 67 q0 292 0 583 l-713 0 q-63 0 -92 -18 l-17 -11 l0 118 q0 38 22 60 q27 27 87 27 l713 0 l0 506 l-583 0 q-63 0 -92 -20 l-17 -12 l0 119 q0 39 22 62 q28 27 87 27 l1336 0 q61 0 90 18 l17 11 l0 -118 q0 -38 -22 -60 q-27 -27 -85 -27 l-569 0 l0 -506 l699 0 q63 0 92 18 l17 11 l0 -118 q0 -38 -22 -60 q-27 -27 -87 -27 l-699 0 l0 -643 q1 -14 1 -28 Z" /><glyph glyph-name="uni4E91" unicode="&#x4e91;" d="M466 1513 l1112 0 q51 0 80 18 l17 11 l0 -118 q0 -58 -43 -78 q-22 -11 -54 -11 l-1112 0 q-50 0 -72.5 22.5 q-22.5 22.5 -22.5 66.5 q0 12 1.5 20 q1.5 8 2.5 13 q1 5 3 9.5 q2 4.5 4 8.5 q21 38 84 38 ZM1299 415 q-26 33 -26 67 q0 37 22 59 q22 22 55 22 q33 0 56 -16 q21 -15 48 -46 q317 -361 412 -528 q21 -39 21 -71 q0 -40 -31 -63 q-30 -22 -70 -22 q-52 0 -93 65 l-96 148 q-354 -61 -960 -117 l-378 -34 q-7 -1 -14 -1 q-40 0 -63 23 q-25 25 -25 77 q0 45 26 70 q26 25 71 27 l217 10 q141 301 248 674 l-501 0 q-29 0 -58 -29 l-19 -19 l0 125 q0 82 49 100 q13 5 28 5 l1610 0 q29 0 58 29 l19 19 l0 -125 q0 -60 -26 -86 q-19 -19 -51 -19 l-884 0 q-126 -357 -276 -663 q454 25 824 74 l-193 245 Z" /><glyph glyph-name="uni4E94" unicode="&#x4e94;" d="M1395 612 q0 41 -18 59 q-18 18 -59 18 l-431 0 l-108 -612 l616 0 l0 535 ZM125 -83 q-24 25 -24 65 q0 45 29.5 69 q29.5 24 83.5 24 l361 0 l118 614 l-261 0 q-69 0 -99 -17 l-16 -9 l0 117 q0 43 25 68 q29 29 90 29 l293 0 l78 442 l-459 0 q-66 0 -96 -13 l-15 -7 l0 115 q0 42 24 65 q27 28 87 28 l1340 0 q69 0 99 15 l16 8 l0 -116 q0 -42 -24 -66 q-29 -29 -91 -29 l-689 0 l-76 -442 l457 0 q15 1 30 1 q93 0 137.5 -45.5 q44.5 -45.5 44.5 -136.5 q0 -15 -1 -30 l0 -591 l239 0 q67 0 97 15 l16 8 l0 -116 q0 -41 -23 -65 q-29 -28 -90 -28 l-1612 0 q-60 0 -89 28 Z" /><glyph glyph-name="uni4E9B" unicode="&#x4e9b;" d="M133 -50 q0 41 23 64 q27 27 86 27 l1564 0 q29 0 58 29 l19 19 l0 -125 q0 -14 -1 -23.5 q-1 -9.5 -2.5 -15.5 q-1.5 -6 -3 -11.5 q-1.5 -5.5 -3.5 -10.5 q-2 -5 -4 -9 q-20 -35 -63 -35 l-1564 0 q-63 0 -93 -17 l-16 -9 l0 117 ZM335 358 q0 41 23 64 q27 27 86 27 l1156 0 q61 0 91 17 l16 9 l0 -117 q0 -13 -2 -22 q-2 -9 -4 -14 q-2 -5 -4 -10 q-23 -45 -97 -45 l-1156 0 q-63 0 -93 -17 l-16 -9 l0 117 ZM1145 734 l0 810 q0 42 4 64 q5 35 23 35 l128 0 q18 0 23 -34 q4 -23 4 -65 l0 -286 q206 81 238 95 q32 14 48 22 q32 15 52 26.5 q20 11.5 33 17.5 q29 12 47.5 12 q18.5 0 32.5 -3 q31 -5 50 -24 q25 -25 25 -72 q0 -30 -27 -57 q-40 -40 -142 -75 l-70 -24 q-145 -51 -287 -87 l0 -281 q0 -26 15 -40 q22 -23 82 -23 l72 0 q104 0 152 6 q50 7 60 17 q13 12 21 35 q7 21 12 68 q6 51 30 75.5 q24 24.5 63 24.5 q45 0 70 -25 q29 -29 29 -88 q0 -123 -45 -205 q-47 -86 -240 -86 l-98 -2 l0 0 l-244 6 q-77 2 -119 45.5 q-42 43.5 -42 117.5 ZM105 624 q0 39 25 64 q32 32 105 37 q15 1 30 3 l0 652 q0 65 9 84 q6 13 18 13 l128 0 q7 -1 12 -5 q15 -15 15 -92 l0 -631 l166 23 l0 774 q0 41 3.5 62.5 q3.5 21.5 11.5 29.5 q5 5 12 5 l126 0 q18 0 23 -34 q4 -22 4 -63 l0 -239 l207 0 q40 0 69 22 l18 13 l0 -120 q0 -41 -22 -63 q-22 -22 -65 -22 l-207 0 l0 -340 l225 38 q9 1 17 1 q30 0 49 -21 q23 -25 23 -69 q0 -24 -20 -44 q-42 -43 -181 -63 l-708 -110 q-9 -1 -13.5 -1 q-4.5 0 -7.5 0 q-3 0 -7.5 0.5 q-4.5 0.5 -8.5 2 q-4 1.5 -8 3 q-4 1.5 -7 3.5 q-10 5 -17 14 q-24 27 -24 73 Z" /><glyph glyph-name="uni4EA4" unicode="&#x4ea4;" d="M105 -80 q0 40 24.5 64.5 q24.5 24.5 70.5 34.5 l186 30 q280 46 491 187 q-123 124 -195 246 q-85 147 -85 196 q0 34 20 54 q23 23 71 23 q40 0 87 -65 q16 -23 31 -49 q99 -180 216 -290 q136 143 248 358 q23 46 55 65 q17 9 33 9 q56 0 84 -27 q21 -22 21 -56 q0 -47 -102 -214 q-85 -139 -194 -250 q234 -158 556 -195 l62 -6 q81 -8 104 -17 q8 -3 14 -7 q40 -34 40 -81 q0 -52 -27 -79 q-28 -28 -82 -28 q-176 0 -404 85 q-244 90 -408 208 q-188 -139 -461 -221 q-263 -78 -347 -78 q-55 0 -82 27 q-27 27 -27 76 ZM183 762 q0 24 25 49 q30 30 95 63 q181 93 330 222 q69 59 105 59 q45 0 68 -23 q23 -23 23 -68 q0 -10 -4 -17.5 q-4 -7.5 -7 -13.5 q-39 -61 -225 -200 q-231 -170 -319 -170 q-43 0 -66 23 q-25 25 -25 76 ZM1199 1070 q0 56 42 77 q21 10 53 10 q24 0 85 -27 q61 -27 178 -92 q220 -124 261 -164 q47 -47 47 -80 q0 -46 -24.5 -70.5 q-24.5 -24.5 -74.5 -24.5 q-24 0 -61 22 q-17 10 -39 26 q-162 118 -359 221 q-82 44 -102 80 q-6 11 -6 22 ZM125 1300 q0 38 22 60 q27 27 85 27 l679 0 l0 125 q0 56 3 77.5 q3 21.5 5 27.5 q3 11 7.5 15.5 q4.5 4.5 11.5 4.5 l148 0 q18 0 23 -40 q4 -29 4 -85 l0 -125 l701 0 q63 0 92 20 l17 12 l0 -119 q0 -38 -22 -60 q-27 -27 -87 -27 l-1582 0 q-61 0 -90 -20 l-17 -12 l0 119 Z" /><glyph glyph-name="uni4EAB" unicode="&#x4eab;" d="M1943 272 q0 -36 -21 -57 q-24 -24 -74 -24 l-721 0 l0 -205 q0 -97 -46.5 -141 q-46.5 -44 -146.5 -44 l-162 0 q-65 0 -95 -17 l-16 -9 l0 117 q0 40 23 63 q28 28 88 28 l106 0 q26 0 39.5 13.5 q13.5 13.5 15.5 41.5 l0 153 l-733 0 q-29 0 -58 -29 l-19 -19 l0 125 q0 47 23 69 q19 20 54 20 l733 0 q2 78 36 111 q30 31 100 53 l138 42 q79 22 130 38 l-975 0 q-42 0 -71 -25 l-18 -16 l0 122 q0 36 20 56 q23 23 69 23 l1182 0 q124 0 150 -83 q7 -16 7 -36 q0 -45 -36 -81 q-28 -28 -73 -45 q-143 -52 -291 -95 q-129 -36 -156 -52 q-9 -6 -14 -12 l717 0 q48 0 77 22 l18 13 l0 -120 ZM1511 1066 q0 19 -8 27 q-8 8 -25 8 l-920 0 q-22 0 -29 -14 q-4 -8 -4 -21 l0 -52 q0 -17 8 -25 q8 -8 25 -8 l920 0 q16 0 24 8 q8 8 9 25 l0 52 ZM1703 1110 l0 -140 q0 -71 -38 -109 q-38 -38 -115 -38 q-6 0 -12 0 l-1038 0 q-90 0 -131 41 q-36 36 -36 106 l0 140 q0 100 72 134 q34 15 83 15 q6 0 12 0 l1038 0 q88 0 128 -40 q37 -37 37 -109 ZM125 1394 q0 37 21 58 q23 23 70 23 l697 0 l0 67 q0 65 9 84 q6 13 18 13 l156 0 q7 0 12 -5 q5 -5 7.5 -11.5 q2.5 -6.5 3.5 -14.5 q1 -8 2 -15 q1 -7 1 -15 q1 -16 1 -36 l0 -67 l711 0 q44 0 73 25 l18 16 l0 -122 q0 -52 -39 -71 q-21 -10 -52 -10 l-1618 0 q-44 0 -73 -25 l-18 -16 l0 122 Z" /><glyph glyph-name="uni4EAE" unicode="&#x4eae;" d="M147 -94 q0 37 29 62.5 q29 25.5 84 34.5 q235 37 324 127 q69 69 81 235 l4 58 q1 28 18 46 q23 22 71 22 q41 0 64 -23 q27 -27 27 -86 q0 -335 -264 -472 q-192 -101 -345 -101 q-45 0 -68 24 q-25 24 -25 73 ZM1129 20 l0 374 q0 43 3.5 65.5 q3.5 22.5 11.5 30.5 q5 5 12 5 l128 0 q18 0 23 -34 q4 -24 4 -67 l0 -294 q0 -61 22 -70 q14 -7 56 -11 q42 -4 96 -4 q98 0 140 6 q46 7 56 17 q23 24 38 124 q7 54 54 67 q15 4 35 4 q48 0 73.5 -25.5 q25.5 -25.5 25.5 -75.5 q0 -222 -132 -266 q-73 -25 -299 -25 q-190 0 -264 29 q-83 33 -83 150 ZM135 380 l0 146 q0 104 47 151 q41 41 122 41 q11 0 22 -1 l1392 0 q97 0 143 -46 q46 -46 48 -139 l0 -142 q0 -44 -4 -67 q-4 -27 -14 -33 q-4 -3 -9 -3 l-132 0 q-7 0 -12 5 q-5 5 -7.5 12 q-2.5 7 -3.5 18 q-4 24 -4 68 l0 106 q0 45 -36 55 q-9 3 -21 4 l-1284 0 q-28 0 -42.5 -14.5 q-14.5 -14.5 -16.5 -44.5 l0 -116 q0 -47 -3.5 -70.5 q-3.5 -23.5 -11.5 -31.5 q-5 -5 -12 -5 l-134 0 q-7 0 -12 5 q-5 5 -7 12 q-2 7 -4 19 q-4 24 -4 71 ZM1470 951 q31 0 42 20 q6 11 7 27 l0 40 q0 29 -20 40 q-11 6 -29 7 l-906 0 q-24 0 -35.5 -11.5 q-11.5 -11.5 -11.5 -35.5 l0 -40 q0 -34 25 -43 q10 -4 22 -4 l906 0 ZM331 960 l0 114 q0 81 42.5 119 q42.5 38 132.5 38 l1022 0 q93 0 137 -44 q38 -38 38 -111 l0 -116 q0 -75 -40 -115 q-40 -40 -123 -40 q-6 0 -12 0 l-1022 0 q-95 0 -137 42 q-38 38 -38 113 ZM119 1396 q0 38 21 59 q24 24 72 24 l697 0 l0 63 q0 42 3.5 64 q3.5 22 11.5 30 q5 5 12 5 l156 0 q10 0 17 -11 q10 -17 10 -88 l0 -63 l715 0 q46 0 75 24 l18 14 l0 -121 q0 -38 -21 -59 q-24 -24 -72 -24 l-1622 0 q-46 0 -75 -24 l-18 -14 l0 121 Z" /><glyph glyph-name="uni4EBA" unicode="&#x4eba;" d="M1880 42 q81 -35 81 -104 q0 -23 -9.5 -47.5 q-9.5 -24.5 -25.5 -40.5 q-27 -27 -70 -27 q-31 0 -66 13 q-170 65 -324.5 220 q-154.5 155 -268.5 366 q-102 189 -158 388 q-94 -422 -387 -715 q-175 -174 -404 -279 q-26 -11 -47 -11 q-43 0 -71 28 q-27 27 -27 73 q0 54 66 92 l0 0 q680 369 740 1161 q10 135 10 243 l-2 108 q0 49 29 78 q27 27 72 27 q48 0 75.5 -27.5 q27.5 -27.5 27.5 -71.5 q0 -118 -8 -255 q0 -5 -4 -36.5 q-4 -31.5 -4 -42.5 q0 -11 4 -30 q48 -236 153 -455 q105 -219 263 -392 q158 -172 355 -263 Z" /><glyph glyph-name="uni4EC0" unicode="&#x4ec0;" d="M1433 805 l0 -895 q0 -50 -3.5 -75 q-3.5 -25 -11.5 -33 q-5 -5 -12 -5 l-142 0 q-7 0 -12 5 q-15 15 -15 108 l0 895 l-453 0 q-62 0 -92 -13 l-15 -7 l0 115 q0 44 24 68 q27 27 83 27 l453 0 l0 527 q0 58 14 71 q5 6 13 6 l142 0 q8 0 13 -5 q5 -5 7 -10 q7 -18 7 -62 l0 -527 l405 0 q62 0 92 13 l15 7 l0 -115 q0 -44 -24 -68 q-27 -27 -83 -27 l-405 0 ZM591 -94 q0 -48 -3.5 -72 q-3.5 -24 -11.5 -32 q-5 -5 -12 -5 l-130 0 q-7 0 -11 4.5 q-4 4.5 -7 9.5 q-9 20 -9 95 l0 912 q-76 -128 -137 -197 q-37 -42 -82 -42 q-34 0 -62 25 q-27 27 -27 62 q0 40 28 75 q247 305 451 827 q11 29 28 46 q25 25 62 25 q54 0 82 -28 q23 -23 23 -59 q0 -71 -182 -411 l0 -1235 Z" /><glyph glyph-name="uni4ECA" unicode="&#x4eca;" d="M1192.5 -77 q11.5 29 22.5 53 q11 24 15 36 q145 318 174 392 q3 7 3 13.5 q0 6.5 0 8.5 q-3 11 -27 11 l-982 0 q-51 0 -80 -18 l-17 -11 l0 118 q0 40 22 62 q25 25 75 25 l1062 0 q114 0 159 -45 q28 -28 28 -72 q0 -56 -111.5 -306.5 q-111.5 -250.5 -154.5 -315.5 q-47 -71 -105 -71 q-52 0 -77 26 q-18 17 -18 41 q0 24 11.5 53 ZM1850 813 q-101 0 -353 163 l0 -66 q0 -38 -22 -60 q-27 -27 -85 -27 l-746 0 q-65 0 -95 -17 l-16 -9 l0 117 q0 36 21 57 q28 28 90 28 l746 0 q36 0 62 7 q-250 166 -440 379 q-131 -151 -285 -277 q-175 -147 -328 -232 q-86 -48 -135 -71.5 q-49 -23.5 -74 -23.5 q-40 0 -62 22 q-25 25 -25 75 q0 67 108 120 q398 193 680 547 l70 96 q32 40 77 40 q24 0 42 -9 q39 -15 54 -44 q7 -14 7 -27 q0 -24 -13 -48 q-8 -15 -13 -23 q348 -370 737 -504 q93 -32 93 -110 q0 -53 -25 -78 q-25 -25 -70 -25 Z" /><glyph glyph-name="uni4ECB" unicode="&#x4ecb;" d="M1299 -98 l0 894 q0 44 7 62 q4 10 13 13 q3 2 7 2 l138 0 q8 0 13 -5 q5 -5 7 -10.5 q2 -5.5 4 -13.5 q3 -17 3 -48 l0 -894 q0 -44 -3.5 -67 q-3.5 -23 -11.5 -31 q-5 -5 -12 -5 l-116 0 l0 22 l-7 -3 l-2 -9 q-3 4 -15 18 q-25 27 -25 75 ZM260 -191 q-44 0 -67.5 23.5 q-23.5 23.5 -23.5 67.5 q0 60 53 92 q127 73 204 153 q153 165 153 513 l-2 138 q0 52 28 80 q25 25 66.5 25 q41.5 0 63.5 -23 q26 -25 26 -78 l-2 -174 q-5 -394 -177 -597 q-93 -109 -175 -164.5 q-82 -55.5 -147 -55.5 ZM105 826 q0 45 72 96 q23 16 54 34 q385 222 638 571 q81 110 147 110 q78 0 95 -43 q4 -11 4 -25 q0 -14 -14 -45 q291 -339 760 -560 q82 -37 82 -104 q0 -86 -67 -103 q-15 -4 -34 -4 q-85 0 -374 202 q-277 193 -458 422 l-8 8 q-258 -310 -471 -472 q-226 -169 -312 -188 q-11 -2 -21 -2 q-43 0 -67 24 q-26 26 -26 79 Z" /><glyph glyph-name="uni4ECE" unicode="&#x4ece;" d="M105 6 q0 36 42 91 l0 0 q292 365 292 1221 l0 198 q0 52 24.5 76.5 q24.5 24.5 68.5 24.5 q44 0 68 -24 q27 -27 27 -81 q0 -280 -22 -574 q165 -182 296 -347 q94 -119 119 -178 q7 -17 7 -27 q0 -47 -25 -72 q-25 -25 -74 -25 q-25 0 -55 30 q-30 30 -66 89 q-46 77 -222 321 q-47 -313 -163 -560 q-73 -155 -136 -218 q-44 -44 -84 -44 q-47 0 -72 25 q-25 25 -25 74 ZM735 -82 q0 26 21 54 q20 28 54 51 q275 196 396 489 q115 280 115 922 q-2 69 -2 78 q0 9 2 24 q4 32 21 55 l8 8 q26 26 70 26 q63 0 84 -44 q11 -22 11 -53 l-28 -565 l20 -109 q101 -489 389 -813 q47 -51 47 -93 q0 -57 -28 -84 q-24 -25 -69 -25 q-16 0 -33 10 q-62 38 -168 211 q-128 206 -217 537 q-103 -399 -397 -655 q-143 -125 -209 -125 q-39 0 -61 22 q-26 26 -26 79 Z" /><glyph glyph-name="uni4ED4" unicode="&#x4ed4;" d="M1945 706 q0 -53 -40 -76 q-26 -15 -71 -15 l-431 0 l0 -569 q0 -125 -58 -180 q-65 -59 -173 -59 l-132 0 q-62 0 -92 -11 l-15 -6 l0 114 q0 45 25 70 q27 27 82 27 l98 0 q41 0 60 19 q19 19 19 56 q0 2 0 4 l0 535 l-493 0 q-61 0 -91 -17 l-16 -9 l0 117 q0 42 24 66 q27 27 83 27 l493 0 l0 171 q0 77 20 106 q19 28 123 93 q175 109 219 143 q21 17 26 25 l0 3 q0 4 -2.5 6.5 q-2.5 2.5 -12.5 2.5 l-732 0 q-59 0 -88 -18 l-17 -11 l0 118 q0 41 23 64 q27 27 82 27 l878 0 q142 0 157 -90 q2 -10 2 -21 q0 -47 -109 -141 q-109 -94 -320 -226 q-59 -39 -63 -105 l0 -147 l431 0 q65 0 95 15 l16 8 l0 -116 ZM1605 1337 l0 -1 l0 1 ZM182 577 q-37 0 -58 21 q-25 25 -25 80 q0 41 72 148 q193 297 327 707 q23 74 62 97 q19 11 39.5 11 q20.5 0 35.5 -3 q52 -9 66 -51 q6 -15 6 -35 q0 -34 -55 -162 l-99 -218 l0 -1270 q0 -48 -3 -66.5 q-3 -18.5 -5 -25.5 q-2 -7 -7 -12 q-5 -5 -12 -5 l-130 0 q-7 0 -12 5 q-15 15 -15 104 l0 906 q-38 -67 -72 -120 q-54 -81 -91 -104 q-12 -7 -24 -7 Z" /><glyph glyph-name="uni4ED6" unicode="&#x4ed6;" d="M807 807 q-138 -44 -159 -44 q-34 0 -53 19 q-22 22 -22 66 q0 66 86 93 l148 45 l0 366 q0 47 3.5 70.5 q3.5 23.5 11.5 31.5 q5 5 12 5 l128 0 q7 0 11 -4.5 q4 -4.5 7 -8.5 q9 -21 9 -94 l0 -311 l216 69 l0 422 q0 47 3 65 q3 18 5 25 q2 7 7 12 q5 5 12 5 l124 0 q7 0 12 -5 q15 -15 15 -102 l0 -367 l228 68 q57 18 85 18 q67 0 105 -38 q46 -46 46 -145 l0 -412 q0 -162 -80 -242 q-77 -77 -227 -77 q-51 0 -77 26 q-26 26 -26 75 q0 54 39 77 q26 15 68 16 q85 4 98 28 q17 30 17 103 l0 338 q0 29 -12 41 q-10 10 -30 10 l-22 -4 l-212 -63 l0 -722 q0 -75 -9 -95 q-7 -14 -18 -14 l-124 0 q-7 0 -12 5 q-5 5 -7 12 q-2 7 -4 20 q-4 24 -4 72 l0 667 l-216 -67 l0 -750 q0 -35 21 -56 q21 -21 60 -23 q160 -6 302 -6 q142 0 194 2 q122 4 152 35 q25 25 29 89 q5 83 40 118 q24 24 61 24 q48 0 73.5 -25.5 q25.5 -25.5 25.5 -77.5 q-1 -252 -137 -306 q-78 -31 -372 -35 l-98 0 q-146 0 -295 6 q-138 7 -191 59 q-47 47 -47 136 l0 755 ZM553 1190 l0 -1288 q0 -47 -3.5 -70.5 q-3.5 -23.5 -11.5 -31.5 q-6 -5 -12 -5 l-126 0 q-7 0 -12 5 q-5 5 -7 12 q-2 7 -4 19 q-4 24 -4 71 l0 924 q-76 -126 -136 -203 q-29 -40 -67 -40 q-32 0 -61 29 q-24 24 -24 56 q0 27 18 54 q107 163 196 343.5 q89 180.5 211 500.5 q12 34 31 53 q26 26 63 26 q48 0 71 -24 q22 -21 22 -62 q0 -41 -144 -369 Z" /><glyph glyph-name="uni4EE3" unicode="&#x4ee3;" d="M1425 1466 q0 35 20 55 q24 24 77 24 q24 0 56 -27 q29 -24 78 -74 q70 -75 86 -113 q5 -11 5 -21 q0 -39 -22 -60 q-24 -25 -75 -25 q-23 0 -53 23 q-36 28 -86 91 q-14 19 -28 36 q-14 17 -19.5 24 q-5.5 7 -10.5 13 q-28 37 -28 54 ZM1939 254 q0 -172 -51 -304 q-48 -129 -144 -129 q-100 0 -199 78 q-97 77 -204 235 q-207 309 -263 784 q-283 -30 -301 -32 q-18 -2 -27.5 -3.5 q-9.5 -1.5 -16 -2 q-6.5 -0.5 -13 -1 q-6.5 -0.5 -12.5 -1 q-6 -0.5 -12 -0.5 q-12 -1 -24 -1 q-56 0 -74 32 q-11 20 -11 55 q0 74 92 83 l308 28 q24 4 75 7 q-19 216 -21 462 q0 47 24 71 q24 24 67 24 q48 0 72 -24 q23 -23 23 -65 l0 -100 q0 -184 13 -350 l263 23 l304 26 q11 1 23 1 q46 0 67 -21 q20 -20 20 -63 q0 -31 -20 -51 q-24 -24 -74 -30 l-56 -6 q-30 -4 -94 -8 l-417 -35 q32 -279 115 -486 q84 -210 218 -334 q46 -40 72.5 -55.5 q26.5 -15.5 38.5 -15.5 q9 0 15 3.5 q6 3.5 10 7.5 q41 41 50 213 q4 59 46 73 q15 5 33 5 q45 0 65 -23 q20 -22 20 -70 ZM702 1570 q1 -9 1 -17.5 q0 -8.5 -2 -19 q-2 -10.5 -6 -23.5 q-28 -92 -148 -339 l0 -1267 q0 -44 -7 -62 q-2 -5 -7 -10 q-5 -5 -13 -5 l-122 0 q-8 0 -13 5 q-5 5 -7 10.5 q-2 5.5 -4 13.5 q-3 17 -3 48 l0 918 l-40 -66 q-65 -108 -100 -144 q-31 -31 -59 -31 q-28 0 -46 18 l-7 7 q-18 24 -18 58.5 q0 34.5 12 59.5 q14 28 40 70 q215 337 347 739 q17 55 42.5 80.5 q25.5 25.5 57.5 25.5 q91 0 102 -69 Z" /><glyph glyph-name="uni4EE4" unicode="&#x4ee4;" d="M1734 500 q0 -11 -1 -22 l0 -280 q0 -144 -96.5 -214.5 q-96.5 -70.5 -286.5 -70.5 q-69 0 -100 31 q-25 25 -25 66 q0 50 35 73 q32 22 95 26 l0 0 q120 6 152 31 q32 25 32 90 l0 188 q0 28 -14.5 42.5 q-14.5 14.5 -44.5 16.5 l-531 0 l0 -569 q0 -44 -7 -62 q-2 -5 -7 -10 q-5 -5 -13 -5 l-134 0 q-8 0 -14 6 q-13 13 -13 71 l0 569 l-405 0 q-63 0 -93 -17 l-16 -9 l0 117 q0 50 38 72 q26 15 71 15 l1200 0 q98 0 141 -43 q37 -37 37 -112 ZM1846 867 q-81 0 -311 133 l0 -74 q0 -38 -22 -60 q-27 -27 -87 -27 l-802 0 q-65 0 -94 -20 l-17 -12 l0 119 q0 39 22 61 q28 28 89 28 l802 0 q42 0 69 8 q-4 3 -9 6 q-264 160 -483 374 q-220 -236 -469 -394 q-180 -115 -265 -149 q-46 -19 -77 -19 q-41 0 -64 23 q-25 25 -25 76 q0 57 94 102 l0 0 q426 195 701 523 q43 52 79 73 q23 13 45 13 q57 0 82 -38 q13 -21 13 -49 l0 -1 l-7 -27 q323 -298 744 -462 q91 -34 91 -98 q0 -56 -28 -84 q-25 -25 -71 -25 Z" /><glyph glyph-name="uni4EE5" unicode="&#x4ee5;" d="M789 1418 q0 45 24 68 q24 25 73 25 q29 0 82.5 -28 q53.5 -28 126.5 -84 q94 -71 144 -127 q50 -56 54 -89 q1 -8 1 -18.5 q0 -10.5 -4 -25.5 q-4 -19 -19 -34 q-22 -22 -61 -22 q-54 0 -123 61 q-72 61 -144 117 q-16 12 -58 45 q-53 40 -74.5 65 q-21.5 25 -21.5 47 ZM202 -39 q-44 0 -68.5 24.5 q-24.5 24.5 -24.5 74.5 q0 43 59 85 q28 19 67 37 q40 20 80 39 l-10 577 q-12 617 -12 618 q0 87 57 107 q17 6 38 6 q43 0 67 -24 l7 -7 q23 -30 25 -92 l0 0 q8 -380 10 -570 q6 -256 12 -511 q304 172 506 326 q124 92 153 92 q45 0 66 -21 q21 -21 21 -64 q0 -17 -14 -40 q-26 -43 -110 -113 q-121 -102 -351 -244 q-245 -151 -387 -225.5 q-142 -74.5 -191 -74.5 ZM1939 -42 q0 -53 -28 -77 q-27 -24 -81 -24 q-51 0 -127 98 q-88 112 -212 225 q-119 -142 -344 -248 q-215 -101 -371 -101 q-41 0 -64 23 q-23 23 -23 72 q0 31 23 55 q33 33 114 48 q267 53 445 198 q169 137 230 376 q64 248 64 707 q0 32 -2 62 l-2 60 q0 59 28 87 q24 24 65 24 q54 0 78 -40 q23 -38 23 -115 q0 -762 -155 -1050 q240 -208 309 -310 q30 -43 30 -70 Z" /><glyph glyph-name="uni4EF6" unicode="&#x4ef6;" d="M1951 540 q0 -38 -22 -60 q-27 -27 -87 -27 l-437 0 l0 -543 q0 -83 -11 -102 q-6 -11 -16 -11 l-136 0 q-7 0 -12 5 q-15 15 -15 108 l0 543 l-491 0 q-61 0 -90 -18 l-17 -11 l0 118 q0 40 23 62 q26 27 84 27 l491 0 l0 416 l-318 0 q-62 -158 -118 -251 q-33 -55 -87 -55 q-27 0 -48 14 q-43 25 -43 63 q0 31 29 85 q116 219 181 495 q13 56 38.5 81.5 q25.5 25.5 60.5 25.5 q46 0 72 -23 l4 -3 q23 -23 23 -61 q0 -16 -3.5 -33 q-3.5 -17 -4.5 -24 q-16 -69 -41 -136 l255 0 l0 315 q0 63 9 82 q6 13 18 13 l136 0 q12 0 18 -13 q9 -19 9 -82 l0 -315 l387 0 q59 0 89 17 l16 9 l0 -117 q0 -39 -22 -61 q-26 -26 -83 -26 l-387 0 l0 -416 l437 0 q63 0 93 17 l16 9 l0 -117 ZM523 1619 q13 9 27 13.5 q14 4.5 27 4.5 q14 0 31 -4 q67 -16 67 -81 q0 -19 -7 -44 q-13 -49 -52 -152 q-39 -103 -91 -214 l0 -1228 q0 -50 -3.5 -75 q-3.5 -25 -11.5 -33 q-5 -5 -12 -5 l-132 0 q-10 0 -16 11 q-11 19 -11 102 l0 876 q-64 -99 -90 -128 q-35 -39 -69 -39 q-26 0 -50 18 q-37 25 -37 63 q0 34 26 68 q92 136 144 231 q131 237 224 562 q9 36 36 54 Z" /><glyph glyph-name="uni4EF7" unicode="&#x4ef7;" d="M1602 885 q3 -26 3 -73 l0 -914 q0 -45 -2.5 -63 q-2.5 -18 -5 -25 q-2.5 -7 -7.5 -12 q-5 -5 -12 -5 l-136 0 q-18 0 -23 35 q-4 25 -4 70 l0 914 q0 76 8 100 q6 17 19 17 l114 0 q-23 22 -39 38 q-188 188 -291 375 q-166 -284 -324 -446 q-103 -105 -172 -149 q-53 -34 -88 -34 q-41 0 -63 23 q-26 25 -26 78 q0 33 36 70 q16 15 38 33 q352 268 499 655 q26 69 94 69 q109 0 109 -77 q0 -19 -16 -52 q220 -364 573 -577 q19 -11 33 -25 q30 -31 30 -68 q0 -64 -41 -89 q-23 -14 -58 -14 q-87 0 -248 146 ZM599 -86 q0 41 104 127 q94 76 145 201 q47 118 57 370 l2 200 q0 117 95 117 q41 0 65 -24 q30 -30 30 -97 l-4 -218 q-6 -382 -172 -603 q-93 -121 -159 -161 q-32 -19 -58 -19 q-52 0 -78.5 26.5 q-26.5 26.5 -26.5 80.5 ZM729 1556 q0 -56 -196 -461 l0 -1195 q0 -47 -3.5 -70.5 q-3.5 -23.5 -11.5 -31.5 q-5 -5 -12 -5 l-126 0 q-9 0 -15 9 q-12 17 -12 98 l0 866 q-93 -152 -144 -183 q-13 -8 -25 -8 q-38 0 -59 22 q-26 25 -26 81 q0 44 54 113 q229 294 365 732 q28 89 79 111 q17 7 35 7 q51 0 75 -25 q22 -21 22 -60 Z" /><glyph glyph-name="uni4EFB" unicode="&#x4efb;" d="M681 -20 q0 45 25 70 q25 25 76 25 l403 0 l0 600 l-447 0 q-66 0 -96 -13 l-15 -7 l0 115 q0 42 24 65 q27 28 87 28 l447 0 l0 439 l-396 -43 q-7 -1 -14 -1 q-40 0 -64 24 q-24 24 -24 67 q0 85 96 98 l166 18 q380 43 583 87 q83 19 160 41 l49 8 l1 0 q62 0 84 -45 q11 -23 11 -56 q0 -51 -54 -78 q-31 -16 -139.5 -40 q-108.5 -24 -264.5 -49 l0 -470 l447 0 q69 0 99 15 l16 8 l0 -116 q0 -42 -24 -66 q-29 -29 -91 -29 l-447 0 l0 -600 l409 0 q58 0 88 13 l15 7 l0 -115 q0 -43 -24 -67 q-26 -26 -79 -26 l-1006 0 q-55 0 -85 -15 l-16 -8 l0 116 ZM551 -98 q0 -48 -3 -66.5 q-3 -18.5 -5 -25.5 q-2 -7 -7 -12 q-5 -5 -12 -5 l-130 0 q-7 0 -12 5 q-5 5 -7 12 q-2 7 -5 25.5 q-3 18.5 -3 66.5 l0 896 q-74 -138 -125 -189 q-33 -32 -58 -32 q-38 0 -59 22 q-26 25 -26 81 q0 33 66 140 q199 317 331 713 q17 56 43 82 q26 26 61 26 q58 0 84 -27 q23 -22 23 -62 q0 -34 -156 -380 l0 -1270 Z" /><glyph glyph-name="uni4EFD" unicode="&#x4efd;" d="M1737 727 q26 -35 26 -88 q0 -5 -18 -336 q-14 -279 -88 -381 q-69 -99 -329 -99 q-57 0 -85 28 q-24 24 -24 67 q0 48 41 75 q39 26 108 28 q106 3 142 39 q10 10 13 23 q46 159 46 465 q0 34 -15.5 49.5 q-15.5 15.5 -47.5 15.5 l-284 0 q-13 -247 -80 -411 q-71 -169 -226 -279 q-79 -56 -137.5 -84 q-58.5 -28 -101 -28 q-42.5 0 -65.5 23 q-23 23 -23 68 q0 57 83 90 q355 142 365 621 l-157 0 q-40 0 -69 -22 l-18 -13 l0 120 q0 42 23 65 q24 24 72 24 l688 0 q86 0 133 -34 q-52 55 -110 147 q-154 244 -176 445 q-7 47 -39 59 q-11 5 -26 5 l-102 0 q-61 0 -90 -18 l-17 -11 l0 118 q0 56 45 77 q24 12 62 12 l156 0 q93 0 136.5 -44 q43.5 -44 54.5 -136 l0 0 q24 -232 156 -408 q64 -84 150 -152 q44 -33 44 -78.5 q0 -45.5 -25 -70.5 q-25 -25 -77.5 -25 q-52.5 0 -113.5 54 ZM595 772 q0 17 11 38 q11 21 32 42 q124 124 226 431 q17 56 42 80 q23 24 58 24 q74 0 92 -49 q5 -14 5 -32 q0 -91 -141 -353 q-85 -161 -150 -225 q-45 -45 -82 -45 q-47 0 -70 24 q-23 22 -23 65 ZM553 -96 q0 -48 -3 -66.5 q-3 -18.5 -5 -25.5 q-2 -7 -7 -12 q-5 -5 -12 -5 l-128 0 q-7 0 -12 5 q-15 15 -15 104 l0 913 q-68 -119 -108 -172 q-48 -62 -84 -62 q-39 0 -60 21 q-20 20 -20 56 q0 25 24.5 71.5 q24.5 46.5 79.5 132.5 q89 141 177 325 q74 155 146 364 q11 36 32 57 q29 29 74 29 q57 0 79 -36 q12 -20 12 -51.5 q0 -31.5 -49 -138.5 q-40 -90 -50.5 -114.5 q-10.5 -24.5 -16.5 -37.5 q-6 -13 -11.5 -25 q-5.5 -12 -10 -22.5 q-4.5 -10.5 -8.5 -20 q-4 -9.5 -8 -17.5 q-10 -21 -16 -33 l0 -1239 Z" /><glyph glyph-name="uni4F18" unicode="&#x4f18;" d="M1304 826 q5 5 12 5 l132 0 q7 0 12 -5 q15 -15 15 -104 l0 -620 q0 -45 15 -58 q4 -5 25.5 -9 q21.5 -4 68.5 -4 q112 0 147 12 q10 3 13 6 q5 6 9.5 28.5 q4.5 22.5 5.5 70.5 l0 1 q4 75 36 107 q23 23 59 23 q43 -1 67 -24 q28 -28 28 -85 q0 -211 -73 -278 q-48 -45 -324 -45 q-141 0 -193 23 q-66 31 -70 130 l0 0 l0 722 q0 12 0 22 q-87 -443 -328 -741 q-97 -118 -161 -159 q-33 -21 -60 -21 q-49 0 -75 26 q-26 26 -26 77 q0 17 18 44 q24 36 90 98 q329 306 393 961 l-346 0 q-65 0 -95 -17 l-16 -9 l0 117 q0 43 24 67 q28 28 87 28 l362 0 q7 95 7 315 q0 98 78 109 q10 2 21 2 q47 0 71 -24 q24 -24 24 -69 l-16 -333 l471 0 q66 0 96 13 l15 7 l0 -115 q0 -40 -23 -63 q-28 -28 -88 -28 l-484 0 q-8 -105 -24 -203 ZM1608 1559 q17 0 44 -16 q34 -20 80.5 -70 q46.5 -50 64.5 -80 q18 -30 18 -49 q0 -41 -23 -64 q-25 -25 -76 -25 q-50 0 -95 60 q-49 67 -87 105 q-25 26 -25 52 q0 56 42 76 q22 11 57 11 ZM563 -96 q0 -49 -3.5 -73.5 q-3.5 -24.5 -11.5 -32.5 q-5 -5 -12 -5 l-132 0 q-7 0 -12 5 q-8 8 -11.5 32.5 q-3.5 24.5 -3.5 73.5 l0 905 q-113 -191 -170 -226 q-13 -8 -25 -8 q-38 0 -59 22 q-26 25 -26 81 q0 44 58 117 q227 296 363 728 q27 88 80 110 q18 8 36 8 q18 0 31 -2 q27 -6 43 -22 q21 -21 21 -59 q0 -28 -37 -121 q-37 -93 -129 -282 l0 -1251 Z" /><glyph glyph-name="uni4F19" unicode="&#x4f19;" d="M1598 839 q62 129 93 277 q13 57 41.5 86 q28.5 29 71.5 29 q47 0 70 -24 q23 -22 23 -65 q0 -37 -33 -140 q-16 -50 -42 -120 q-53 -145 -99 -191 q-24 -24 -47 -24 q-56 0 -82 26 q-21 21 -21 55 q0 34 25 91 ZM886 627 q-97 0 -97 88 q0 21 15 59 q59 165 83 355 q7 53 31.5 77.5 q24.5 24.5 61.5 24.5 q45 0 67 -22.5 q22 -22.5 22 -56.5 q0 -4 -2 -28.5 q-2 -24.5 -8 -70 q-6 -45.5 -14 -89.5 q-18 -104 -38.5 -179 q-20.5 -75 -32.5 -98 q-29 -60 -88 -60 ZM705 -152 q-26 37 -26 71 q0 56 72 93 q185 93 298 262.5 q113 169.5 154 403.5 q38 219 38 636 l-4 190 q0 70 31 101 q24 24 66 24 q62 0 86 -53 q13 -29 13 -74 l0 -220 q0 -208 -24 -465 q50 -252 166 -445 q117 -194 299 -323 q77 -53 77 -119 q0 -48 -29.5 -77.5 q-29.5 -29.5 -75.5 -29.5 q-46 0 -117 52 q-69 51 -146 146 q-150 189 -236 458 q-46 -176 -128 -311 q-85 -140 -238 -251 q-139 -102 -203 -102 q-50 0 -73 33 ZM595 -94 q0 -50 -3.5 -75 q-3.5 -25 -11.5 -33 q-5 -5 -12 -5 l-138 0 q-7 0 -12 5 q-8 8 -11.5 33 q-3.5 25 -3.5 75 l0 895 q-84 -135 -140 -191 q-43 -43 -73 -43 q-43 0 -67 24 q-24 24 -24 75 q0 44 44 101 l0 0 q227 279 431 801 q29 73 98 73 q72 0 95 -44 q10 -20 10 -47 q0 -42 -55 -172 q-54 -128 -127 -241 l0 -1231 Z" /><glyph glyph-name="uni4F1A" unicode="&#x4f1a;" d="M1844 829 q-88 0 -285 119 l0 -44 q0 -37 -21 -59 q-27 -26 -84 -26 l-872 0 q-58 0 -87 -22 l-18 -13 l0 120 q0 19 5 35 q-74 -49 -134 -81 q-101 -53 -154 -53 q-42 0 -65 23 q-26 26 -26 80 q0 29 35.5 57 q35.5 28 102.5 63 l0 0 q406 199 632 497 q88 114 153 114 q77 0 94 -49 q5 -13 5 -27 q0 -14 -3 -24.5 q-3 -10.5 -4 -22.5 q372 -345 734 -478 q93 -32 93 -102 q0 -36 -31 -71 q-31 -36 -70 -36 ZM1301.5 282 q-2.5 5 -3.5 10.5 q-1 5.5 -1 12.5 q0 7 1 14.5 q1 7.5 4 13.5 q4 14 14 23 q23 23 70 23 q13 0 24 -4 q18 -7 35 -18 q43 -26 105 -85 q267 -259 313 -345 q10 -20 10 -33 q0 -40 -23 -62 q-26 -27 -82 -27 q-57 0 -119 80 l-60 76 l-1278 -116 q-7 -1 -19.5 -1 q-12.5 0 -30.5 5 q-19 6 -35 21 q-27 27 -27 76 q0 37 22 59 q32 32 107 32 q81 3 161 6 l18 1 l11 24 q88 151 174 350 l5 19 l-455 0 q-29 0 -58 -29 l-19 -19 l0 125 q0 81 53 96 q11 3 24 3 l1564 0 q29 0 58 29 l19 19 l0 -125 q0 -55 -25 -80 q-19 -19 -52 -19 l-889 0 q-12 -27 -35 -68 l-26 -48 q-64 -124 -97 -184 q-33 -60 -45 -82 l744 56 l-122 126 q-21 22 -26.5 31 q-5.5 9 -8 14 ZM1487 993 q-267 173 -477 398 q-152 -182 -426 -382 q-13 -10 -26 -19 q9 1 20 1 l876 0 q18 0 33 2 Z" /><glyph glyph-name="uni4F34" unicode="&#x4f34;" d="M713 1416 q0 41 22 63 q24 24 73 24 q59 0 104 -103 q87 -201 96 -248 q1 -7 1 -12 q0 -44 -24.5 -68.5 q-24.5 -24.5 -74.5 -24.5 q-66 0 -98 103 l-93 234 l-6 31 l0 1 ZM1517 1134 q0 11 2 19 q7 30 39 97 l70 178 q31 77 96 77 q50 0 75 -25 q22 -22 22 -62 q0 -42 -89 -248 q-29 -66 -58.5 -95.5 q-29.5 -29.5 -59.5 -29.5 q-65 0 -87 43 q-10 21 -10 46 ZM1939 422 q0 -43 -28.5 -66 q-28.5 -23 -78.5 -23 l-471 0 l0 -441 q0 -42 -3.5 -64 q-3.5 -22 -11.5 -30 q-5 -5 -12 -5 l-140 0 q-18 0 -23 34 q-4 23 -4 65 l0 441 l-469 0 q-61 0 -90 -18 l-17 -11 l0 118 q0 41 23 64 q27 27 84 27 l469 0 l0 272 l-393 0 q-61 0 -91 -17 l-16 -9 l0 117 q0 40 23 62 q26 27 84 27 l393 0 l0 575 q0 42 3.5 64 q3.5 22 11.5 30 q5 5 12 5 l140 0 q18 0 23 -34 q4 -23 4 -65 l0 -575 l387 0 q29 0 58 29 l19 19 l0 -125 q0 -58 -26 -84 q-19 -19 -51 -19 l-387 0 l0 -272 l471 0 q55 0 83 -28 q24 -24 24 -63 ZM681 1556 q0 -56 -142 -378 l0 -1276 q0 -48 -3.5 -72 q-3.5 -24 -11.5 -32 q-5 -5 -12 -5 l-126 0 q-7 0 -12 5 q-15 15 -15 104 l0 904 q-41 -74 -76 -130 q-35 -56 -62 -83 q-20 -20 -34 -20 q-14 0 -25 2 q-23 5 -37 20 q-26 26 -26 79 q0 37 30 84 q217 339 362 809 q10 31 28 50 q24 24 63 24 q52 0 77 -25 q22 -22 22 -60 Z" /><glyph glyph-name="uni4F46" unicode="&#x4f46;" d="M601 -42 q0 59 46 81 q25 12 63 12 l1128 0 q65 0 95 15 l16 8 l0 -116 q0 -40 -23 -63 q-28 -28 -88 -28 l-1128 0 q-63 0 -93 -17 l-16 -9 l0 117 ZM967 817 l0 -303 q0 -39 18 -57 q18 -18 55 -18 l490 0 q37 0 55 18 q18 18 18 57 l0 303 l-636 0 ZM1603 1282 q0 51 -32 67 q-16 8 -41 8 l-490 0 q-38 0 -55.5 -17.5 q-17.5 -17.5 -17.5 -53.5 q0 -2 0 -4 l0 -289 l636 0 l0 289 ZM776 424 q0 14 1 28 l0 892 q0 109 49 157 q41 41 120 41 q14 0 28 -1 l622 0 q107 0 155 -49 q43 -42 43 -126 q0 -11 -1 -22 l0 -892 q0 -107 -49 -155 q-42 -43 -126 -43 q-11 0 -22 1 l-622 0 q-109 0 -157 49 q-41 41 -41 120 ZM686 1617 q21 -21 21 -60 q0 -39 -144 -369 l0 -1284 q0 -49 -3.5 -73.5 q-3.5 -24.5 -11.5 -32.5 q-5 -5 -12 -5 l-132 0 q-7 0 -12 5 q-8 8 -11.5 32.5 q-3.5 24.5 -3.5 73.5 l0 912 q-85 -155 -141 -211 q-30 -30 -52 -30 q-38 0 -59 22 q-26 25 -26 81 q0 37 54 116 q225 333 346 729 q18 61 46.5 89.5 q28.5 28.5 66.5 28.5 q50 0 74 -24 Z" /><glyph glyph-name="uni4F4D" unicode="&#x4f4d;" d="M777 872 q0 42 23.5 65.5 q23.5 23.5 67.5 23.5 q62 0 84 -65 q35 -101 63 -226 l74 -346 q10 -47 10 -64 q0 -45 -24 -69 q-24 -24 -73 -24 q-39 0 -63 24 q-17 17 -26 46 l-136 634 l0 1 ZM595 -16 q0 43 24 67 q24 24 75 24 l653 0 q53 214 85.5 362.5 q32.5 148.5 58.5 298.5 q5 21 8 54 q22 127 29.5 146.5 q7.5 19.5 17 29.5 q9.5 10 19.5 15 q20 10 46 10 q52 0 78 -27 q23 -24 23 -61 q0 -6 -1 -13 l-8 -46 q-60 -348 -179 -753 q-2 -8 -5 -16 l323 0 q55 0 85 17 l16 9 l0 -117 q0 -42 -23 -65 q-26 -26 -78 -26 l-1148 0 q-53 0 -83 -17 l-16 -9 l0 117 ZM629 1174 q0 41 23 64 q25 25 76 25 l423 0 l0 245 q0 77 8 102 q6 17 19 17 l136 0 q18 0 23 -38 q4 -28 4 -81 l0 -245 l467 0 q55 0 84 18 l17 11 l0 -118 q0 -10 -3 -28 q-6 -23 -19 -37 q-27 -26 -79 -26 l-1080 0 q-53 0 -83 -17 l-16 -9 l0 117 ZM541 -98 q0 -47 -3.5 -70.5 q-3.5 -23.5 -11.5 -31.5 q-5 -5 -12 -5 l-126 0 q-7 0 -12 5 q-8 8 -11.5 31.5 q-3.5 23.5 -3.5 70.5 l0 902 q-87 -153 -135 -201 q-24 -24 -42 -24 q-37 0 -58 21 q-25 25 -25 80 q0 33 68 144 q203 331 325 709 q17 56 42 81 q25 25 58 25 q57 0 83 -26 q22 -22 22 -62.5 q0 -40.5 -43.5 -148.5 q-43.5 -108 -114.5 -243 l0 -1257 Z" /><glyph glyph-name="uni4F4F" unicode="&#x4f4f;" d="M1945 -42 q0 -38 -22 -60 q-27 -27 -85 -27 l-1122 0 q-29 0 -58 -29 l-19 -19 l0 125 q0 77 48 94 q13 5 29 5 l475 0 l0 436 l-333 0 q-49 0 -78 -18 l-17 -11 l0 118 q0 42 23.5 65.5 q23.5 23.5 71.5 23.5 l333 0 l0 374 l-417 0 q-57 0 -86 -18 l-17 -11 l0 118 q0 40 23 63 q26 26 80 26 l1036 0 q63 0 92 18 l17 11 l0 -118 q0 -39 -22 -62 q-28 -27 -87 -27 l-427 0 l0 -374 l349 0 q49 0 78 18 l17 11 l0 -118 q0 -42 -23 -65 q-24 -24 -72 -24 l-349 0 l0 -436 l455 0 q61 0 90 18 l17 11 l0 -118 ZM1063 1534 q0 41 23 64 q25 25 76 25 q23 0 65 -25.5 q42 -25.5 114 -87.5 l80 -68 q64 -55 64 -98 q0 -47 -25 -71 q-25 -26 -76 -26 q-18 0 -45.5 16 q-27.5 16 -67.5 55 q-90 82 -162 140 q-46 39 -46 76 ZM184 577 q-38 0 -59 22 q-26 25 -26 81 q0 39 70 148 q203 327 327 705 q17 56 43 82 q26 26 61 26 q58 0 84 -27 q23 -22 23 -62 q0 -34 -55 -162 l-97 -216 l0 -1272 q0 -48 -3 -66.5 q-3 -18.5 -5 -25.5 q-2 -7 -7 -12 q-5 -5 -12 -5 l-132 0 q-7 0 -12 5 q-15 15 -15 104 l0 905 l-50 -73 q-79 -112 -96 -132 q-13 -14 -22 -19.5 q-9 -5.5 -17 -5.5 Z" /><glyph glyph-name="uni4F53" unicode="&#x4f53;" d="M1319 143 l0 -241 q0 -48 -3 -66.5 q-3 -18.5 -5 -25.5 q-2 -7 -6 -11 q-6 -6 -13 -6 l-126 0 q-7 0 -12 5 q-5 5 -7 12 q-2 7 -4 20 q-4 24 -4 72 l0 241 l-193 0 q-51 0 -80 -20 l-17 -12 l0 119 q0 42 23.5 65.5 q23.5 23.5 73.5 23.5 l193 0 l0 523 q-85 -226 -238 -448 q-98 -143 -159 -204 q-53 -53 -88 -53 q-74 0 -89 64 q-4 16 -4 31 q0 15 4 27 q4 12 11 25 q7 13 16 25 q18 25 46 56 q316 349 437 702 l-355 0 q-61 0 -91 -15 l-16 -8 l0 116 q0 41 23 64 q27 27 84 27 l419 0 l0 277 q0 50 3 69 q3 19 5 26.5 q2 7.5 7 12.5 q5 5 12 5 l126 0 q7 0 12 -5 q15 -15 15 -108 l0 -277 l483 0 q63 0 93 17 l16 9 l0 -117 q0 -42 -24 -65 q-27 -28 -85 -28 l-434 0 q151 -377 515 -717 q66 -59 66 -106 q0 -55 -26 -81 q-26 -26 -73 -26 q-41 0 -113 72 q-47 47 -108 125 l0 -104 q0 -41 -23 -64 q-23 -23 -70 -23 l-217 0 ZM1319 319 l217 0 q47 0 76 18 l10 6 q-198 253 -303 500 l0 -524 ZM699 1560 q0 -62 -156 -400 l0 -1258 q0 -48 -3.5 -72 q-3.5 -24 -11.5 -32 q-5 -5 -12 -5 l-130 0 q-7 0 -12 5 q-15 15 -15 104 l0 897 q-112 -199 -165 -216 q-6 -2 -15 -2 q-9 0 -19 2 q-21 5 -35 19 q-26 26 -26 82 q0 39 46 106 q211 303 329 687 q38 120 60 141 q23 23 68 23 q86 0 96 -64 q1 -8 1 -17 Z" /><glyph glyph-name="uni4F5C" unicode="&#x4f5c;" d="M1163 1552 q0 -41 -72 -201 l745 0 q29 0 58 29 l19 19 l0 -125 q0 -90 -62 -100 q-7 -1 -15 -1 l-493 0 l0 -272 l393 0 q59 0 88 18 l17 11 l0 -118 q0 -40 -23 -62 q-26 -27 -82 -27 l-393 0 l0 -274 l461 0 q61 0 90 18 l17 11 l0 -118 q0 -40 -23 -62 q-26 -27 -84 -27 l-461 0 l0 -365 q0 -50 -3 -69 q-3 -19 -5 -26.5 q-2 -7.5 -7 -12.5 q-5 -5 -12 -5 l-136 0 q-7 0 -12 5 q-15 15 -15 108 l0 1267 l-150 0 q-195 -372 -299 -372 q-57 0 -78 43 q-11 23 -11 57.5 q0 34.5 46 91.5 q88 107 165.5 251.5 q77.5 144.5 137.5 303.5 q32 85 100 85 q54 0 79 -25 q20 -20 20 -56 ZM367 802 q-123 -225 -183 -225 q-38 0 -59 22 q-26 25 -26 79 q0 41 72 148 q193 297 327 707 q23 74 62 97 q19 11 39.5 11 q20.5 0 35.5 -3 q52 -9 66 -51 q6 -15 6 -32 q0 -17 -8 -42 q-26 -88 -144 -337 l0 -1272 q0 -49 -3.5 -73.5 q-3.5 -24.5 -11.5 -32.5 q-5 -5 -12 -5 l-134 0 q-7 0 -12 5 q-8 8 -11.5 32.5 q-3.5 24.5 -3.5 73.5 l0 898 Z" /><glyph glyph-name="uni4F60" unicode="&#x4f60;" d="M1545 682 q0 3 0 7 l0 0 q2 29 29 47.5 q27 18.5 58 18.5 q51 0 76 -46 q5 -11 27.5 -67.5 q22.5 -56.5 31.5 -82.5 q20 -52 41 -113 q54 -153 73.5 -218.5 q19.5 -65.5 19.5 -97.5 q0 -43 -26.5 -68 q-26.5 -25 -70.5 -25 q-73 0 -107 122 q-99 353 -135 447 q-17 45 -17 76 ZM687 130 q0 22 10 45 q9 20 32 59 q119 202 182 445 q11 39 33 61.5 q22 22.5 58 22.5 q42 0 63 -21 q20 -20 20 -60 q0 -40 -24.5 -125 q-24.5 -85 -72.5 -199 q-103 -239 -145 -278 q-29 -27 -77 -27 q-39 0 -59 21.5 q-20 21.5 -20 55.5 ZM971 -118 q0 45 24 68 q24 25 73 25 l90 0 q36 0 53.5 17.5 q17.5 17.5 17.5 53.5 l0 1109 l-221 0 q-30 -79 -69 -153 q-59 -110 -90 -149 q-41 -52 -81 -52 q-45 0 -68 23 q-23 23 -23 68 q0 25 33.5 82 q33.5 57 62 112 q28.5 55 54 110.5 q25.5 55.5 47.5 111.5 q45 113 77 229 q14 48 39 73 q29 29 73.5 29 q44.5 0 66 -21.5 q21.5 -21.5 21.5 -59.5 q0 -38 -82 -231 l705 0 q81 0 121 -40 q28 -28 28 -69 q0 -15 -2 -25 q-17 -75 -81 -206 q-55 -117 -90 -152 q-26 -26 -56 -26 q-30 0 -57 23 l-6 5 q-22 22 -22 51 q0 19 9 35 q48 94 92 203 q3 11 3 14 q0 3 0 5 q-1 3 -3 5 q-5 5 -18 5 l-277 0 l0 -1141 q0 -119 -58 -170 q-55 -53 -171 -53 l-108 0 q-61 0 -91 -17 l-16 -9 l0 117 ZM541 -100 q0 -71 -9 -92 q-3 -4 -7 -8.5 q-4 -4.5 -11 -4.5 l-128 0 q-7 0 -12 5 q-5 5 -7.5 12 q-2.5 7 -3.5 19 q-4 24 -4 69 l0 903 q-78 -137 -139 -188 q-26 -22 -46 -22 q-42 0 -62 20 q-19 19 -19 67 q0 35 66 142 q189 303 329 712 q36 105 104 105 q57 0 83 -26 q22 -22 22 -61 q0 -20 -21 -80 q-13 -36 -26 -70 q-28 -70 -109 -231 l0 -1271 Z" /><glyph glyph-name="uni4F6C" unicode="&#x4f6c;" d="M641 1616 q22 -22 22 -58 q0 -17 -7 -43 q-24 -93 -133 -349 l0 -1268 q0 -45 -2.5 -63 q-2.5 -18 -5 -25 q-2.5 -7 -7.5 -12 q-5 -5 -12 -5 l-126 0 q-10 0 -16 11 q-11 18 -11 94 l0 878 q-102 -188 -150 -203 q-6 -2 -11 -2 q-35 0 -56 21 q-27 27 -27 88 q0 41 40 100 q181 269 322 763 q14 46 40 72 q26 26 63 26 q52 0 77 -25 ZM1564 -139 q-144 -4 -224 -4 q-80 0 -142 4 q-108 6 -132 10 q-66 12 -102 48 q-45 45 -45 125 l0 283 q-121 -87 -184.5 -123.5 q-63.5 -36.5 -96.5 -36.5 q-43 0 -66 23 q-23 23 -23 70 q0 55 80 96 q147 76 290 178 l0 128 q0 43 23 66 q23 23 68 23 q46 0 69 -23 q19 -20 21 -55 l15 11 l113 103 l-524 0 q-29 0 -58 -29 l-19 -19 l0 125 q0 52 24 76 q19 19 53 19 l367 0 l0 222 l-281 0 q-62 0 -91 -22 l-18 -13 l0 120 q0 38 22 60 q27 27 87 27 l281 0 l0 173 q0 58 14 71 q5 6 13 6 l124 0 q8 0 14 -6.5 q6 -6.5 9 -18.5 q4 -21 4 -52 l0 -173 l201 0 q65 0 94 20 l17 12 l0 -119 q0 -36 -21 -57 q-28 -28 -90 -28 l-201 0 l0 -222 l136 0 q197 233 307 460 q18 36 41 59 q29 29 63 29 q50 0 75 -25 q22 -22 22 -62 q0 -47 -80 -175 q-80 -128 -213 -286 l246 0 q63 0 92 20 l17 12 l0 -119 q0 -36 -21 -58 q-28 -27 -88 -27 l-391 0 q-128 -141 -326 -304 l-30 -22 l0 -66 q313 89 502 183 q48 25 83 25 q44 0 67.5 -23.5 q23.5 -23.5 23.5 -63.5 q0 -35 -23 -58 q-19 -19 -57 -36 q-205 -95 -596 -187 l0 -129 q0 -29 18 -47 q26 -27 94 -30 q87 -4 265 -4 q78 0 118.5 7 q40.5 7 55.5 17 q20 13 33 55 q11 35 16 87 q5 53 52 68 q18 6 41 6 q46 0 69.5 -23.5 q23.5 -23.5 23.5 -69.5 q0 -195 -68 -250 q-36 -30 -98 -43.5 q-62 -13.5 -155 -17.5 l0 0 Z" /><glyph glyph-name="uni4F7F" unicode="&#x4f7f;" d="M872 935 q-31 0 -45 -14 q-14 -14 -14 -41 q0 -2 0 -4 l0 -134 q0 -39 22 -52 q13 -7 33 -7 q2 0 4 0 l285 0 l6 252 l-291 0 ZM1697 876 q0 31 -14 45 q-14 14 -41 14 q-2 0 -4 0 l-297 0 l-10 -252 l307 0 q46 0 56 32 q3 10 3 23 q0 2 0 4 l0 134 ZM676 -193 q-45 0 -68 23 q-23 23 -23 69 q0 42 74 81 q37 19 80 33 q43 14 79 29 q97 39 162 90 q-154 118 -206 207 q-27 46 -27 83 q0 59 47 74 q15 5 36 5 q48 0 91 -67 q64 -99 169 -174 q44 99 60 259 l-318 0 q-13 -1 -25 -1 q-82 0 -124.5 42.5 q-42.5 42.5 -42.5 127.5 q0 11 1 22 l0 200 q0 132 74 173 q36 19 90 19 q13 0 27 -1 l331 0 l0 142 l-453 0 q-57 0 -86 -20 l-17 -12 l0 119 q0 38 22 59 q25 26 81 26 l453 0 l-2 127 q0 50 24.5 74.5 q24.5 24.5 66.5 24.5 q95 0 95 -119 l0 -107 l491 0 q58 0 87 22 l18 13 l0 -120 q0 -39 -22 -61 q-26 -26 -83 -26 l-493 0 l-2 -142 l337 0 q14 1 28 1 q104 0 142 -69 q20 -38 20 -95 q0 -14 -1 -28 l0 -200 q1 -15 1 -29 q0 -81 -41 -122 q-41 -41 -121 -41 q-14 0 -28 1 l-360 0 q-20 -220 -87 -342 q254 -117 616 -166 q75 -10 94 -61 q6 -16 6 -36 q0 -49 -25 -74 q-25 -25 -74 -25 q-112 0 -335 64 q-228 65 -387 155 q-64 -65 -155 -116 q-196 -111 -297 -111 ZM494 -207 l-124 0 q-10 0 -16 11 q-11 18 -11 94 l0 882 q-91 -167 -143 -198 q-12 -7 -24 -7 q-34 0 -53 19 q-24 24 -24 76 q0 37 44 112 q199 325 296 691 q31 118 51 139 q27 29 76.5 29 q49.5 0 73.5 -24 q21 -21 21 -57 q0 -22 -15 -70 l-125 -338 l0 -1254 q0 -45 -3.5 -68.5 q-3.5 -23.5 -11.5 -31.5 q-5 -5 -12 -5 Z" /><glyph glyph-name="uni4F8B" unicode="&#x4f8b;" d="M1446 205 q-41 0 -64 25.5 q-23 25.5 -23 69.5 l0 1016 q0 58 14 71 q5 6 13 6 l120 0 q8 0 13 -5 q5 -5 7 -10.5 q2 -5.5 4 -13.5 q3 -17 3 -48 l0 -1016 q0 -49 -23 -72 q-23 -23 -64 -23 ZM1331 1446 q0 -38 -22 -59 q-25 -26 -81 -26 l-249 0 l-42 -218 l203 0 q90 0 131 -41 q32 -32 32 -88 q0 -180 -105 -482 q-112 -324 -288 -502 q-95 -97 -174 -148 q-79 -51 -124 -51 q-31 0 -53 24.5 q-22 24.5 -22 52.5 q0 39 26 65 q10 10 25 20 q221 147 378 438 l-121 94 q-20 15 -29.5 24.5 q-9.5 9.5 -13.5 14 q-4 4.5 -7.5 9 q-3.5 4.5 -6 9 q-2.5 4.5 -5 9 q-2.5 4.5 -3.5 9.5 q-3 9 -3 18 q0 40 21.5 61.5 q21.5 21.5 63.5 21.5 q22 0 63.5 -25 q41.5 -25 109.5 -81 q73 266 76 337 q0 18 -9 27 q-12 12 -40 12 l-168 0 q-52 -171 -130 -320 q-50 -96 -92 -137 q-33 -33 -62 -33 q-39 0 -60 21 q-21 21 -21 64 q0 27 38 84 q81 129 144 316 q60 181 96 395 l-101 0 q-40 0 -69 -22 l-18 -13 l0 120 q0 44 23 67 q22 22 64 22 l522 0 q57 0 86 18 l17 11 l0 -118 ZM1875 1516 l0 -1480 q0 -126 -56 -181 q-48 -49 -147 -49 q-11 0 -22 1 l-110 0 q-57 0 -87 -15 l-16 -8 l0 116 q0 45 24 69 q26 26 77 26 l76 0 q43 0 61 18 q18 18 18 55 q0 4 0 8 l0 0 l0 1440 q0 75 12 92 q6 9 15 9 l128 0 q7 -1 12 -5 q15 -15 15 -96 ZM605 1562 q0 -41 -27.5 -133.5 q-27.5 -92.5 -82.5 -240.5 l0 -1288 q0 -49 -3 -68 q-3 -19 -5 -26 q-2 -7 -7 -12 q-5 -5 -12 -5 l-128 0 q-7 0 -12 5 q-8 8 -11.5 32.5 q-3.5 24.5 -3.5 73.5 l0 860 q-37 -112 -86 -161 q-26 -26 -51 -26 q-36 0 -56 20 q-23 23 -23 71 q0 20 12.5 50.5 q12.5 30.5 30.5 66.5 q184 367 271 764 q18 73 66 92 q16 6 37 6 q65 0 84 -43 q7 -16 7 -38 Z" /><glyph glyph-name="uni4F9B" unicode="&#x4f9b;" d="M1397 270 q0 38 21 59 q24 24 74 24 q58 0 109 -79 q40 -59 115 -134 q63 -63 132 -111 q85 -59 85 -111 q0 -70 -45 -92 q-21 -11 -52 -11 q-77 0 -258 189 q-100 107 -144 175 q-37 58 -37 91 ZM583 -84 q0 52 71 103 q108 77 225 257 q51 79 107 79 q47 0 69 -22 q22 -22 22 -61 q0 -29 -32 -84 q-44 -74 -139 -188 q-44 -54 -82 -91 q-90 -90 -144 -90 q-48 0 -72.5 24.5 q-24.5 24.5 -24.5 72.5 ZM1081 605 l334 0 l0 444 l-334 0 l0 -444 ZM577 512 q0 42 24 65 q27 28 87 28 l207 0 l0 444 l-165 0 q-61 0 -91 -15 l-16 -8 l0 116 q0 42 24 66 q27 27 83 27 l165 0 l0 285 q0 48 3.5 72 q3.5 24 11.5 32 q5 5 12 5 l132 0 q7 0 12 -5 q15 -15 15 -104 l0 -285 l334 0 l0 281 q0 50 3.5 75 q3.5 25 11.5 33 q5 5 12 5 l136 0 q7 0 12 -5 q15 -15 15 -108 l0 -281 l195 0 q63 0 93 15 l16 8 l0 -116 q0 -42 -24 -65 q-27 -28 -85 -28 l-195 0 l0 -444 l233 0 q65 0 95 15 l16 8 l0 -116 q0 -42 -24 -65 q-27 -28 -87 -28 l-1150 0 q-65 0 -95 -15 l-16 -8 l0 116 ZM527 -100 q0 -47 -4 -71 q-4 -23 -11 -31 q-5 -5 -12 -5 l-126 0 q-7 0 -12 5 q-5 5 -7 12 q-2 7 -5 25 q-3 18 -3 65 l0 884 q-75 -137 -121 -183 q-13 -13 -24 -19.5 q-11 -6.5 -22 -6.5 q-11 0 -21 2 q-19 5 -33 18 q-27 27 -27 89 q0 20 11.5 45.5 q11.5 25.5 38.5 66.5 q195 301 318 721 q32 104 90 121 q10 3 21 3 q91 0 102 -68 q1 -8 1 -20 q0 -25 -34.5 -118.5 q-34.5 -93.5 -119.5 -284.5 l0 -1250 Z" /><glyph glyph-name="uni4F9D" unicode="&#x4f9d;" d="M1949 -32 q0 -47 -26 -73 q-24 -24 -65 -24 q-40 0 -97 46 q-55 45 -139 142 q-164 187 -263.5 434 q-99.5 247 -151.5 546 q-40 -91 -128 -254 l0 -692 l291 94 l41 8 l1 0 q44 0 67.5 -23.5 q23.5 -23.5 23.5 -69.5 q0 -61 -71 -90 q-116 -46 -389 -130 q-108 -35 -180 -53 q-72 -18 -91 -18 q-49 0 -74 25 q-25 25 -25 72 q0 79 164 117 l64 17 l0 453 q-137 -195 -219 -246 q-28 -18 -52 -18 q-41 0 -64 23 q-25 25 -25 76 q0 12 4 21.5 q4 9.5 10 18.5 q15 26 57 66 q305 293 464 715 l-368 0 q-61 0 -90 -18 l-17 -11 l0 118 q0 55 44 75 q25 12 63 12 l425 0 l0 189 q0 77 8 102 q6 17 19 17 l142 0 q18 0 23 -38 q4 -28 4 -81 l0 -189 l489 0 q61 0 90 20 l17 12 l0 -119 q0 -40 -23 -62 q-26 -27 -84 -27 l-468 0 q32 -250 127 -503 q84 104 190 266 q45 69 99 69 q51 0 75 -24 q24 -24 24 -67 q0 -40 -77.5 -139 q-77.5 -99 -232.5 -263 q73 -155 175 -263 q53 -56 121 -110 q20 -16 40 -36.5 q20 -20.5 33 -38.5 q25 -37 25 -74 ZM657 1558 q0 -54 -132 -378 l0 -1278 q0 -48 -3 -66.5 q-3 -18.5 -5 -25.5 q-2 -7 -6 -11 q-6 -6 -13 -6 l-132 0 q-7 0 -12 5 q-15 15 -15 104 l0 877 q-68 -130 -108 -170 q-26 -26 -49 -26 q-40 0 -64 25 q-21 20 -21 52 q0 32 10.5 60.5 q10.5 28.5 33.5 63.5 q179 281 310 739 q27 91 75 112 q14 6 30 6 q55 0 80 -25 q21 -21 21 -58 Z" /><glyph glyph-name="uni4FBF" unicode="&#x4fbf;" d="M1673 785 l-309 0 l-6 -144 l264 0 q24 0 36.5 12.5 q12.5 12.5 14.5 38.5 l0 93 ZM899 785 l0 -95 q0 -24 12 -36 q12 -12 39 -13 l237 0 l6 144 l-294 0 ZM1367 1087 l0 -144 l306 0 l0 89 q0 28 -13 41 q-13 13 -38 14 l-255 0 ZM950 1087 q-26 0 -38 -12 q-13 -13 -13 -41 l0 -91 l296 0 l2 144 l-247 0 ZM988 146 q-195 159 -195 244 q0 28 17 45 q22 22 72 22 q41 0 95 -66 q65 -80 124 -122 q37 60 69 202 l-272 0 q-151 0 -173 132 q-4 22 -4 47 l0 428 q0 88 44.5 132.5 q44.5 44.5 132.5 44.5 l301 0 l-2 124 l-431 0 q-29 0 -58 -29 l-19 -19 l0 125 q0 56 25 82 q20 19 52 19 l1066 0 q59 0 88 18 l17 11 l0 -118 q0 -40 -23 -62 q-26 -27 -82 -27 l-461 0 l-2 -124 l311 0 q95 0 140 -45 q40 -40 40 -114 q0 -10 -1 -20 l0 -424 q0 -99 -45 -144 q-38 -38 -113 -38 q-10 0 -21 1 l-337 0 q-32 -187 -95 -289 q266 -128 597 -169 q54 -7 79 -32 q25 -25 25 -65 q0 -51 -26 -77 q-26 -26 -77 -26 q-98 0 -339 77 q-212 68 -365 154 q-110 -105 -270 -172 q-146 -63 -212 -63 q-66 0 -88 45 q-11 21 -11 50 q0 29 22 51 q30 30 98 48 q175 43 307 143 ZM675 1552 q0 -12 -17 -58 l-113 -286 l0 -1306 q0 -48 -3 -66.5 q-3 -18.5 -5 -25.5 q-2 -7 -7 -12 q-5 -5 -12 -5 l-130 0 q-7 0 -12 5 q-15 15 -15 104 l0 913 q-83 -163 -133 -214 q-24 -24 -44 -24 q-37 0 -59 21 q-26 27 -26 84 q0 33 28 76 q201 321 360 809 q11 37 33 55.5 q22 18.5 56 18.5 q49 0 74 -25 q21 -21 25 -57 l0 -1 l0 -6 Z" /><glyph glyph-name="uni4FDD" unicode="&#x4fdd;" d="M970 1391 q-28 0 -41.5 -13.5 q-13.5 -13.5 -13.5 -43.5 l0 -196 q0 -28 13.5 -41.5 q13.5 -13.5 41.5 -15.5 l590 0 q28 0 42.5 14.5 q14.5 14.5 16.5 44.5 l0 192 q0 44 -37 55 q-10 3 -22 4 l-590 0 ZM1835 166 q114 -57 114 -112 q0 -79 -54 -97 q-16 -6 -37 -6 q-50 0 -114 39 q-76 46 -178 148 q-128 128 -219 271 l0 -513 q0 -44 -4 -67 q-5 -36 -23 -36 l-122 0 q-7 0 -12 5 q-5 5 -7.5 12 q-2.5 7 -3.5 18 q-4 24 -4 68 l0 509 q-114 -180 -268 -309 q-181 -153 -255 -153 q-37 0 -58 21 q-25 25 -25 76 q0 61 86 102 q137 65 277 200 q129 123 198 231 l-412 0 q-56 0 -85 -22 l-18 -13 l0 120 q0 38 22 59 q25 26 81 26 l457 0 l0 170 l-261 0 q-91 0 -134 43 q-39 40 -39 117 q0 8 0 15 l0 296 q0 94 43 137 q39 38 115 38 q8 0 15 0 l714 0 q98 0 141 -43 q37 -37 37 -112 q0 -11 -1 -22 l0 -292 q0 -96 -43 -139 q-39 -38 -118 -38 q-8 0 -16 0 l-277 0 l0 -170 l485 0 q56 0 85 22 l18 13 l0 -120 q0 -38 -22 -59 q-25 -26 -81 -26 l-442 0 q172 -267 445 -407 ZM681 1552 q0 -48 -105 -284 l-47 -108 l0 -1248 q0 -88 -11 -109 q-2 -3 -5.5 -6.5 q-3.5 -3.5 -10.5 -3.5 l-126 0 q-7 0 -11 4.5 q-4 4.5 -7 8.5 q-9 21 -9 92 l0 892 q-84 -161 -136 -200 q-17 -13 -33 -13 q-35 0 -55 20 q-26 26 -26 83 q0 39 66 146 q189 318 311 707 l0 1 q21 61 44 84 q23 23 58 23 q54 0 80 -26 q23 -23 23 -63 Z" /><glyph glyph-name="uni4FE1" unicode="&#x4fe1;" d="M925 82 q0 -43 35 -55 q11 -4 26 -4 l616 0 q30 0 44.5 14.5 q14.5 14.5 16.5 44.5 l0 118 q0 28 -14.5 42.5 q-14.5 14.5 -46.5 16.5 l-616 0 q-30 0 -44.5 -14.5 q-14.5 -14.5 -16.5 -44.5 l0 -118 ZM737 17 q0 8 0 15 l0 216 q0 95 46 139 q41 39 120 39 q11 0 23 -1 l736 0 q104 0 150 -46 q39 -40 39 -117 q0 -7 0 -14 l0 -216 q0 -97 -45 -141 q-40 -39 -121 -39 q-11 0 -23 1 l-736 0 q-104 0 -149 46 q-40 40 -40 118 ZM763 620 q0 41 23 64 q23 23 70 23 l876 0 q47 0 76 20 l17 12 l0 -119 q0 -41 -23 -64 q-23 -23 -70 -23 l-876 0 q-47 0 -76 -20 l-17 -12 l0 119 ZM763 902 q0 41 23 64 q23 23 70 23 l876 0 q47 0 76 20 l17 12 l0 -119 q0 -41 -23 -64 q-23 -23 -70 -23 l-876 0 q-47 0 -76 -20 l-17 -12 l0 119 ZM589 1188 q0 41 23 64 q27 27 84 27 l1150 0 q59 0 89 17 l16 9 l0 -117 q0 -39 -22 -61 q-26 -26 -83 -26 l-1150 0 q-61 0 -90 -20 l-17 -12 l0 119 ZM763 1474 q0 52 36 74 q23 13 59 13 l872 0 q49 0 78 20 l17 12 l0 -119 q0 -41 -23 -64 q-23 -23 -72 -23 l-872 0 q-25 0 -39 -4 q-24 -6 -39 -16 l-17 -12 l0 119 ZM545 -98 q0 -48 -3 -66.5 q-3 -18.5 -5 -25.5 q-2 -7 -7 -12 q-5 -5 -12 -5 l-130 0 q-7 0 -12 5 q-15 15 -15 104 l0 904 q-91 -161 -138 -207 q-21 -22 -37 -22 q-39 0 -61 22 q-26 26 -26 79 q0 37 78 158 q185 295 312 697 q18 58 44 84 q24 24 59 24 q54 0 80 -26 q23 -23 23 -63 q0 -6 -2 -13 q-2 -7 -5 -16 q-23 -70 -143 -343 l0 -1278 Z" /><glyph glyph-name="uni4FEE" unicode="&#x4fee;" d="M747 -86 q0 28 20 49 q33 33 120 42 q459 54 855 320 q55 38 88 38 q44 0 66.5 -22.5 q22.5 -22.5 22.5 -64.5 q0 -31 -37 -68 q-71 -71 -287 -172 q-314 -145 -702 -203 l-58 -6 q-7 -1 -13 -1 q-34 0 -53 20 q-22 24 -22 68 ZM1624 557 q89 0 89 -81 q0 -26 -27 -54 q-35 -34 -115 -72 l-60 -28 q-133 -60 -199 -84 q-145 -53 -299 -93 q-49 -14 -67 -14 q-41 0 -63 22 q-22 22 -22 67 q0 31 20 51 q24 24 73 32 q308 53 606 232 q37 22 64 22 ZM843 481 q0 27 21 48 q30 29 101 46 q185 43 390 153 q34 19 57.5 28 q23.5 9 42 9 q18.5 0 35 -5.5 q16.5 -5.5 28.5 -16.5 q21 -21 21 -61 q0 -20 -23 -43 q-54 -53 -236 -131 q-264 -111 -354 -111 q-39 0 -61 22 q-22 22 -22 62 ZM1334 1064 q113 87 188 231 l-362 0 q79 -151 174 -231 ZM599 100 l0 1178 q0 44 7 62 q2 5 7 10 q5 5 13 5 l108 0 q8 0 13 -5 q5 -5 7 -10 q7 -18 7 -62 l0 -1178 q0 -38 -3.5 -58 q-3.5 -20 -10.5 -28 q-6 -5 -13 -5 l-108 0 q-7 0 -14 6 q-13 14 -13 85 ZM1717 1295 q-93 -185 -240 -319 q135 -73 373 -113 q76 -12 94 -57 q5 -14 5 -34 q0 -20 -6 -39 q-6 -19 -19 -32 q-24 -24 -70 -24 q-70 0 -234 57 q-157 53 -286 133 q-336 -206 -478 -206 q-55 0 -75 40 q-10 21 -10 51 q0 57 51 80 l103 31 q138 39 275 115 q-94 93 -169 245 q-83 -130 -142 -164 q-20 -12 -39 -12 q-50 0 -68 37 q-9 19 -9 46 q0 28 49 82 q109 112 202 338 q31 73 81 88 q11 3 23 3 q42 0 61.5 -19.5 q19.5 -19.5 19.5 -53.5 q0 -28 -43 -113 l648 0 q44 0 73 25 l18 16 l0 -122 q0 -36 -20 -56 q-23 -23 -71 -23 l-97 0 ZM617 1562 q0 -40 -124 -388 l0 -1282 q0 -42 -2.5 -59 q-2.5 -17 -5 -23.5 q-2.5 -6.5 -6.5 -10.5 q-6 -6 -13 -6 l-118 0 q-17 2 -22 27 q-5 25 -5 72 l0 875 q-63 -128 -106 -171 q-23 -23 -43 -23 q-32 0 -50 18 q-23 23 -23 73 q0 37 31 93 q174 305 307 810 q15 53 55 68 q15 6 34 6 q48 0 71 -23 q20 -20 20 -56 Z" /><glyph glyph-name="uni5019" unicode="&#x5019;" d="M1922.5 -164.5 q-24.5 -24.5 -69.5 -24.5 q-45 0 -114 32 q-67 32 -146 96 q-158 126 -253 281 q-86 -195 -250 -299 q-189 -120 -272 -120 q-48 0 -71.5 23.5 q-23.5 23.5 -23.5 67.5 q0 41 30 64 q11 10 41 23.5 q30 13.5 86 34.5 q247 99 325 329 l-323 0 q-46 0 -75 -24 l-18 -14 l0 121 q0 38 21 59 q24 24 72 24 l356 0 q12 129 13 224 l-193 0 q-55 -80 -93 -118 q-38 -38 -63 -38 q-64 0 -78 46 q-5 16 -5 34 q0 37 34 80 q84 111 137 218 q39 82 100 82 q43 0 64 -21 q19 -19 19 -52 q0 -26 -25 -69 l572 0 q44 0 73 25 l18 16 l0 -122 q0 -37 -21 -58 q-23 -23 -70 -23 l-291 0 q-3 -101 -15 -224 l416 0 q48 0 77 24 l18 14 l0 -121 q0 -38 -21 -59 q-24 -24 -74 -24 l-395 0 q152 -217 442 -341 q36 -17 53 -39.5 q17 -22.5 17 -62.5 q0 -40 -24.5 -64.5 ZM765 162 q0 -42 6 -54 q1 -1 1 -2 l-2 1 l0 -22 l-180 0 l0 22 l-2 -1 q7 7 7 56 l0 1068 q0 38 2.5 53.5 q2.5 15.5 5 21.5 q2.5 6 5.5 9 q3 3 4 4 q1 1 3 1 q3 2 7 2 l116 0 q7 0 14 -6 q13 -14 13 -85 l0 -1068 ZM829 1116 q0 47 23 69 q19 20 54 20 l635 0 l0 139 q0 25 -13 38 q-13 13 -40 15 l-502 0 q-46 0 -75 -24 l-18 -14 l0 121 q0 38 21 59 q24 24 72 24 l562 0 q91 0 134 -43 q39 -40 39 -120 q0 -8 0 -16 l0 -179 l107 0 q44 0 73 24 l18 14 l0 -121 q0 -6 -0.5 -12 q-0.5 -6 -1.5 -11.5 q-1 -5.5 -3 -10.5 q-2 -5 -4 -9 q-20 -40 -82 -40 l-922 0 q-29 0 -58 -29 l-19 -19 l0 125 ZM635 1562 q0 -44 -75 -246 l-61 -162 l0 -1256 q0 -45 -3.5 -68.5 q-3.5 -23.5 -11.5 -31.5 q-5 -5 -12 -5 l-124 0 q-7 0 -11 4.5 q-4 4.5 -7 8.5 q-9 21 -9 92 l0 863 q-67 -127 -103 -163 q-21 -21 -38 -21 q-40 0 -60.5 20.5 q-20.5 20.5 -20.5 60.5 q0 49 26 94 q101 169 195 412 q95 243 119 362 q17 88 69 109 q16 6 34 6 q49 0 73 -24 q20 -20 20 -55 Z" /><glyph glyph-name="uni503C" unicode="&#x503c;" d="M1580 263 q23 0 35 13 q12 13 14 38 l0 101 l-484 0 l0 -101 q0 -24 12 -36 q12 -12 38 -15 l385 0 ZM1145 559 l484 0 l0 132 l-484 0 l0 -132 ZM1629 918 q0 32 -19 43 q-11 7 -30 8 l-386 0 q-25 0 -37 -13 q-12 -12 -12 -38 l0 -83 l484 0 l0 83 ZM973 280 l0 670 q0 85 44 129 q44 44 131 44 l117 0 l0 130 l-505 0 q-56 0 -85 -22 l-18 -13 l0 120 q0 38 22 59 q25 26 81 26 l505 0 l0 119 q0 44 7 62 q2 5 7 10 q5 5 13 5 l126 0 q12 0 18 -12 q9 -17 9 -65 l0 -119 l399 0 q58 0 87 22 l18 13 l0 -120 q0 -37 -21 -59 q-27 -26 -84 -26 l-399 0 l0 -130 l189 0 q89 0 133 -45 q44 -43 44 -128 l0 -670 q0 -83 -44 -127 q-44 -44 -133 -44 l-486 0 q-88 0 -131.5 43.5 q-43.5 43.5 -43.5 127.5 ZM848 -168 q-80 0 -120 40 q-40 40 -40 118 q0 14 1 28 l0 1004 q0 41 3.5 62.5 q3.5 21.5 11.5 29.5 q5 5 12 5 l120 0 q18 0 23 -34 q4 -22 4 -63 l0 -950 q0 -37 16 -53 q16 -16 48 -16 q3 0 6 0 l1 0 l910 0 q58 0 87 22 l18 13 l0 -120 q0 -37 -21 -59 q-27 -26 -84 -26 l-968 0 q-15 -1 -28 -1 ZM529 -102 q0 -45 -3.5 -68.5 q-3.5 -23.5 -11.5 -31.5 q-5 -5 -12 -5 l-126 0 q-7 0 -11 4.5 q-4 4.5 -7 8.5 q-9 21 -9 92 l0 891 q-73 -140 -120 -187 q-25 -25 -45 -25 q-38 0 -59 22 q-26 25 -26 81 q0 35 78 156 q169 269 296 697 q19 60 43 84 q24 24 58 24 q54 0 80 -26 q23 -23 23 -63 q0 -34 -59 -180 l-89 -208 l0 -1266 Z" /><glyph glyph-name="uni5047" unicode="&#x5047;" d="M1844 -175 q-117 0 -339 220 l-95 -82 q-215 -150 -310 -150 q-43 0 -66 23 q-23 23 -23 68 q0 60 85 92 l0 0 q190 69 303 174 q-146 209 -146 364 q0 36 19.5 55.5 q19.5 19.5 57.5 19.5 q35 0 58 -24 q21 -21 33 -60 q43 -150 93 -224 q76 118 140 286 q13 33 16 50 q1 2 1 4 q0 10 -18 13 q-7 1 -15 1 l-356 0 q-52 0 -81 -24 l-18 -14 l0 121 q0 54 42 74 q23 11 57 11 l424 0 q129 0 155 -68 q6 -17 6 -37 q0 -89 -73 -241 q-82 -170 -175 -302 q68 -63 234 -151 q86 -47 86 -100 q0 -50 -24.5 -74.5 q-24.5 -24.5 -70.5 -24.5 ZM815 1093 l197 0 q21 0 32 11 q11 11 13 34 l0 206 q0 22 -10 32 q-11 11 -35 11 l-152 0 q-22 0 -33 -11 q-10 -10 -12 -32 l0 -251 ZM491 1176 l0 -1280 q0 -44 -3.5 -67 q-3.5 -23 -11.5 -31 q-5 -5 -12 -5 l-122 0 q-14 1 -19 17 q-8 23 -8 86 l0 873 q-65 -131 -99 -165 q-17 -17 -32 -17 q-65 0 -81 43 q-4 13 -4 24.5 q0 11.5 0.5 19.5 q0.5 8 2 16 q1.5 8 4 16 q2.5 8 4.5 15 q6 16 15 31 q183 302 298 775 q16 64 44 91 q23 23 57 23 q48 0 71 -23 q20 -20 20 -58 q0 -76 -124 -384 ZM1352 927 q-52 0 -81 -22 l-18 -13 l0 120 q0 38 22 60 q25 25 77 25 l254 0 q26 0 38.5 12.5 q12.5 12.5 14.5 38.5 l0 186 q0 24 -12.5 36.5 q-12.5 12.5 -40.5 14.5 l-254 0 q-52 0 -81 -22 l-18 -13 l0 120 q0 38 22 60 q25 25 77 25 l314 0 q91 0 132 -41 q37 -38 37 -113 q0 -7 0 -15 l0 -290 q0 -91 -41 -132 q-21 -21 -50.5 -29 q-29.5 -8 -62.5 -8 q-7 0 -15 0 l-314 0 ZM815 315 l287 0 q54 0 83 22 l18 13 l0 -120 q0 -37 -21 -58 q-25 -25 -80 -25 l-287 0 l0 -241 q0 -45 -3.5 -68.5 q-3.5 -23.5 -11.5 -31.5 q-5 -5 -12 -5 l-124 0 q-18 0 -23 35 q-4 25 -4 70 l0 1492 q0 78 39.5 117.5 q39.5 39.5 117.5 39.5 l270 0 q76 0 115.5 -39.5 q39.5 -39.5 39.5 -117.5 l0 -316 q0 -78 -40 -118 q-39 -39 -115 -39 l-249 0 l0 -198 l267 0 q52 0 81 22 l18 13 l0 -120 q0 -53 -42 -72 q-22 -11 -57 -11 l-267 0 l0 -244 Z" /><glyph glyph-name="uni505A" unicode="&#x505a;" d="M966 181 q32 0 44 22 q6 11 7 29 l0 312 q0 24 -12 37 q-13 12 -39 14 l-152 0 q-25 0 -37.5 -12.5 q-12.5 -12.5 -13.5 -38.5 l0 -312 q0 -24 12 -37 q13 -12 39 -14 l152 0 ZM1533 400 q100 204 121 669 l-227 0 q20 -443 106 -669 ZM595 155 q0 8 0 15 l0 436 q0 86 38 124 q34 33 102 33 q7 0 15 0 l51 0 l0 324 l-153 0 q-48 0 -77 -22 l-18 -13 l0 120 q0 39 22 61 q24 24 73 24 l153 0 l0 291 q0 38 2.5 53.5 q2.5 15.5 5 21.5 q2.5 6 7.5 11 q5 5 12 5 l116 0 q7 0 14 -6 q13 -14 13 -85 l0 -291 l143 0 q48 0 77 22 l18 13 l0 -120 q0 -55 -41 -75 q-22 -10 -54 -10 l-143 0 l0 -324 l59 0 q81 0 119 -38 q34 -35 34 -104 q0 -7 0 -15 l0 -436 q0 -126 -89 -151 q-24 -6 -53 -6 q-8 0 -15 0 l-272 0 q-86 0 -125 39 q-34 35 -34 103 ZM1510 1618 q21 -21 21 -60 q0 -39 -88 -307 l419 0 q41 0 71 17 l16 9 l0 -117 q0 -46 -23 -69 q-22 -22 -64 -22 l-44 0 l-7 -116 q-30 -472 -184 -722 q95 -116 269 -226 q53 -33 53 -91 q0 -52 -26 -78 q-25 -25 -73 -25 q-31 0 -78 31 q-63 41 -158 138 l0 1 q-60 65 -93 106 q-90 -96 -219 -190 q-71 -52 -115.5 -73 q-44.5 -21 -70.5 -21 q-46 0 -69.5 23.5 q-23.5 23.5 -23.5 69.5 q0 61 89 100 q188 82 315 241 q-105 224 -143 642 q-39 -75 -72 -108 q-27 -26 -50 -26 q-33 0 -52 19 q-23 23 -23 74 q0 29 34 82 q133 206 226 627 q17 70 61 88 q15 6 32 6 q47 0 70 -23 ZM637 1562 q0 -76 -144 -422 l0 -1248 q0 -42 -2.5 -59 q-2.5 -17 -5 -23.5 q-2.5 -6.5 -6.5 -10.5 q-6 -6 -13 -6 l-124 0 q-18 0 -23 34 q-4 23 -4 65 l0 875 l-19 -36 q-47 -89 -81 -123 q-23 -23 -43 -23 q-31 0 -49 18 q-24 24 -24 77 q0 12 5.5 26 q5.5 14 10.5 26 q20 42 64 114 q57 93 157 352 q73 197 105 330 q20 86 71 106 q16 7 36 7 q46 0 69 -23 q20 -20 20 -56 Z" /><glyph glyph-name="uni5076" unicode="&#x5076;" d="M1333 935 l267 0 q25 0 37 12 q12 12 12 37 l0 115 l-316 0 l0 -164 ZM1155 935 l0 164 l-276 0 l0 -117 q0 -22 11.5 -33.5 q11.5 -11.5 37.5 -13.5 l227 0 ZM1649 1247 l0 105 q0 32 -21 43 q-11 5 -28 6 l-267 0 l0 -154 l316 0 ZM879 1247 l276 0 l0 154 l-227 0 q-23 0 -35 -12 q-12 -12 -14 -37 l0 -105 ZM1519 182 q-408 -71 -585 -71 q-43 0 -65 22 q-22 22 -22 63 q0 49 48 70 q32 14 85 15 l62 2 q41 0 113 3 l0 237 l-295 0 q-27 0 -39.5 -12.5 q-12.5 -12.5 -13.5 -38.5 l0 -574 q0 -44 -3.5 -67 q-3.5 -23 -11.5 -31 q-5 -5 -12 -5 l-120 0 q-18 0 -23 35 q-4 24 -4 68 l0 606 q0 98 44 142 q38 38 113 38 q11 0 22 -1 l343 0 l0 100 l-275 0 q-92 0 -136 44 q-41 42 -41 125 q0 4 0 8 l0 416 q0 96 44 140 q38 38 112 38 q10 0 21 -1 l770 0 q95 0 138 -43 q39 -40 39 -120 q0 -8 0 -16 l0 -412 q0 -97 -44 -141 q-22 -21 -52.5 -29.5 q-30.5 -8.5 -65.5 -8.5 q-7 0 -15 0 l-317 0 l0 -100 l377 0 q96 0 141 -45 q40 -41 40 -121 q0 -7 0 -15 l0 -490 q0 -113 -51 -164 q-44 -44 -132 -44 q-11 0 -22 1 l-112 0 q-53 0 -83 -17 l-16 -9 l0 117 q0 43 23 66 q23 23 68 23 l88 0 q28 0 43.5 15.5 q15.5 15.5 17.5 49.5 l0 420 q0 34 -22 46 q-12 6 -29 7 l-331 0 l0 -227 l141 14 l-3 9 l-24 77 l0 2 q0 30 16 46 q17 17 51 17 q22 0 43 -21 q25 -25 51 -81 q79 -167 79 -209 q0 -58 -49 -70 q-12 -3 -26 -3 q-35 0 -56 21 q-15 15 -22 41 l-15 43 ZM653 1554 q0 -28 -31 -106 q-53 -147 -107 -294 l0 -1252 q0 -75 -9 -95 q-3 -5 -7 -9.5 q-4 -4.5 -11 -4.5 l-124 0 q-7 0 -11 4.5 q-4 4.5 -7 8.5 q-9 21 -9 92 l0 881 q-84 -158 -130 -193 q-14 -11 -25 -11 q-11 0 -19 1 q-8 1 -15 4 q-15 5 -26 16 q-23 23 -23 70 q0 35 42 106 l0 0 q197 318 310 759 q15 55 42.5 82.5 q27.5 27.5 64.5 27.5 q49 0 72 -23 q23 -23 23 -64 Z" /><glyph glyph-name="uni50CF" unicode="&#x50cf;" d="M1355 1099 l0 -180 l289 0 q26 0 38.5 12.5 q12.5 12.5 12.5 38.5 l0 76 q0 26 -13 39 q-12 12 -38 14 l-289 0 ZM1189 1099 l-289 0 q-17 0 -25 -8 q-8 -8 -8 -25 l0 -96 q0 -30 19 -42 q13 -8 34 -9 l269 0 l0 180 ZM845 1249 l422 0 l91 91 q14 14 17 20 q0 2 -1.5 2.5 q-1.5 0.5 -2.5 1.5 q-4 1 -11 1 l-407 0 q-63 -67 -120 -118 l12 2 ZM1254 703 q88 -91 148 -216 q83 60 232 213 q47 47 88 47 q52 0 77 -25 q22 -22 22 -62 q0 -33 -48 -81 q-69 -70 -242 -176 q143 -172 308 -253 q112 -55 112 -120 q0 -48 -24.5 -72.5 q-24.5 -24.5 -70.5 -24.5 q-80 0 -203 111 q-96 85 -183 206 q5 -41 5 -84 q0 -190 -72 -285 q-70 -90 -259 -90 q-56 0 -84 28 q-25 25 -25 71 q0 47 38 71 q25 16 66 20 q80 8 120 27 q40 19 49 112 q3 25 3 55 l-5 45 q-130 -114 -334 -232 q-231 -133 -320 -133 q-41 0 -63 22 q-22 22 -22 65 q0 44 79 82 q20 10 42 18 q340 126 580 329 l-32 68 q-128 -95 -349 -209 q-128 -65 -175 -65 q-38 0 -58 20 q-21 21 -21 61 q0 60 91 90 q235 80 440 220 l-45 58 q-359 -199 -459 -199 q-47 0 -69 32 q-14 20 -14 51 q0 44 75 78 q18 9 40 16 q208 71 390 177 l-214 0 q-173 0 -173 165 l0 148 q0 35 6 62 q-42 -27 -71 -27 q-36 0 -55.5 19.5 q-19.5 19.5 -19.5 59.5 q0 48 101 119 q148 111 269 266 q48 62 99 62 q51 0 73 -22 q16 -16 16 -41 q0 -25 -30 -63 l371 0 q102 0 132 13 l15 7 l0 -115 q0 -18 -31 -58.5 q-31 -40.5 -105 -114.5 l229 0 q91 0 135 -44 q40 -40 40 -119 l0 -152 q0 -82 -41.5 -123.5 q-41.5 -41.5 -121.5 -41.5 q-6 0 -98 0 q-92 0 -270 0 l-84 -66 ZM180 575 q-37 0 -58 21 q-23 23 -23 70 q0 39 44 110 q189 302 308 751 q17 59 46 88 q26 26 61 26 q59 0 79 -40 q10 -20 10 -47 l0 -1 l-8 -44 l-126 -349 l0 -1262 q0 -76 -11 -94 q-6 -11 -16 -11 l-124 0 q-7 0 -11 4.5 q-4 4.5 -7 8.5 q-9 21 -9 92 l0 871 q-28 -54 -56.5 -99 q-28.5 -45 -53.5 -70 q-25 -25 -45 -25 Z" /><glyph glyph-name="uni513F" unicode="&#x513f;" d="M1187 36 l0 1430 q0 40 4 61 q5 34 23 34 l132 0 q17 0 22 -26 q5 -24 5 -69 l0 -1322 q0 -70 37 -84 q40 -13 148 -13 q131 0 164 34 l5 5 q24 35 24 120 q-4 119 -4 122 q0 47 24.5 72 q24.5 25 71.5 25 q47 0 71.5 -24.5 q24.5 -24.5 24.5 -72.5 q0 -188 -22 -290 q-21 -95 -89 -137 q-62 -38 -276 -38 q-117 0 -185.5 5 q-68.5 5 -93.5 15 q-86 36 -86 153 ZM109 -46 q0 64 61 100 q160 92 260 273 q101 180 117 591 l0 524 q0 65 30 95 q24 24 66 24 q42 0 66 -24 q32 -32 32 -103 q0 -747 -64 -999 q-67 -257 -251 -439 q-145 -143 -220 -143 q-47 0 -72 25 q-25 25 -25 76 Z" /><glyph glyph-name="uni5141" unicode="&#x5141;" d="M109 -76 q0 37 24.5 61.5 q24.5 24.5 69.5 37.5 q179 49 283 157 q104 108 137 276 q25 124 30 356 q-426 -21 -434.5 -21 q-8.5 0 -21.5 2 q-32 4 -53 25 q-25 25 -25 72 q0 39 23 62 q31 31 100 31 l204 -2 q132 214 272 563 q25 63 70 81 q18 8 38 8 q38 0 75 -33 q24 -21 24 -54 q0 -45 -39 -115 l-4 -6 l-1 0 l-140 -275 l-95 -158 l890 34 q-136 150 -219 226 q-44 40 -44 74 q0 34 20 54 q23 23 71 23 q16 0 42.5 -15 q26.5 -15 74.5 -56 q69 -58 199 -192 q158 -161 218 -261 q27 -44 27 -67 q0 -63 -43 -85 q-21 -10 -50 -10 q-15 0 -31 10 q-50 32 -138 157 l-332 -32 l0 -744 q0 -69 90 -77 q121 -5 133 -5 q84 0 131 28 q46 27 52 153 q4 73 35 105 q23 23 60 23 q46 0 70.5 -24.5 q24.5 -24.5 24.5 -72.5 q0 -310 -154 -355 q-85 -24 -307 -24 q-177 0 -221 19 q-70 32 -86 95 q-6 22 -6 47 l0 821 l-13 0 l-309 -17 l-4 -100 q-14 -389 -132 -574 q-115 -185 -341 -282 q-92 -41 -154 -41 q-43 0 -67 24 q-24 24 -24 73 Z" /><glyph glyph-name="uni5143" unicode="&#x5143;" d="M119 -76 q0 36 38 63 q34 25 105 49 q204 69 300 239 q97 173 101 524 l-423 0 q-65 0 -94 -18 l-17 -11 l0 118 q0 40 23 63 q28 28 88 28 l1566 0 q61 0 90 18 l17 11 l0 -118 q0 -91 -107 -91 l-495 0 l0 -681 q0 -37 18 -55 q10 -10 29 -15 q41 -11 168 -11 q114 0 159 20 q14 6 21 15 q13 13 20.5 43.5 q7.5 30.5 8.5 76.5 l0 0 q2 56 29 82 q25 25 71 25 q96 0 96 -97 q0 -184 -69 -269 q-78 -74 -370 -74 q-210 0 -274 25 q-89 34 -89 162 l0 753 l-284 0 l-2 -77 q-6 -274 -93 -478 q-81 -195 -252 -307 q-173 -114 -284 -114 q-45 0 -70 25 q-25 25 -25 76 ZM323 1452 q0 40 23 63 q28 28 88 28 l1178 0 q63 0 93 17 l16 9 l0 -117 q0 -39 -22 -62 q-28 -27 -87 -27 l-1178 0 q-65 0 -94 -18 l-17 -11 l0 118 Z" /><glyph glyph-name="uni5148" unicode="&#x5148;" d="M675 1508 q0 -27 -57 -169 l335 0 l0 187 q0 58 14 71 q5 6 13 6 l120 0 q8 -1 13 -6 q14 -13 14 -71 l0 -187 l505 0 q56 0 85 22 l18 13 l0 -120 q0 -36 -21 -57 q-26 -26 -82 -26 l-505 0 l0 -368 l683 0 q29 0 58 29 l19 19 l0 -125 q0 -48 -23 -71 q-20 -20 -54 -20 l-507 0 l0 -519 q0 -52 27 -69 q13 -7 56 -12.5 q43 -5.5 122 -5.5 q79 0 125 7 q53 8 67 16 q18 11 25 41 q10 36 10 101 q0 55 27 81 q23 24 66 24 q44 0 69 -25 q30 -30 30 -94 q-1 -238 -129 -294 q-32 -14 -114 -20.5 q-82 -6.5 -215 -6.5 q-216 0 -273 33 q-9 5 -18 14 q-47 47 -49 138 l0 591 l-280 0 q-8 -269 -95 -438 q-88 -171 -258 -269 q-175 -101 -288 -101 q-40 0 -62 22 q-25 25 -25 77 q0 23 20 43 q32 31 116 57 q138 42 226 116 q22 19 38 35 q65 65 99 149 q44 117 54 309 l-434 0 q-60 0 -89 -22 l-18 -13 l0 120 q0 35 21 56 q27 27 86 27 l713 0 l0 368 l-409 0 l-18 -32 q-67 -136 -124 -193 q-37 -37 -68 -37 q-59 0 -79 41 q-10 20 -10 48 q0 30 46 91 q121 168 201 406 q12 41 35 62.5 q23 21.5 57 21.5 q46 0 68 -16 l6 -5 q17 -18 17 -50 Z" /><glyph glyph-name="uni5149" unicode="&#x5149;" d="M355 1319 q-32 43 -32 79 q0 46 43 77 q23 16 46 16 q43 0 98 -62 q30 -34 71 -91 q41 -57 84 -124 q26 -39 26 -73 q0 -42 -42 -76 q-27 -20 -59 -20 q-55 0 -86 58 q-43 79 -149 216 ZM1362 1057 q-43 27 -43 76 q0 36 26 77 q95 149 131 227 q29 64 86 64 q27 0 56 -18 q47 -29 47 -77 q0 -35 -21 -71 q-110 -201 -164 -255 q-37 -37 -72 -37 q-21 0 -46 14 ZM1929 194 q0 -197 -65 -262 q-73 -73 -388 -73 q-111 0 -179 5.5 q-68 5.5 -97 17.5 q-91 37 -91 176 l0 691 l-258 0 q-5 -175 -24.5 -286.5 q-19.5 -111.5 -62.5 -216.5 q-75 -185 -262 -305 q-173 -112 -290 -112 q-41 0 -63 23 q-26 25 -26 78 q0 44 31 65 q20 15 133 51 q188 61 288 220 q94 153 100 483 l-427 0 q-58 0 -87 -22 l-18 -13 l0 120 q0 39 22 61 q26 26 83 26 l675 0 l0 593 q0 54 3 75 q3 21 5 29 l7 12 q5 5 12 5 l140 0 q13 0 19 -17 q2 -8 5 -29 q3 -21 3 -75 l0 -593 l673 0 q29 0 58 29 l19 19 l0 -125 q0 -73 -47 -90 q-14 -5 -30 -5 l-505 0 l0 -633 q0 -56 23 -68 q35 -21 138 -21 q117 0 175 8 q57 7 75 18 q26 16 38 75 q5 25 7 57 q5 63 32 90 q22 22 59 22 q63 0 86 -46 q11 -23 11 -57 Z" /><glyph glyph-name="uni514D" unicode="&#x514d;" d="M1591 658 l0 236 q0 20 -9.5 29.5 q-9.5 9.5 -29.5 9.5 l-420 0 q-12 -167 -48 -314 l468 0 q20 0 29.5 9.5 q9.5 9.5 9.5 29.5 ZM512 933 q-20 0 -29.5 -9.5 q-9.5 -9.5 -9.5 -29.5 l0 -236 q0 -20 9.5 -29.5 q9.5 -9.5 29.5 -9.5 l392 0 q40 141 60 314 l-452 0 ZM1436 -165 q-141 0 -210 12 q-76 13 -112.5 56 q-36.5 43 -36.5 135 l0 419 l-43 0 q-83 -216 -228 -361 q-181 -181 -580 -277 q-9 -2 -22 -2 q-38 0 -59.5 21.5 q-21.5 21.5 -21.5 61.5 q0 33 20 52.5 q20 19.5 57 26.5 q240 47 400 158 q153 106 247 320 l-371 0 q-94 0 -138 44 q-39 40 -39 121 q0 8 0 16 l0 278 q0 77 27 121 q-37 -26 -72 -47 q-35 -21 -65 -21 q-41 0 -66 39 q-14 23 -14 44 q0 48 51 81 q137 93 249 211.5 q112 118.5 190 235.5 q37 59 97 59 q27 0 52 -16 q41 -23 41 -67 q0 -35 -30 -78 l-6 -9 l521 0 q76 0 118 -41 q27 -28 27 -66 q0 -48 -36 -93 q-72 -92 -166 -174 l369 0 q129 0 164 -79 q15 -34 15 -84 q0 -8 0 -16 l0 -278 q0 -98 -44 -142 q-40 -39 -118 -39 q-8 0 -15 0 l-333 0 l0 -373 q0 -46 16 -62 q13 -13 49.5 -20 q36.5 -7 129.5 -7 q163 0 216 10 q48 9 60 41 q13 36 15 152 q1 48 24.5 71.5 q23.5 23.5 66.5 23.5 q46 0 66.5 -27.5 q20.5 -27.5 20.5 -79.5 q0 -173 -38 -244 q-40 -74 -133 -91 q-89 -16 -312 -16 ZM396 1088 q26 8 59 8 q10 0 21 -1 l523 0 q105 109 162 185 q8 12 8 16.5 q0 4.5 -2 6.5 q-4 4 -17 4 l-525 0 q-110 -126 -229 -219 Z" /><glyph glyph-name="uni5165" unicode="&#x5165;" d="M109 -60 q0 36 32 70 l130 97 q500 369 702 1088 l-4 88 q-4 57 -26 78 q-16 16 -47 18 l-262 0 q-66 0 -96 -13 l-15 -7 l0 115 q0 42 24 65 q27 28 87 28 l328 0 q93 0 137 -53.5 q44 -53.5 46 -165.5 q6 -419 196 -738 q211 -354 527 -553 q71 -45 71 -105 q0 -71 -45 -94 q-21 -11 -50 -11 q-37 0 -102 41 q-79 50 -203 162 q-343 313 -497 812 q-59 -133 -147 -296 q-46 -88 -74 -132 q-124 -201 -329 -396 q-116 -110 -193 -159 q-63 -40 -103 -40 q-39 0 -61 22 q-26 26 -26 79 Z" /><glyph glyph-name="uni5168" unicode="&#x5168;" d="M1863 -46 q0 -38 -22 -60 q-27 -27 -87 -27 l-1460 0 q-63 0 -92 -18 l-17 -11 l0 118 q0 39 22 62 q28 27 87 27 l631 0 l0 294 l-423 0 q-63 0 -92 -18 l-17 -11 l0 118 q0 56 45 77 q25 12 64 12 l423 0 l0 252 l-417 0 q-56 0 -85 -24 l-18 -14 l0 121 q0 21 7 37 q-80 -39 -162 -71 q-30 -11 -52 -11 q-39 0 -63 23 q-17 18 -25 48 q-3 11 -3 22 q0 61 71 90 l0 0 q411 159 697 467 l-351 0 q-61 0 -90 -18 l-17 -11 l0 118 q0 56 45 77 q24 12 62 12 l426 0 q60 0 101 -17 q42 -17 76 -59 q141 -181 312.5 -304 q171.5 -123 417.5 -207 q61 -19 78 -60 q6 -16 6 -34 q0 -11 -4 -31 q-13 -55 -55 -70 q-15 -6 -34 -6 q-20 0 -41 7 q-96 31 -184 72 l0 -64 q0 -71 -47 -88 q-13 -5 -30 -5 l-437 0 l0 -252 l439 0 q61 0 90 18 l17 11 l0 -118 q0 -40 -23 -62 q-26 -27 -84 -27 l-439 0 l0 -294 l645 0 q63 0 93 17 l16 9 l0 -117 ZM1546 939 q16 0 32 9 q-110 56 -209 128 q-189 140 -319 316 q-143 -175 -350 -326 q-95 -70 -196 -127 q2 0 4 0 l1038 0 Z" /><glyph glyph-name="uni516B" unicode="&#x516b;" d="M113 -46 q0 48 43 97 q156 183 256 463 q105 302 121 613 q4 76 37 109 q25 25 66 25 q51 0 75 -25 q22 -21 22 -61 q0 -1 0 -3 l0 -1 q-14 -295 -86.5 -562 q-72.5 -267 -182.5 -466 q-100 -179 -167 -247 q-47 -47 -85 -47 q-51 0 -75 26.5 q-24 26.5 -24 78.5 ZM1152 1369 l-256 0 q-72 0 -102 -11 l-15 -6 l0 114 q0 42 24 66 q29 29 93 29 l312 0 q105 0 153 -56 q48 -55 52 -171 q12 -462 109 -754 q44 -129 127 -245 q83 -116 199 -231 l0 0 q85 -90 85 -137 q0 -54 -36 -83 q-27 -25 -69 -25 q-40 0 -92 41 q-50 40 -118 123 q-196 230 -287.5 537.5 q-91.5 307.5 -101.5 715.5 q-2 55 -23 76 q-17 17 -54 17 Z" /><glyph glyph-name="uni516C" unicode="&#x516c;" d="M107 640 q0 18 29 58.5 q29 40.5 100 116.5 q161 173 290 495 q29 70 57 98 q25 25 57 25 q46 0 67.5 -21.5 q21.5 -21.5 21.5 -59.5 q0 -60 -65 -197 q-32 -67 -78 -150 q-153 -274 -302 -419 q-25 -24 -46 -36.5 q-21 -12.5 -42 -12.5 q-40 0 -63 23 q-26 26 -26 80 ZM893 1363 l0 117 q0 40 23 63 q26 26 80 26 l252 0 q118 0 162 -95 q13 -28 19 -64 q77 -419 409 -633 q103 -65 103 -125 q0 -52 -26 -78 q-23 -23 -65 -23 q-87 0 -219 132 q-47 47 -99.5 110 q-52.5 63 -94 125 q-41.5 62 -73.5 125 q-64 126 -91 257 q-10 51 -31 72 q-16 16 -40 17 l-206 0 q-57 0 -87 -17 l-16 -9 ZM1239 547 q22 22 67 22 q41 0 115 -74 q42 -42 95 -108 q137 -164 237 -305 q82 -112 82 -170 q0 -43 -24 -67 q-26 -26 -79 -26 q-58 0 -112 89 l-54 94 l-99 -13 q-36 -4 -148 -18 q-112 -14 -173 -21 q-123 -14 -267 -27 l-564 -48 q-7 -1 -11 -1 q-4 0 -9 0.5 q-5 0.5 -12 1.5 q-7 1 -14 2.5 q-7 1.5 -13 4.5 q-14 6 -26 18 q-12 12 -18.5 31.5 q-6.5 19.5 -6.5 43.5 q0 50 35 75 q34 24 174 24 q31 1 61 2 q170 319 296 724 q11 34 31 54 q27 28 72 28 q30 -1 71 -27 q28 -34 28 -62 q0 -12 -6.5 -28 q-6.5 -16 -8.5 -22 q-139 -409 -289 -659 l803 60 q-116 160 -180 232 q-73 79 -73 114.5 q0 35.5 20 55.5 Z" /><glyph glyph-name="uni516D" unicode="&#x516d;" d="M1255 706 q0 33 20 53 q26 26 85 26 q65 0 102 -83 q164 -368 364 -568 q62 -62 87.5 -100.5 q25.5 -38.5 25.5 -61.5 q0 -55 -27 -82 q-27 -27 -76 -27 q-34 0 -79 35 q-60 46 -142 151 q-150 195 -251 390 q-60 115 -84.5 177.5 q-24.5 62.5 -24.5 89.5 ZM105 -44 q0 23 14 47 q14 24 45 55 q273 272 414 650 q30 81 100 81 q60 0 87 -27 q22 -22 22 -60 q0 -57 -117 -293 q-113 -229 -256 -394 q-93 -110 -153 -146 q-31 -18 -55 -18 q-49 0 -75 26 q-26 26 -26 79 ZM127 1130 q0 42 24 66 q29 29 93 29 l675 0 l0 285 q0 44 7 62 q2 5 7 10 q5 5 13 5 l142 0 q8 0 14 -6.5 q6 -6.5 9 -18.5 q4 -21 4 -52 l0 -285 l685 0 q72 0 102 13 l15 7 l0 -115 q0 -42 -24 -66 q-29 -29 -93 -29 l-1556 0 q-72 0 -102 -13 l-15 -7 l0 115 Z" /><glyph glyph-name="uni5171" unicode="&#x5171;" d="M1935 -78 q0 -57 -39 -82 q-21 -13 -52 -13 q-92 0 -343 194 q-117 90 -184 158 q-35 34 -49.5 55 q-14.5 21 -14.5 34 q0 43 23.5 63 q23.5 20 69.5 20 q11 0 21.5 -4.5 q10.5 -4.5 18.5 -9.5 q29 -15 73 -50 q229 -182 370 -257 q53 -29 79.5 -55.5 q26.5 -26.5 26.5 -52.5 ZM785 266 q0 -16 -15 -39 q-18 -29 -62 -73 q-60 -61 -167 -143 q-117 -88 -206 -137 q-90 -49 -139 -49 q-35 0 -59 30 q-24 31 -24 67 q0 27 32 54 q29 23 89 59 l1 1 q196 113 343 250 q33 33 64 50 q31 17 52 17 q46 0 68.5 -22.5 q22.5 -22.5 22.5 -64.5 ZM1281 1123 l-524 0 l0 -498 l524 0 l0 498 ZM123 536 q0 40 23 62 q26 27 84 27 l333 0 l0 498 l-255 0 q-63 0 -92 -20 l-17 -12 l0 119 q0 39 22 62 q28 27 87 27 l255 0 l0 213 q0 53 3 73.5 q3 20.5 5.5 28.5 q2.5 8 5.5 11 q6 6 13 6 l140 0 q13 0 19 -17 q2 -8 5 -28.5 q3 -20.5 3 -73.5 l0 -213 l524 0 l0 215 q0 77 8 102 q6 17 19 17 l140 0 q15 0 21 -27 q6 -27 6 -92 l0 -215 l265 0 q61 0 90 18 l17 11 l0 -118 q0 -51 -38 -72 q-26 -15 -69 -15 l-265 0 l0 -498 l343 0 q29 0 58 29 l19 19 l0 -125 q0 -75 -47 -92 q-14 -5 -30 -5 l-1588 0 q-60 0 -89 -22 l-18 -13 l0 120 Z" /><glyph glyph-name="uni5176" unicode="&#x5176;" d="M1943 -96 q0 -43 -26 -69 q-26 -26 -71 -26 q-101 0 -401 157 q-112 59 -156 103 q-25 25 -30 46 q-2 11 -2 20 q0 31 25 56 q22 22 50 22 q30 0 66 -16 q35 -15 92 -50 l0 0 q61 -39 156.5 -79 q95.5 -40 204.5 -71 q45 -13 68.5 -36.5 q23.5 -23.5 23.5 -56.5 ZM779 132 q0 -41 -57.5 -87 q-57.5 -46 -186.5 -109 q-146 -71 -226 -100 q-80 -29 -115 -29 q-41 0 -65 25.5 q-24 25.5 -24 61.5 q0 38 23 60 q19 20 60 34 q215 76 396 182 q39 22 64.5 32.5 q25.5 10.5 49.5 10.5 q30 0 55 -22 q26 -22 26 -59 ZM1383 613 l-718 0 l0 -172 l718 0 l0 172 ZM1383 927 l-718 0 l0 -154 l718 0 l0 154 ZM1383 1235 l-718 0 l0 -148 l718 0 l0 148 ZM123 354 q0 55 43 76 q24 11 60 11 l247 0 l0 794 l-199 0 q-57 0 -86 -18 l-17 -11 l0 118 q0 39 22 61 q26 26 81 26 l199 0 l0 121 q0 43 3.5 65.5 q3.5 22.5 11.5 30.5 q5 5 12 5 l138 0 q7 -1 12 -5 q15 -15 15 -96 l0 -121 l718 0 l0 123 q0 44 3.5 67 q3.5 23 11.5 31 q5 5 12 5 l138 0 q7 0 12 -5 q5 -5 7.5 -12 q2.5 -7 5 -24.5 q2.5 -17.5 2.5 -61.5 l0 -123 l199 0 q59 0 88 18 l17 11 l0 -118 q0 -39 -22 -61 q-26 -26 -83 -26 l-199 0 l0 -794 l247 0 q57 0 86 20 l17 12 l0 -119 q0 -39 -22 -61 q-26 -26 -81 -26 l-1596 0 q-57 0 -86 -20 l-17 -12 l0 119 Z" /><glyph glyph-name="uni5177" unicode="&#x5177;" d="M1947 -102 q0 -52 -25.5 -77.5 q-25.5 -25.5 -71.5 -25.5 q-107 0 -349 117 q-157 76 -215 134 q-31 31 -31 56 q0 37 21 58 q25 25 76 25 q16 0 38 -8 q22 -8 53 -25 q221 -116 408 -161 q49 -13 72.5 -36.5 q23.5 -23.5 23.5 -56.5 ZM726 11 q-73 -53 -256 -131 q-196 -85 -276 -85 q-44 0 -68.5 24.5 q-24.5 24.5 -24.5 74.5 q0 46 31 65 q13 9 58 26 q45 17 105 34 q149 43 296 127 l0 0 q72 39 115 39 q41 0 64 -23 q23 -23 23 -63.5 q0 -40.5 -67 -87.5 ZM1543 535 l-1040 0 l0 -142 l1040 0 l0 142 ZM1543 687 l0 142 l-1040 0 l0 -142 l1040 0 ZM1543 981 l0 140 l-1040 0 l0 -140 l1040 0 ZM568 1415 q-31 0 -47 -16 q-16 -16 -18 -49 l0 -77 l1040 0 l0 77 q0 32 -15.5 47.5 q-15.5 15.5 -47.5 17.5 l-912 0 ZM99 304 q0 57 44 78 q23 11 59 11 l113 0 l0 969 q0 116 52 168 q46 46 139 46 q11 0 22 -1 l990 0 q117 0 169 -53 q45 -45 45 -132 q0 -14 -1 -28 l0 -969 l113 0 q59 0 88 18 l17 11 l0 -118 q0 -40 -23 -62 q-26 -27 -82 -27 l-1642 0 q-57 0 -86 -18 l-17 -11 l0 118 Z" /><glyph glyph-name="uni5185" unicode="&#x5185;" d="M1651 -184 q-14 0 -29 1 l-184 0 q-29 0 -58 -29 l-19 -19 l0 125 q0 91 50 110 q12 5 27 5 l140 0 q36 0 55.5 19.5 q19.5 19.5 19.5 53.5 l0 990 q0 42 -22.5 64.5 q-22.5 22.5 -62.5 22.5 l-490 0 q-10 -146 -29 -232 q16 4 27 0 q48 -20 248 -209 q152 -144 201 -211 q32 -44 32 -71 q0 -45 -31 -73 q-30 -28 -72 -28 q-19 0 -41 12 q-26 14 -40 30 l-106 138 q-55 76 -243 263 q-6 7 -13 14 q-67 -168 -207 -316 q-153 -163 -252 -163 q-41 0 -64 23 q-23 23 -23 72 q0 56 81 103 q329 193 352 648 l-426 0 q-41 0 -63 -22.5 q-22 -22.5 -22 -64.5 l0 -1160 q0 -58 -14 -71 q-5 -6 -13 -6 l-134 0 q-8 0 -14 6 q-13 13 -13 71 l0 1204 q0 110 53 170 q64 51 168 51 l487 0 l0 205 q0 46 25 71 q24 24 68 24 q45 0 69 -27 q24 -26 24 -68 l-4 -205 l531 0 q108 0 170 -53 q51 -60 51 -168 l0 -1080 q1 -15 1 -29 q0 -95 -48.5 -143 q-48.5 -48 -142.5 -48 Z" /><glyph glyph-name="uni518C" unicode="&#x518c;" d="M1295 855 l314 0 l0 489 q0 23 -13 36 q-13 13 -36 13 l-216 0 q-23 0 -36 -13 q-13 -13 -13 -36 l0 -489 ZM473 855 l294 0 l0 489 q0 23 -13 36 q-13 13 -36 13 l-196 0 q-23 0 -36 -13 q-13 -13 -13 -36 l0 -489 ZM1949 766 q0 -43 -28.5 -66 q-28.5 -23 -80.5 -23 l-49 0 l0 -665 q0 -109 -50 -159 q-45 -45 -133 -45 q-11 0 -22 1 l-126 0 q-56 0 -86 -13 l-15 -7 l0 115 q0 47 24 71 q24 24 71 24 l94 0 q30 0 45.5 15.5 q15.5 15.5 15.5 49.5 l0 613 l-314 0 q-5 -256 -31 -447 q-27 -195 -92 -323 q-47 -92 -110 -92 q-45 0 -69 26.5 q-24 26.5 -24 72.5 q0 37 26 78 q111 173 118 685 l-168 0 l0 -655 q0 -112 -51 -163 q-44 -43 -127 -43 q-13 0 -27 1 l-106 0 q-29 0 -58 -29 l-19 -19 l0 125 q0 63 27 90 q19 19 50 19 l70 0 q31 0 46.5 15.5 q15.5 15.5 16.5 49.5 q0 305 0 609 l-294 0 q-1 -257 -24 -393 q-31 -170 -105 -299 q-45 -78 -79.5 -113 q-34.5 -35 -72.5 -35 q-45 0 -70 25 q-25 25 -25 78 q0 35 58 118 q87 127 119 331 q19 123 21 288 l-91 0 q-61 0 -90 -18 l-17 -11 l0 118 q0 40 23 62 q26 27 84 27 l91 0 l0 541 q0 90 44 134 q42 41 120 41 q6 0 11 0 l290 0 q133 0 171 -83 q9 -21 12 -41.5 q3 -20.5 3 -35 q0 -14.5 -1 -25.5 l0 -531 l168 0 l0 533 q0 90 46.5 136.5 q46.5 46.5 132.5 46.5 l316 0 q164 0 182 -129 q2 -16 2 -30.5 q0 -14.5 -1 -25.5 l0 -531 l49 0 q58 0 86 -28 q23 -23 23 -61 Z" /><glyph glyph-name="uni518D" unicode="&#x518d;" d="M1117 661 l0 -192 l420 0 l0 192 l-420 0 ZM931 661 l-410 0 l0 -192 l410 0 l0 192 ZM1537 827 l0 117 q0 38 -18.5 56.5 q-18.5 18.5 -56.5 18.5 l-345 0 l0 -192 l420 0 ZM931 1019 l-335 0 q-38 0 -56.5 -18.5 q-18.5 -18.5 -18.5 -56.5 l0 -117 l410 0 l0 192 ZM1953 384 q0 -57 -44 -78 q-23 -11 -59 -11 l-127 0 l0 -333 q0 -77 -42 -119 q-42 -42 -119 -42 l-228 0 q-51 0 -80 -18 l-17 -11 l0 118 q2 89 97 89 l164 0 q20 0 29.5 9.5 q9.5 9.5 9.5 29.5 l0 277 l-1018 0 l0 -395 q0 -58 -14 -71 q-5 -6 -13 -6 l-132 0 q-8 0 -13 5 q-5 5 -7 10.5 q-2 5.5 -4 13.5 q-3 17 -3 48 l0 395 l-135 0 q-55 0 -84 -18 l-17 -11 l0 118 q0 38 22 59 q25 26 79 26 l135 0 l0 517 q0 108 49 156 q46 47 146 47 l403 0 l0 182 l-633 0 q-61 0 -90 -20 l-17 -12 l0 119 q0 38 22 60 q27 27 85 27 l1452 0 q59 0 88 20 l17 12 l0 -119 q0 -39 -22 -61 q-26 -26 -83 -26 l-633 0 l0 -182 l403 0 q107 0 155 -48 q48 -48 48 -155 l0 -517 l127 0 q56 0 85 22 l18 13 l0 -120 Z" /><glyph glyph-name="uni5199" unicode="&#x5199;" d="M927 -148 q-6 18 -6 36.5 q0 18.5 3 31.5 q8 42 44 59 q23 12 58 12 l48 -2 l58 0 q201 0 234 68 q28 55 36 180 l-1196 0 q-61 0 -91 -17 l-16 -9 l0 117 q0 40 23 62 q26 27 84 27 l1208 0 q7 128 7 130 q0 24 -12 36 q-14 14 -47 14 l-744 0 q-91 0 -134 43 q-35 35 -35 94 q0 49 16 146 l42 341 q7 55 32.5 80.5 q25.5 25.5 66.5 25.5 q52 0 77 -25 q22 -22 22 -62 l0 -1 l-13 -112 l860 0 q59 0 88 20 l17 12 l0 -119 q0 -39 -22 -61 q-26 -26 -83 -26 l-884 0 q-16 -148 -16 -151 q0 -12 7 -18 q11 -11 41 -11 l728 0 q105 0 153 -48 q40 -40 40 -111 l-9 -197 l228 0 q63 0 92 18 l17 11 l0 -118 q0 -41 -23 -64 q-27 -27 -86 -27 l-242 0 q-8 -78 -15.5 -118.5 q-7.5 -40.5 -11.5 -60 q-4 -19.5 -8 -36.5 q-4 -17 -8.5 -32.5 q-4.5 -15.5 -9.5 -27.5 q-10 -26 -23 -46 q-13 -20 -31 -38 q-49 -50 -127 -65 q-111 -22 -320 -22 q-95 0 -117 61 ZM135 1150 l0 182 q0 126 56 174 q65 55 166 55 q3 0 7 0 l1318 0 q112 0 173 -55 q56 -49 56 -166 l0 -190 q0 -48 -3.5 -72 q-3.5 -24 -11.5 -32 q-6 -5 -12 -5 l-140 0 q-10 0 -16 11 q-11 18 -11 98 l0 170 q0 29 -15 44 q-15 15 -48 17 l-1262 0 q-30 0 -44 -14 q-15 -15 -15 -47 l0 -170 q0 -48 -3.5 -72 q-3.5 -24 -11.5 -32 q-5 -5 -12 -5 l-144 0 q-7 0 -12 5 q-5 5 -7 12 q-2 7 -5 25.5 q-3 18.5 -3 66.5 Z" /><glyph glyph-name="uni51B3" unicode="&#x51b3;" d="M113 56 q0 39 43 127 q134 271 218 534 q19 60 58 76 q15 6 32 6 q72 0 86 -55 q3 -13 3 -28 q0 -64 -121 -370 q-56 -142 -95.5 -237 q-39.5 -95 -52.5 -110 q-31 -36 -74 -36 q-49 0 -73 24 q-24 24 -24 69 ZM1255 1157 q-4 -267 -17 -430 l319 0 l0 371 q0 59 -59 59 l-243 0 ZM181 1438 q0 47 29 71 q24 19 62 19 q17 0 22 -3 q27 -13 150 -116 q88 -73 103 -89 q44 -44 44 -86 q0 -5 0 -9 q-4 -46 -27.5 -68 q-23.5 -22 -65.5 -22 q-25 0 -50 13 q-25 13 -58 46 q-102 98 -115 111 q-79 79 -92 118 q-2 8 -2 15 ZM1881 -191 q-15 -6 -28.5 -6 q-13.5 0 -26 2.5 q-12.5 2.5 -28.5 8.5 q-145 52 -279.5 155 q-134.5 103 -230.5 232 q-82 111 -118 219 q-48 -153 -179 -296 q-146 -161 -328 -260 q-61 -33 -104 -49 q-43 -16 -71 -16 q-47 0 -69 23.5 q-22 23.5 -22 58.5 q0 60 75 91 l0 0 q202 77 357 241 q149 157 197 338 l-340 0 q-59 0 -88 -18 l-17 -11 l0 118 q0 39 22 61 q26 26 83 26 l364 0 q13 138 21 430 l-339 0 q-60 0 -89 -22 l-18 -13 l0 120 q0 40 23 62 q26 27 84 27 l337 0 l0 203 q0 44 7 62 q2 5 7 10 q5 5 13 5 l128 0 q8 0 13 -5 q5 -5 7 -10.5 q2 -5.5 4 -13.5 q3 -17 3 -48 l0 -203 l327 0 q77 0 119 -42 q42 -42 42 -119 l0 -443 l115 0 q43 0 72 20 l17 12 l0 -119 q0 -44 -22.5 -66.5 q-22.5 -22.5 -66.5 -22.5 l-590 0 q77 -192 224 -321 q154 -135 381 -236 q72 -33 72 -90 q0 -22 -9 -41 q-18 -41 -51 -54 Z" /><glyph glyph-name="uni51B5" unicode="&#x51b5;" d="M141 96 q0 24 47 125 q132 276 216 527 q30 85 98 85 q49 0 73 -24 q24 -24 24 -69 q0 -12 -15 -59 q-26 -82 -78 -225 q-100 -280 -140 -359 q-53 -104 -116 -104 q-55 0 -82 27 q-27 27 -27 76 ZM885 944 q0 -67 71 -71 l626 0 q67 0 71 71 l0 344 q0 71 -71 71 l-626 0 q-51 0 -65 -39 q-5 -14 -6 -32 l0 -344 ZM1663 1542 q185 0 185 -185 q0 -14 -1 -29 l0 -422 q0 -104 -51 -161 q-45 -52 -154 -52 l-119 0 l0 -581 q0 -27 16 -43 q26 -26 93 -26 q78 0 100 22 q21 23 25 133 q2 85 57 105 q16 6 37 6 q43 0 67 -25 q29 -28 29 -88 q0 -157 -47 -251 q-45 -90 -260 -90 q-177 0 -238 38 q-65 41 -65 129 l0 671 l-200 0 l0 -25 q0 -291 -117 -497 q-110 -194 -331 -293 q-99 -45 -153 -45 q-47 0 -72 25 q-25 25 -25 74 q0 36 27.5 63.5 q27.5 27.5 84.5 44.5 q144 47 235.5 138.5 q91.5 91.5 126.5 230.5 q29 109 39 284 l-44 0 q-111 0 -161 52.5 q-50 52.5 -50 152.5 l0 430 q0 104 51 161 q1 1 2 3 q49 49 152 49 l732 0 q15 1 29 1 ZM219 1470 q0 49 26 75 q26 26 77 26 q37 0 166 -86 q56 -37 88 -69 q41 -41 41 -74 q0 -55 -27 -82 q-27 -27 -76 -27 q-15 0 -28 5 q-13 5 -22 9.5 q-9 4.5 -19 11.5 q-19 12 -46 34 q-27 22 -61 44 q-61 39 -84 62 q-35 35 -35 71 Z" /><glyph glyph-name="uni51C6" unicode="&#x51c6;" d="M1263 27 l0 290 l-358 0 l0 -207 q0 -44 19.5 -63.5 q19.5 -19.5 61.5 -19.5 l277 0 ZM905 483 l358 0 l0 244 l-358 0 l0 -244 ZM105 76 q0 20 10.5 48.5 q10.5 28.5 32.5 68.5 q114 211 198 472 q44 140 116 140 q52 0 77 -26 q24 -23 24 -67 q0 -68 -107 -332 q-108 -273 -155 -340 q-49 -73 -91 -73 q-51 0 -78 27 q-27 27 -27 82 ZM1263 895 l0 236 l-307 0 q-27 0 -39 -12 q-12 -12 -12 -35 q0 -2 0 -4 l0 0 l0 -185 l358 0 ZM183 1446 q0 42 23 65 q26 26 80 26 q58 0 173 -90 q39 -31 65 -58 q55 -54 55 -91 q0 -50 -26.5 -76.5 q-26.5 -26.5 -78.5 -26.5 q-32 0 -95 50 q-153 118 -157 121 q-17 15 -26 30 q-13 21 -13 50 ZM903 -144 q-185 0 -185 185 q0 14 1 29 l0 907 q-103 -140 -159 -156 q-8 -2 -16 -2 q-57 0 -79 38 q-14 23 -14 59 q0 36 56 96.5 q56 60.5 104 124.5 q48 64 89 133 q81 138 134 296 q10 28 28 46 q28 29 76 29 q55 0 80 -25 q21 -21 21 -58 q0 -49 -116 -255 l358 0 q46 92 77 185 q37 109 68 129 q31 20 66 20 q52 0 77 -25 q22 -22 22 -60 q0 -51 -118 -249 l359 0 q57 0 86 20 l17 12 l0 -119 q0 -38 -22 -59 q-25 -26 -81 -26 l-385 0 l0 -234 l341 0 q47 0 76 20 l17 12 l0 -119 q0 -53 -40 -73 q-22 -10 -53 -10 l-341 0 l0 -242 l341 0 q46 0 75 22 l18 13 l0 -120 q0 -38 -21 -59 q-24 -24 -72 -24 l-341 0 l0 -290 l397 0 q58 0 87 22 l18 13 l0 -120 q0 -37 -21 -59 q-27 -26 -84 -26 l-912 0 q-15 -1 -29 -1 Z" /><glyph glyph-name="uni51E0" unicode="&#x51e0;" d="M99 -46 q0 51 76 120 q156 140 221 326 q65 182 65 650 q-6 295 -6 298 q0 94 51 145 q56 56 172 56 l568 0 q13 1 26 1 q97 0 147.5 -50.5 q50.5 -50.5 50.5 -149.5 q0 -11 -1 -22 l0 -1206 q0 -37 17 -54 q6 -7 33.5 -12 q27.5 -5 86.5 -5 q103 0 124 42 q15 30 15 91 l-2 138 q0 56 28 84 q25 25 71 25 q71 0 95 -49 q12 -24 12 -58 q0 -195 -22 -289 q-25 -101 -83 -144 q-50 -36 -276 -36 q-173 0 -235 31 q-66 31 -66 142 l0 1254 q0 47 -31 63 q-17 9 -42 10 l-466 0 q-33 0 -51 -18 q-24 -24 -24 -81 l6 -252 l0 0 q0 -644 -186 -900 q-88 -122 -152 -187 q-74 -74 -121 -74 q-47 0 -73 26 q-28 28 -28 85 Z" /><glyph glyph-name="uni51FA" unicode="&#x51fa;" d="M1871 544 l0 -426 q0 -114 -55 -170 q-56 -55 -162 -55 q-4 0 -8 0 l-1240 0 q-225 0 -225 225 l0 426 q0 50 3.5 75 q3.5 25 11.5 33 q5 5 12 5 l134 0 q7 0 12 -5 q5 -5 7 -12 q2 -7 5 -26 q3 -19 3 -68 l0 -390 q0 -39 19 -58 q19 -19 60 -19 l475 0 l0 690 l-445 0 q-116 0 -167 52 q-43 42 -43 127 q0 14 1 28 l0 392 q0 58 14 71 q5 6 13 6 l134 0 q23 0 26 -47 q1 -10 1 -24 l0 -342 q0 -40 18.5 -58.5 q18.5 -18.5 56.5 -18.5 l391 0 l0 565 q0 79 8 104 q6 17 19 17 l138 0 q7 0 10 -4 q6 -5 8.5 -13 q2.5 -8 5.5 -29 q3 -21 3 -75 l0 -565 l405 0 q39 0 58 19 q19 19 19 58 l0 340 q0 47 3.5 70.5 q3.5 23.5 11.5 31.5 q5 5 12 5 l134 0 q7 -1 12 -5 q15 -15 15 -108 l0 -390 q1 -13 1 -25 q0 -90 -46.5 -136.5 q-46.5 -46.5 -137.5 -46.5 q-13 0 -26 1 l-461 0 l0 -690 l491 0 q37 0 56 19 q19 19 21 58 l0 390 q0 50 3.5 75 q3.5 25 11.5 33 q5 5 12 5 l134 0 q7 0 12 -5 q8 -8 11.5 -33.5 q3.5 -25.5 3.5 -76.5 Z" /><glyph glyph-name="uni5206" unicode="&#x5206;" d="M1043 -82 q0 41 24 65 q29 28 90 32 q97 5 150 18 q42 11 55 25 q13 14 25 59 q16 60 28 170 q22 204 22 259 q0 44 -19.5 63.5 q-19.5 19.5 -57.5 19.5 l-464 0 q-31 -315 -127 -479 q-87 -148 -274 -248 q-158 -83 -249 -83 q-43 0 -67 24 q-24 24 -24 75 q0 35 30 58.5 q30 23.5 90 40.5 q206 61 308 196 q108 140 127 416 l-196 0 q-67 0 -97 -17 l-16 -9 l0 117 q0 40 23 63 q28 28 90 28 l908 0 q111 0 162 -51 q43 -43 43 -120 q0 -181 -30 -435 q-33 -280 -144 -335 q-110 -53 -305 -53 q-53 0 -79 26 q-26 26 -26 75 ZM105 712 q0 41 86 120 q89 81 190 240 q60 96 93.5 156 q33.5 60 51.5 112 q17 53 45 81 q28 28 67 28 q51 0 73 -22 q22 -22 22 -65 q0 -95 -212 -428 q-100 -159 -185.5 -241 q-85.5 -82 -141.5 -82 q-41 0 -63 23 q-26 25 -26 78 ZM915 1359 l0 125 q0 63 27 90 q19 19 50 19 l244 0 q90 0 139 -36 q36 -29 80 -174 q98 -332 393 -528 q44 -29 69.5 -61 q25.5 -32 25.5 -64 q0 -51 -25 -76 q-25 -25 -72 -25 q-37 0 -97 38 q-58 36 -127 105 q-147 143 -238 303 q-91 157 -103 252 q-6 46 -26 65 q-14 14 -35 15 l-228 0 q-29 0 -58 -29 l-19 -19 Z" /><glyph glyph-name="uni5207" unicode="&#x5207;" d="M1420 -185 q-59 0 -88 29 q-27 27 -27 76 q0 42 25 67 q36 36 120 36 q119 0 149 31 q5 4 7 9 q25 52 43 304 q16 221 22 687 q4 182 4 184 q0 35 -17 52 q-17 17 -54 17 l-283 0 q-9 -579 -88 -878 q-79 -289 -300 -497 q-58 -55 -107 -83 q-49 -28 -84 -28 q-47 0 -72 27.5 q-25 27.5 -25 73.5 q0 56 102 116 q206 118 299 386 q89 256 89 778 l0 105 l-235 0 q-67 0 -97 -17 l-16 -9 l0 117 q0 40 23 63 q28 28 90 28 l742 0 q114 0 170 -56 q51 -51 51 -147 l0 0 l-20 -666 q-8 -245 -30 -439 q-22 -196 -53 -252 q-35 -67 -145 -95 q-78 -19 -195 -19 ZM580 135 q-187 0 -235 47 q-38 39 -38 136 l0 561 l-88 -16 q-33 -2 -37 -2 q-36 0 -58.5 22 q-22.5 22 -22.5 63 q0 41 22.5 63.5 q22.5 22.5 64.5 29.5 q60 10 119 20 l0 445 q0 43 3.5 65.5 q3.5 22.5 11.5 30.5 q5 5 12 5 l124 0 q17 0 22 -27 q5 -25 5 -74 l0 -417 l350 58 q30 3 36 3 q37 0 59 -22 q23 -23 23 -64 q0 -39 -27 -63 q-25 -23 -71 -28 l-370 -62 l0 -513 q0 -49 28 -62 q34 -17 95 -17 q64 0 95 15 q17 8 23 21 q21 46 23 139 l0 0 q4 90 64 103 q11 2 23.5 2 q12.5 0 24.5 -2 q24 -5 39 -20 q23 -23 23 -69 q0 -132 -37 -228 q-19 -51 -48 -80.5 q-29 -29.5 -66 -40.5 q-74 -22 -192 -22 Z" /><glyph glyph-name="uni5212" unicode="&#x5212;" d="M1382 291 q-41 0 -64 23 q-27 27 -27 86 l0 976 q0 58 14 71 q5 6 13 6 l128 0 q8 0 13 -5 q5 -5 7 -10 q7 -18 7 -62 l0 -976 q0 -75 -45 -99 q-20 -10 -46 -10 ZM707 1490 q0 27 26.5 49 q26.5 22 56.5 22 q42 0 123 -73 q59 -52 85.5 -86 q26.5 -34 26.5 -72 q0 -35 -23.5 -57 q-23.5 -22 -55.5 -22 q-38 0 -84 45 l-58 54 l-50 48 q-47 47 -47 92 ZM1291 100 q0 -208 -96 -250 q-19 -9 -42 -11 q-13 -1 -26 -1 q-120 0 -227 86 q-112 91 -212 239 q-91 -91 -238 -198 q-154 -110 -232 -110 q-39 0 -61 22 q-26 26 -26 79 q0 27 10 46 q10 19 33 37 l101 47 q160 74 320 238 q-105 220 -158 616 q-200 -23 -243 -23 q-43 0 -64 21 q-21 21 -21 68 q0 40 23 63 q23 23 67 26 q109 9 217 19 q-17 181 -23 360 q0 5 0 10 q0 67 30 97 q24 24 65 24 q41 0 66 -27 q25 -27 27 -77 q4 -55 8 -172 l11 -199 q239 22 507 51 q7 1 14 1 q40 0 63 -23 q23 -23 23 -61 q0 -41 -27 -66 q-27 -25 -73 -29 l-491 -49 q29 -253 111 -469 q86 121 181 324 q35 78 100 78 q55 0 74 -40 q9 -19 9 -45 q0 -26 -20 -76.5 q-20 -50.5 -69 -136.5 q-93 -169 -190 -288 q158 -238 279 -244 q2 0 4 0 q7 0 14 7 q7 7 10.5 24 q3.5 17 3.5 35.5 q0 18.5 -2 38.5 q0 23 -4 51 l-2 49 q0 52 24 76 q19 19 51 19 q45 0 66 -22 q21 -22 25 -72 q10 -86 10 -163 ZM1848 12 q0 -101 -51.5 -152.5 q-51.5 -51.5 -152.5 -51.5 q-11 0 -22 1 l-134 0 q-66 0 -96 -11 l-15 -6 l0 114 q0 44 25 69 q28 28 86 28 l90 0 q44 0 64.5 20.5 q20.5 20.5 20.5 62.5 l0 1416 q0 48 3.5 72 q3.5 24 11.5 32 q6 5 12 5 l130 0 q7 0 12 -5 q15 -15 15 -104 l0 -1464 q1 -13 1 -26 Z" /><glyph glyph-name="uni5217" unicode="&#x5217;" d="M1213 330 l0 1016 q0 48 4 72 q5 37 23 37 l128 0 q7 0 12 -5 q5 -5 7 -12 q2 -7 4 -20 q4 -24 4 -72 l0 -1016 q0 -48 -3.5 -72 q-3.5 -24 -11.5 -32 q-5 -5 -12 -5 l-128 0 q-7 0 -12 5 q-15 15 -15 104 ZM228 -165 q-42 0 -68.5 24 q-26.5 24 -26.5 67 q0 74 83 104 q327 125 490 393 q-131 104 -208 154 q-40 25 -54 43 q-15 20 -15 51 q0 34 22.5 54 q22.5 20 62.5 20 q33 0 97.5 -37 q64.5 -37 171.5 -124 q78 199 78 328 q0 18 -9 26 q-10 11 -36 11 l-293 0 q-75 -171 -172 -311 q-46 -67 -83 -104 q-45 -45 -78 -45 q-44 0 -66.5 22.5 q-22.5 22.5 -22.5 62.5 q0 52 63 123 q109 131 200 339 q82 187 105 341 l-245 0 q-59 0 -88 -18 l-17 -11 l0 118 q0 40 23 62 q26 27 82 27 l828 0 q61 0 90 18 l17 11 l0 -118 q0 -40 -23 -62 q-26 -27 -84 -27 l-399 0 q-27 -150 -62 -254 l291 0 q92 0 134 -42 q35 -35 35 -97 q0 -140 -58 -347 q-63 -216 -168 -369 q-101 -148 -305 -293 q-192 -140 -292 -140 ZM1371 -90 q0 46 26 71 q29 30 91 30 l86 0 q44 0 63.5 19.5 q19.5 19.5 19.5 61.5 l0 1410 q0 49 3.5 73.5 q3.5 24.5 11.5 32.5 q5 5 12 5 l134 0 q10 0 16 -11 q11 -18 11 -100 l0 -1464 q1 -13 1 -26 q0 -102 -52 -154 q-52 -52 -154 -52 q-11 0 -22 1 l-130 0 q-73 0 -104 -6 l-13 -2 l0 111 Z" /><glyph glyph-name="uni521D" unicode="&#x521d;" d="M842 263 q-26 0 -123 87 q-70 61 -91 92 q-11 17 -11 28 q0 52 37 70 q18 9 42 9 q24 0 56 -18 q41 -24 105 -85 q39 -38 53.5 -60 q14.5 -22 14.5 -36 q0 -44 -21.5 -65.5 q-21.5 -21.5 -61.5 -21.5 ZM945 804 q0 -17 -16 -43 q-22 -35 -86 -93 l0 0 q-93 -83 -130 -92 q-6 -1 -11 -1 q-39 0 -60 21 q-21 21 -21 62 q0 40 53 77 q29 20 61 55 q35 39 41 47 q40 48 83 48 q43 0 64.5 -21.5 q21.5 -21.5 21.5 -59.5 ZM1658 1497 q205 0 205 -189 l0 0 l-14 -652 q-12 -500 -56 -671 q-12 -46 -46 -79 q-89 -89 -327 -89 q-51 0 -77 26 q-26 26 -26 77 q0 40 24 64 q32 32 103 33 q120 4 156 28 l1 1 q2 1 3 1 q16 16 29 121 q16 125 26 404 q16 662 16 665.5 q0 3.5 -0.5 9.5 q-0.5 6 -1.5 12 q-1 6 -2.5 11 q-1.5 5 -3.5 10 q-16 33 -67 33 l-261 0 q-1 -488 -64 -801 q-63 -317 -265 -561 q-50 -61 -93 -93.5 q-43 -32.5 -75 -32.5 q-42 0 -65 23 q-26 26 -26 78 q0 47 58 98 q193 178 269 411 q76 241 77 878 l-187 0 q-34 0 -59 -5 l0 -92 q0 -41 -104 -192 q-93 -137 -208 -264 l0 -870 q0 -41 -3.5 -62.5 q-3.5 -21.5 -11.5 -29.5 q-5 -5 -12 -5 l-122 0 q-18 0 -23 34 q-4 22 -4 63 l0 687 q-158 -159 -225 -172 q-7 -2 -14 -2 q-37 0 -58 21 q-23 23 -23 70 q0 56 65 103 q175 125 352 326 q158 179 169 219 q0 1 0 2.5 q0 1.5 0 3.5 q-2 9 -21 9 l-444 0 q-29 0 -58 -29 l-19 -19 l0 125 q0 52 24 76 q19 19 53 19 l201 0 l0 221 q0 37 2.5 52 q2.5 15 5 21 q2.5 6 5.5 10 q7 6 14 6 l126 0 q10 0 17 -11 q10 -16 10 -78 l0 -221 l149 0 q70 0 109 -2 l0 79 q0 58 45 79 q25 12 62 12 l690 0 ZM1603 47 q0 0 0 0 l0 0 Z" /><glyph glyph-name="uni5229" unicode="&#x5229;" d="M1175 336 l0 1004 q0 45 3.5 68.5 q3.5 23.5 11.5 31.5 q5 5 12 5 l132 0 q18 0 23 -35 q4 -25 4 -70 l0 -1004 q0 -70 -9 -90 q-7 -13 -18 -13 l-132 0 q-14 1 -19 17 q-3 7 -5.5 24.5 q-2.5 17.5 -2.5 61.5 ZM1353 -96 q0 44 25 69 q28 28 86 28 l104 0 q43 0 66 24.5 q23 24.5 23 68.5 l0 1412 q0 44 4 67 q5 36 23 36 l130 0 q7 0 11 -4.5 q4 -4.5 7 -8.5 q9 -20 9 -90 l0 -1456 q0 -130 -60 -190 q-54 -54 -161 -54 q-11 0 -22 1 l-134 0 q-66 0 -96 -11 l-15 -6 l0 114 ZM723 727 q20 12 47 12 q9 0 24.5 -10 q15.5 -10 34 -26 q18.5 -16 28.5 -26 q10 -10 17 -17.5 q7 -7.5 15 -16 q8 -8.5 15 -17.5 q16 -18 33 -39 q72 -91 102 -138.5 q30 -47.5 30 -67.5 q0 -43 -22.5 -65.5 q-22.5 -22.5 -66.5 -22.5 q-50 0 -104 92 q-23 43 -137 188 l-16 23 l0 -702 q0 -43 -3.5 -65.5 q-3.5 -22.5 -11.5 -30.5 q-5 -5 -12 -5 l-130 0 q-18 0 -23 34 q-4 24 -4 67 l0 708 q-73 -171 -174 -318 q-66 -98 -111 -142 q-39 -39 -64 -39 q-42 0 -65 23 q-26 26 -26 80 q0 44 63 113 q233 263 360 602 l-296 0 q-63 0 -93 -17 l-16 -9 l0 117 q0 41 23 64 q27 27 86 27 l313 0 l0 261 l-294 -29 q-7 -1 -17.5 -1 q-10.5 0 -25.5 5 q-16 4 -29 17 q-24 26 -24 72 q0 44 33 65 q24 18 135 24 q277 14 556 94 l46 8 l1 0 q51 0 76 -25 q25 -25 25 -72 q0 -47 -54 -74 q-41 -19 -244 -57 l0 -288 l241 0 q61 0 91 17 l16 9 l0 -117 q0 -41 -23 -64 q-27 -27 -84 -27 l-241 0 l0 -194 Z" /><glyph glyph-name="uni5230" unicode="&#x5230;" d="M1390.5 189 q-42.5 0 -66 23.5 q-23.5 23.5 -23.5 73.5 l0 1064 q0 44 3.5 67 q3.5 23 11.5 31 q5 5 12 5 l126 0 q7 0 11 -4.5 q4 -4.5 7 -8.5 q9 -20 9 -90 l0 -1064 q0 -49 -25 -74 q-23 -23 -65.5 -23 ZM767 557 l281 0 q58 0 87 22 l18 13 l0 -120 q0 -37 -21 -59 q-27 -26 -84 -26 l-281 0 l0 -295 l368 41 q49 5 73 -19 q21 -21 21 -62 q0 -34 -23 -57 q-18 -18 -48 -22 q-377 -60 -933 -120 l-23 -2 q-46 0 -68.5 22.5 q-22.5 22.5 -22.5 62.5 q0 66 50 85 q15 6 36 8 q191 21 382 43 l0 315 l-305 0 q-57 0 -86 -20 l-17 -12 l0 119 q0 36 21 57 q26 26 82 26 l305 0 l0 239 q-213 -27 -348 -37 q-9 -1 -17 -1 q-50 0 -74.5 24.5 q-24.5 24.5 -24.5 73.5 q0 41 24.5 63 q24.5 22 75.5 24 q39 2 131 9 q88 246 126 395 l-238 0 q-29 0 -58 -29 l-19 -19 l0 125 q0 53 24 78 q20 19 53 19 l864 0 q61 0 90 20 l17 12 l0 -119 q0 -38 -22 -60 q-27 -27 -85 -27 l-426 0 q-71 -213 -145 -381 q230 19 393 39 l-28 46 q-30 53 -36 73 q-3 10 -3 20.5 q0 10.5 2 20.5 q4 20 17 33 q21 21 64 21 q20 0 44 -19 q53 -41 137 -166 q93 -140 114 -203 q6 -18 6 -34 q0 -16 -5 -32 q-18 -50 -90 -50 q-31 0 -56 25 q-19 20 -41 56 l-37 60 l-54 -9 q-42 -6 -89 -13.5 q-47 -7.5 -98 -13.5 l0 -263 ZM1859 1518 l0 -1498 q0 -107 -55 -162 q-51 -51 -150 -51 l-184 0 q-63 0 -93 -15 l-16 -8 l0 116 q0 42 24 65 q27 28 85 28 l128 0 q39 0 56 17 q17 17 17 56 l0 1452 q0 44 3.5 67 q3.5 23 11.5 31 q5 5 12 5 l134 0 q7 0 11 -4.5 q4 -4.5 7 -8.5 q9 -20 9 -90 Z" /><glyph glyph-name="uni5236" unicode="&#x5236;" d="M1299 222 q-26 26 -26 78 l0 1106 q0 48 4 72 q5 37 23 37 l132 0 q7 0 12 -5 q5 -5 7 -12 q2 -7 5 -25.5 q3 -18.5 3 -66.5 l0 -1106 q0 -51 -25 -76 q-25 -25 -68.5 -25 q-43.5 0 -66.5 23 ZM1855 1516 l0 -1496 q0 -111 -51 -160 q-56 -53 -154 -53 l-138 0 q-66 0 -97 -9 l-14 -5 l0 113 q0 44 25 69 q28 28 86 28 l82 0 q39 0 57 18 q18 18 18 55 l0 1440 q0 44 4 67 q4 27 14 33 q4 3 9 3 l132 0 q7 0 12 -5 q5 -5 7.5 -12 q2.5 -7 5 -24.5 q2.5 -17.5 2.5 -61.5 ZM1187 938 q0 -36 -21 -57 q-26 -26 -82 -26 l-343 0 l0 -156 l211 0 q14 1 28 1 q84 0 127 -43 q43 -43 43 -127 q0 -13 -1 -28 l0 -344 q0 -106 -49 -155 q-45 -44 -136 -44 q-8 0 -16 0 l-72 0 q-47 0 -76 -18 l-17 -11 l0 118 q0 43 23 65 q23 24 70 24 l50 0 q27 0 39 12 q12 12 12 35 q0 2 0 4 l0 0 l0 272 q0 34 -15.5 49.5 q-15.5 15.5 -47.5 15.5 q-2 0 -4 0 l-169 0 l0 -637 q0 -48 -9 -65 q-6 -12 -18 -12 l-120 0 q-12 0 -18 12 q-9 17 -9 65 l0 637 l-139 0 q-36 0 -51.5 -15.5 q-15.5 -15.5 -15.5 -45.5 q0 -2 0 -4 l0 -416 q0 -39 -3.5 -59.5 q-3.5 -20.5 -10 -27 q-6.5 -6.5 -13.5 -6.5 l-118 0 q-7 0 -14 6 q-13 14 -13 87 l0 458 q0 109 49 157 q41 41 120 41 q14 0 28 -1 l181 0 l0 156 l-361 0 q-54 0 -83 -24 l-18 -14 l0 121 q0 38 22 59 q25 26 79 26 l361 0 l0 174 l-240 0 q-43 -93 -73 -123 q-26 -27 -58 -27 q-44 0 -65.5 21.5 q-21.5 21.5 -21.5 59.5 q0 13 9 35 q16 39 46 96 q56 109 100 244 q20 66 86 66 q44 0 64.5 -20.5 q20.5 -20.5 20.5 -56.5 q0 -26 -21 -82 l-18 -45 l171 0 l0 181 q0 39 3.5 59.5 q3.5 20.5 10.5 28.5 q6 5 13 5 l120 0 q10 0 17 -11 q10 -17 10 -82 l0 -181 l303 0 q52 0 81 22 l18 13 l0 -120 q0 -37 -21 -58 q-25 -25 -78 -25 l-303 0 l0 -174 l343 0 q56 0 85 22 l18 13 l0 -120 Z" /><glyph glyph-name="uni523B" unicode="&#x523b;" d="M1213 -12 q0 -47 -25 -71 q-25 -26 -76 -26 q-51 0 -115 80 q-71 85 -213 226 q-146 -131 -328 -240 q-187 -112 -258 -112 q-40 0 -62.5 22.5 q-22.5 22.5 -22.5 70.5 q0 29 16 53 q16 20 129 71 q259 114 485 340 q132 132 230 284 q49 77 101 77 q50 0 74 -25 q23 -22 23 -63 q0 -41 -55 -119 q-66 -91 -210 -239 q227 -190 285 -276 q22 -33 22 -53 ZM1447 298 q0 -64 8 -80 l-3 1 l0 -22 l-194 0 l0 22 l-3 -1 q8 13 8 80 l0 1064 q0 48 3.5 72 q3.5 24 11.5 32 q6 5 12 5 l130 0 q11 0 17 -12 q3 -6 4.5 -13.5 q1.5 -7.5 2.5 -15.5 q3 -20 3 -68 l0 -1064 ZM153 940 q0 42 21.5 63.5 q21.5 21.5 63.5 21.5 q42 0 142 -81 q84 123 145 249 l-331 0 q-49 0 -78 -18 l-17 -11 l0 118 q0 42 23.5 65.5 q23.5 23.5 71.5 23.5 l383 0 l0 157 q0 50 3 69 q3 19 5 26.5 q2 7.5 6 11.5 q6 6 13 6 l136 0 q7 -1 12 -5 q8 -8 11.5 -33 q3.5 -25 3.5 -75 l0 -157 l339 0 q51 0 80 18 l17 11 l0 -118 q0 -42 -23 -64 q-24 -25 -74 -25 l-384 0 q-117 -209 -225 -348 l114 -107 q93 103 218 304 q48 77 97 77 q67 0 88 -40 q9 -18 9 -41 q0 -34 -37 -97 q-46 -77 -147 -200 q-202 -248 -448 -430 q-102 -75 -160 -96 q-22 -8 -39 -8 q-36 0 -56 20 q-23 23 -23 71 q0 54 94 108 q114 63 277 205 q-132 134 -267 240 q-64 52 -64 89 ZM1856 16 q0 -104 -53 -157 q-53 -53 -155 -53 q-11 0 -22 1 l-106 0 q-66 0 -96 -11 l-15 -6 l0 114 q0 44 25 69 q28 28 86 28 l74 0 q38 0 56.5 18.5 q18.5 18.5 18.5 58.5 l0 1432 q0 44 4 67 q4 27 14 33 q4 3 9 3 l132 0 q7 0 12 -5 q5 -5 7.5 -12 q2.5 -7 5 -24.5 q2.5 -17.5 2.5 -61.5 l0 -1468 q1 -13 1 -26 Z" /><glyph glyph-name="uni524D" unicode="&#x524d;" d="M403 421 l410 0 l0 148 l-410 0 l0 -148 ZM813 838 q0 25 -12 37 q-12 12 -37 14 l-312 0 q-23 0 -35 -12 q-12 -12 -14 -39 l0 -103 l410 0 l0 103 ZM1179 228 l0 700 q0 40 4 61 q5 34 23 34 l132 0 q7 0 12 -5 q5 -5 7.5 -11.5 q2.5 -6.5 5 -22.5 q2.5 -16 2.5 -56 l0 -700 q0 -38 -3.5 -58 q-3.5 -20 -10 -26.5 q-6.5 -6.5 -13.5 -6.5 l-132 0 q-14 1 -19 16 q-3 6 -5.5 21.5 q-2.5 15.5 -2.5 53.5 ZM219 -106 l0 992 q0 94 43 137 q39 38 118 38 q8 0 16 0 l426 0 q144 0 171 -99 q7 -24 7 -55 q0 -10 -1 -21 l0 -868 q1 -13 1 -30 q0 -17 -3.5 -41.5 q-3.5 -24.5 -14.5 -49.5 q-40 -90 -171 -90 q-8 0 -15 0 l-96 0 q-61 0 -91 -15 l-16 -8 l0 116 q0 62 43 83 q20 10 50 10 l70 0 q27 0 41 14 q14 14 16 45 l0 205 l-410 0 l0 -355 q0 -49 -3 -68 q-3 -19 -5 -26 q-2 -7 -7 -12 q-5 -5 -12 -5 l-130 0 q-7 0 -12 5 q-5 5 -7.5 12 q-2.5 7 -3.5 18 q-4 24 -4 68 ZM1349 -94 q0 46 25.5 71.5 q25.5 25.5 79.5 25.5 l94 0 q33 0 50.5 17.5 q17.5 17.5 18.5 55.5 l0 904 q0 44 3.5 67 q3.5 23 11.5 31 q5 5 12 5 l134 0 q7 0 11 -4.5 q4 -4.5 7 -8.5 q9 -20 9 -90 l0 -954 q0 -118 -54 -172 q-48 -48 -143 -48 q-11 0 -22 1 l-132 0 q-60 0 -91 -9 l-14 -5 l0 113 ZM99 1272 q0 41 23 64 q27 27 84 27 l369 0 l-41 92 q-32 70 -36 81 q-4 11 -5.5 14 q-1.5 3 -1.5 4 q0 1 -1 3 q-1 3 -1 7 q0 32 19 51 q24 24 78 24 q79 0 138 -135 l61 -141 l433 0 l76 203 q10 29 27 45 q32 32 81 32 q57 0 83 -26 q22 -22 22 -61 q0 -45 -55 -143 q-14 -25 -27 -50 l415 0 q63 0 93 17 l16 9 l0 -117 q0 -41 -23 -64 q-27 -27 -86 -27 l-1634 0 q-61 0 -91 -17 l-16 -9 l0 117 Z" /><glyph glyph-name="uni526A" unicode="&#x526a;" d="M1821 262 q0 -115 -34 -241 q-38 -133 -128 -175 q-87 -39 -313 -39 q-74 0 -107 32 q-24 25 -24 65 q0 42 24 66 q27 27 83 27 q106 -4 117 -4 q44 0 77.5 8.5 q33.5 8.5 49.5 23.5 q20 24 30 67 q11 44 17 121 q0 1 0 2 q0 17 -9.5 26.5 q-9.5 9.5 -33.5 9.5 l-633 0 q-55 -236 -244 -345 q-186 -107 -463 -107 q-53 0 -78 25 q-25 25 -25 70 q0 34 22 56 q29 29 96 33 q279 16 384 96 q84 65 120 172 l-501 0 q-54 0 -83 -22 l-18 -13 l0 120 q0 47 36 67 q24 14 65 14 l413 0 l0 115 q0 38 20.5 58.5 q20.5 20.5 60.5 20.5 l80 0 q23 0 35 12 q12 12 14 39 l0 3 l-462 0 l0 -95 q0 -45 -3.5 -68.5 q-3.5 -23.5 -11.5 -31.5 q-5 -5 -12 -5 l-116 0 q-18 0 -23 35 q-4 25 -4 70 l0 508 q0 82 41 123 q40 40 118 40 l486 0 q78 0 118.5 -40.5 q40.5 -40.5 40.5 -122.5 l0 -438 q0 -95 -47 -142 q-45 -45 -130 -45 l-116 0 q-42 0 -70 -27 l-10 -9 l964 0 q144 0 177 -94 q10 -27 10 -61 ZM409 877 l0 -70 l462 0 l0 70 l-462 0 ZM871 1040 q0 43 -47 47 l-368 0 q-43 0 -47 -47 l0 -21 l462 0 l0 21 ZM1340 648 q-23 -23 -66 -23 q-43 0 -66 23 q-23 23 -23 68 l0 384 q0 38 3.5 58 q3.5 20 10 26.5 q6.5 6.5 13.5 6.5 l124 0 q17 0 22 -26 q5 -22 5 -65 l0 -384 q0 -45 -23 -68 ZM1484 453 q-59 0 -89 -15 l-16 -8 l0 116 q0 45 24 69 q24 24 73 24 l98 0 q26 0 39.5 13.5 q13.5 13.5 13.5 47.5 l0 452 q0 63 9 82 q6 13 18 13 l122 0 q7 0 12 -5 q5 -5 7.5 -11.5 q2.5 -6.5 5 -22.5 q2.5 -16 2.5 -56 l0 -496 q0 -109 -49 -158 q-45 -45 -136 -45 l-134 0 ZM1949 1376 q0 -35 -20 -55 q-22 -22 -67 -22 l-1676 0 q-29 0 -58 -29 l-19 -19 l0 125 q0 38 19.5 57.5 q19.5 19.5 57.5 19.5 l414 0 l-32 52 q-27 48 -27 59 q0 31 19 50 q25 25 82 25 q38 0 80 -42 q46 -46 99 -144 l441 0 l20 57 q28 84 48 104 q29 29 86 29 q59 0 82 -23 q17 -17 17 -48 q0 -19 -12 -49 q-12 -30 -33 -70 l392 0 q39 0 68 29 l19 19 l0 -125 Z" /><glyph glyph-name="uni526F" unicode="&#x526f;" d="M755 33 l213 0 q22 0 33.5 11.5 q11.5 11.5 13.5 37.5 l0 129 l-260 0 l0 -178 ZM589 33 l0 178 l-246 0 l0 -129 q0 -23 12 -35 q12 -12 37 -14 l197 0 ZM1015 472 q0 40 -36 47 q-5 2 -11 2 l-213 0 l0 -158 l260 0 l0 109 ZM589 363 l0 158 l-197 0 q-25 0 -37 -12 q-12 -12 -12 -37 l0 -109 l246 0 ZM163 31 q0 7 0 15 l0 466 q0 98 44 142 q38 38 113 38 q11 0 22 -1 l674 0 q128 0 164 -79 q15 -35 15 -85 q0 -7 0 -15 l0 -466 q0 -99 -45 -144 q-38 -38 -113 -38 q-10 0 -21 1 l-674 0 q-95 0 -139 44 q-40 41 -40 122 ZM894 945 q43 0 47 47 l0 76 q0 22 -11.5 33.5 q-11.5 11.5 -35.5 13.5 l-444 0 q-24 0 -35.5 -11.5 q-11.5 -11.5 -13.5 -35.5 l0 -76 q0 -22 11.5 -33.5 q11.5 -11.5 37.5 -13.5 l444 0 ZM229 941 q0 7 0 15 l0 150 q0 92 42 134 q21 21 50 29 q29 8 62 8 q8 0 15 0 l546 0 q93 0 136 -43 q37 -38 37 -113 q0 -8 0 -15 l0 -150 q0 -92 -43 -135 q-39 -38 -115 -38 q-8 0 -15 0 l-546 0 q-89 0 -131 42 q-38 39 -38 116 ZM1297 304 l0 946 q0 58 14 71 q5 6 13 6 l132 0 q8 0 14 -6.5 q6 -6.5 9 -18.5 q4 -21 4 -52 l0 -946 q0 -43 -2.5 -60.5 q-2.5 -17.5 -5 -24 q-2.5 -6.5 -7.5 -11.5 q-5 -5 -12 -5 l-132 0 q-18 0 -23 34 q-4 24 -4 67 ZM113 1444 q0 39 22 61 q26 26 79 26 l914 0 q54 0 83 22 l18 13 l0 -120 q0 -38 -22 -59 q-25 -26 -79 -26 l-914 0 q-54 0 -83 -24 l-18 -14 l0 121 ZM1441 -118 q0 91 50 110 q12 5 27 5 l82 0 q39 0 56 17 q17 17 17 56 l0 1462 q0 43 3.5 65.5 q3.5 22.5 11.5 30.5 q5 5 12 5 l130 0 q18 0 23 -34 q4 -24 4 -67 l0 -1518 q0 -111 -51 -160 q-52 -49 -152 -49 l-136 0 q-29 0 -58 -29 l-19 -19 l0 125 Z" /><glyph glyph-name="uni5272" unicode="&#x5272;" d="M997 186 q0 24 -12.5 36.5 q-12.5 12.5 -38.5 14.5 l-492 0 q-24 0 -37 -12 q-12 -13 -14 -39 l0 -120 q0 -24 12.5 -36.5 q12.5 -12.5 38.5 -14.5 l492 0 q25 0 37.5 12.5 q12.5 12.5 13.5 38.5 l0 120 ZM1114 1063 q-11 0 -18 12 q-5 -44 -46 -57 q-15 -5 -36 -5 l-233 0 l0 -108 l315 0 q33 0 62 31 l19 20 l0 -126 q0 -34 -19.5 -53.5 q-19.5 -19.5 -61.5 -19.5 l-315 0 l0 -118 l417 0 q39 0 68 29 l19 19 l0 -125 q0 -34 -19 -53 q-22 -22 -68 -22 l-1008 0 q-37 0 -66 -31 l-19 -20 l0 126 q0 36 20.5 56.5 q20.5 20.5 64.5 20.5 l421 0 l0 118 l-303 0 q-29 0 -58 -29 l-19 -19 l0 125 q0 46 34 63 q18 8 43 8 l303 0 l0 108 l-227 0 q-35 0 -64 -31 l-19 -20 l0 117 q-5 -4 -11 -4 l-112 0 q-8 0 -14 6 q-13 13 -13 69 l0 158 q0 90 42 131 q39 40 123 40 l289 0 l0 75 q0 36 3.5 55 q3.5 19 10 25.5 q6.5 6.5 13.5 6.5 l126 0 q7 0 14 -6 q13 -14 13 -81 l0 -75 l303 0 q87 0 126 -42.5 q39 -42.5 39 -128.5 l0 -158 q0 -56 -9 -74 q-6 -13 -18 -13 l-112 0 ZM1480 219 q-22 -22 -61 -22 q-39 0 -61 23 q-27 26 -27 84 l0 1036 q0 71 10 88 q7 11 17 11 l122 0 q18 0 23 -34 q4 -23 4 -65 l0 -1036 q0 -58 -27 -85 ZM227 224 q0 84 40.5 124.5 q40.5 40.5 122.5 40.5 l620 0 q84 0 125 -41 q38 -38 38 -110 q0 -7 0 -14 l0 -196 q0 -84 -40.5 -124.5 q-40.5 -40.5 -122.5 -40.5 l-620 0 q-85 0 -126 41 q-38 38 -38 107 q0 8 1 17 l0 196 ZM317 1137 q21 24 67 24 l227 0 l0 53 q0 30 1.5 40.5 q1.5 10.5 2.5 13.5 q3 18 9.5 24.5 q6.5 6.5 13.5 6.5 l116 0 q8 -1 13 -6 q14 -14 14 -79 l0 -53 l233 0 q35 0 64 32 l9 11 l0 62 q0 23 -13 36 q-13 13 -42 15 l-662 0 q-28 0 -41 -13 q-12 -12 -12 -38 l0 -114 q0 -8 0 -15 ZM1862 10 q0 -138 -96 -182 q-43 -20 -104 -20 q-11 0 -22 1 l-120 0 q-62 0 -92 -11 l-15 -6 l0 114 q0 42 24 66 q27 27 83 27 l86 0 q36 0 54.5 18.5 q18.5 18.5 20.5 58.5 l0 1438 q0 77 12 93 q7 8 15 8 l126 0 q7 -1 12 -5 q15 -15 15 -96 l0 -1478 q1 -13 1 -26 Z" /><glyph glyph-name="uni529F" unicode="&#x529f;" d="M99 212 q0 43 23 66 q26 26 161 59 l52 12 l44 13 l0 877 l-173 0 q-63 0 -93 -17 l-16 -9 l0 117 q0 41 23 64 q27 27 86 27 l548 0 q63 0 93 17 l16 9 l0 -117 q0 -41 -23 -64 q-27 -27 -86 -27 l-185 0 l0 -824 q121 35 189 61 q40 17 68 17 q40 0 61.5 -21.5 q21.5 -21.5 21.5 -65.5 q0 -61 -78 -94 q-21 -10 -76 -29 q-55 -19 -89 -31 l-170 -58 q-254 -89 -294 -89 q-50 0 -76.5 26.5 q-26.5 26.5 -26.5 80.5 ZM1343 1520 q0 -115 -9 -327 l336 0 q141 0 189 -97 q24 -48 24 -120 q0 -599 -68 -902 q-60 -263 -401 -263 q-67 0 -99 32 q-28 28 -28 79 q0 51 26 77 q26 26 75 26 q102 -2 104 -2 q70 0 108 44 q14 17 28 79 q18 80 33 231 q24 239 24 525 q0 57 -25 82 q-21 21 -60 21 l-274 0 q-24 -409 -124 -651 q-99 -241 -362 -433 q-142 -104 -210 -104 q-48 0 -73.5 25.5 q-25.5 25.5 -25.5 77.5 q0 26 29 54 q30 31 89 64 q324 179 423 491 q50 160 66 476 l-228 0 q-68 0 -98 -13 l-15 -7 l0 115 q0 41 23 65 q29 28 90 28 l231 0 q6 179 6 311 q0 108 61 131 q15 6 34 6 q45 0 71 -25 q30 -31 30 -96 Z" /><glyph glyph-name="uni52A0" unicode="&#x52a0;" d="M1614 99 q30 0 45 15 q15 15 16 46 l0 976 q0 30 -15 45 q-15 15 -46 16 l-246 0 q-29 0 -44 -15 q-15 -15 -17 -46 l0 -976 q0 -29 15 -44 q15 -15 46 -17 l246 0 ZM1118 75 q0 10 1 21 l0 1102 q0 103 47 150 q42 42 124 42 q11 0 22 -1 l362 0 q130 0 171 -74 q21 -38 21 -97 q0 -11 -1 -22 l0 -1098 q-1 -105 -48 -153 q-41 -41 -122 -41 q-10 0 -21 1 l-362 0 q-105 0 -153 48 q-41 41 -41 122 ZM616 1561 q1 -8 1 -36.5 q0 -28.5 -4 -120.5 l0 -1 q-3 -52 -4 -82 l209 0 q111 0 165 -54 q44 -44 44 -123 q0 -6 -16 -364 q-4 -112 -16 -353 q-8 -174 -26 -294 q-18 -120 -41 -173 q-51 -125 -316 -125 q-63 0 -94 31 q-27 27 -27 75.5 q0 48.5 25 73.5 q26 26 76 26 l60 0 q88 0 110 61 q29 80 41 303 q34 673 34 676.5 q0 3.5 -1 9.5 q-6 36 -68 36 l-167 0 q-15 -324 -51.5 -553 q-36.5 -229 -103.5 -394 q-82 -203 -160 -281 q-51 -50 -100 -50 q-46 0 -71.5 25.5 q-25.5 25.5 -25.5 77.5 q0 42 49 97 q122 136 193 392 q65 236 80 686 l-197 0 q-68 0 -99 -9 l-14 -5 l0 113 q0 42 24 66 q29 29 93 29 l197 0 l2 63 q4 96 4 146 q0 57 28 84 q24 25 71 25 q58 0 82 -36 q11 -17 14 -42 Z" /><glyph glyph-name="uni52A9" unicode="&#x52a9;" d="M733 533 l-326 0 l0 -312 q212 41 326 60 l0 252 ZM407 699 l326 0 l0 242 l-326 0 l0 -242 ZM733 1298 q0 24 -12.5 36.5 q-12.5 12.5 -38.5 14.5 l-224 0 q-32 0 -44 -22 q-6 -11 -7 -29 l0 -191 l326 0 l0 191 ZM99 80 q0 41 26 66 q26 27 69 35 l39 6 l0 1153 q0 98 44 142 q38 38 113 38 q11 0 22 -1 l316 0 q99 0 144 -45 q38 -38 38 -113 q0 -10 -1 -21 l0 -1020 l18 5 q38 5 44 5 q29 0 46 -20 q20 -22 20 -64 q0 -6 -1 -12 q38 53 66 113 q86 185 103 654 l-173 0 q-57 0 -86 -18 l-17 -11 l0 118 q0 40 23 63 q26 26 80 26 l179 0 q0 112 3 200.5 q3 88.5 3 145.5 q0 57 24 84 l3 4 q24 24 68 24 q47 0 69 -25.5 q22 -25.5 22 -77.5 q0 -62 -4 -186 l-6 -169 l295 0 q99 0 146 -47 q41 -41 41 -116 q0 -77 -2 -110 q-5 -176 -24 -420 q0 -23 -4 -71 q-24 -359 -57 -441 q-61 -149 -324 -149 q-59 0 -87 29 q-26 25 -26 71 q0 50 28.5 74 q28.5 24 88.5 24 q94 0 117 18 q20 15 35.5 66 q15.5 51 24.5 146 q38 394 38 693 q0 0 0 0 q0 27 -14 41 q-14 14 -45 14 l-238 0 q-28 -466 -102 -687 q-81 -235 -285 -393 q-123 -94 -181 -94 q-43 0 -67 24 q-24 24 -24 73 q0 50 89 107 q94 60 164 134 q-46 -17 -266 -68 q-18 -4 -48.5 -11 q-30.5 -7 -82.5 -21 l0 0 q-371 -84 -391 -84 q0 0 0 0 q-44 0 -68.5 24.5 q-24.5 24.5 -24.5 74.5 Z" /><glyph glyph-name="uni52FE" unicode="&#x52fe;" d="M185 236 q0 79 83 95 l168 15 q114 299 161 479 q41 158 63 208 q6 14 12 20 l4 5 q27 27 72 27 q55 0 80 -25 q21 -21 21 -57.5 q0 -36.5 -25 -92.5 q-40 -90 -77 -211.5 q-37 -121.5 -133 -338.5 q308 25 555 63 l-67 120 q-38 67 -47 89 l-2 10 q0 33 19 52 q23 23 70 23 q53 0 113 -103 q89 -146 118 -196 q29 -50 48 -86 q38 -73 38 -102 q0 -45 -24 -69 q-24 -24 -71 -24 q-59 0 -86 58 l-35 75 l-957 -137 q-9 -1 -18 -1 q-35 0 -57 24 q-26 28 -26 80 ZM677 1552 q0 -32 -52 -157 l983 0 q131 0 192 -61 q53 -53 53 -150 q0 -375 -40 -909 q-18 -245 -75 -347 q-21 -37 -47 -57 q-45 -34 -140 -50 q-95 -16 -243 -16 q-61 0 -88 27 q-27 27 -27 78 q0 43 25 68 q32 31 98 31 q107 0 182 14 q59 11 79 39 q38 54 62 513 q8 165 10 261 l0 0 q10 279 10 282 q0 46 -28 70 q-31 25 -93 25 l-1001 0 q-137 -265 -235 -362 q-53 -54 -94 -54 q-49 0 -75 26 q-26 26 -26 77 q0 16 16 44 q16 28 55 73 q214 255 277 490 q35 130 115 130 q83 0 102 -52 q5 -15 5 -33 Z" /><glyph glyph-name="uni5305" unicode="&#x5305;" d="M527 607 l537 0 q29 0 44 16 q15 16 17 45 l0 144 q0 57 -61 61 l-537 0 l0 -266 ZM345 32 l0 832 q0 88 44.5 132.5 q44.5 44.5 130.5 44.5 l606 0 q95 0 137 -42 q38 -39 38 -119 q0 -8 0 -16 l0 -248 q0 -96 -43 -139 q-37 -37 -110 -37 q-11 0 -22 1 l-599 0 l0 -337 q0 -31 16 -47 q9 -10 21 -14 q50 -16 500 -16 q541 0 605 18 q24 6 40 22 l5 5 q17 20 21 54 q11 72 12 77.5 q1 5.5 2.5 10.5 q1.5 5 3.5 9.5 q2 4.5 4 8.5 q2 4 4 8 q25 39 81 39 q68 0 90 -45 q11 -21 11 -50 q0 -125 -53 -225 q-52 -96 -332 -100 l-848 0 q-189 0 -249 16 q-60 15 -88 54 q-28 39 -28 103 ZM667 1560 q0 -30 -51 -135 l992 0 q14 1 28 1 q85 0 129.5 -44.5 q44.5 -44.5 44.5 -132.5 q0 -14 -1 -29 l0 -616 q0 -203 -83 -282 q-82 -79 -284 -79 q-59 0 -87 29 q-26 25 -26 72 q0 48 44 72 q38 20 109 21 q69 2 101 19 q5 2 9 6 q11 11 17 35 q12 45 14 125 l0 546 q0 39 -20 59 q-20 20 -61 22 q-509 0 -1018 0 q-58 -103 -163 -240 q-43 -55 -77 -89 q-55 -55 -90 -55 q-43 0 -66 23 q-23 23 -23 70 q0 38 47 87 q220 245 326 525 q26 69 98 69 q48 0 71 -23 q20 -20 20 -56 Z" /><glyph glyph-name="uni5316" unicode="&#x5316;" d="M1180 -151 q-103 11 -150 58 q-43 43 -43 131 l0 1474 q0 48 3.5 72 q3.5 24 11.5 32 q5 5 12 5 l136 0 q7 0 12 -5 q5 -5 7 -12 q2 -7 4 -17.5 q2 -10.5 2 -21.5 q2 -21 2 -53 l0 -647 q258 153 532 372 l0 0 q41 30 79 30 q44 0 73 -36 q24 -31 24 -61 q0 -45 -48 -83 q-308 -236 -660 -402 l0 -571 q0 -46 18.5 -65 q18.5 -19 61.5 -24 q64 -8 179 -8 l64 0 q99 2 146.5 7 q47.5 5 69.5 19 q18 14 29.5 69 q11.5 55 13.5 180 l0 1 q3 69 52 87 q16 5 35 5 q58 0 80 -41 q13 -23 13 -56 q0 -12 0 -24 q0 -201 -29 -285 q-32 -92 -123 -117 q-88 -23 -300 -23 q-212 0 -307 10 ZM811 1562 q0 -26 -13 -58 q-78 -190 -203 -403 l0 -1187 q0 -78 -9 -99 q-3 -5 -7 -9.5 q-4 -4.5 -11 -4.5 l-136 0 q-7 0 -12 5 q-8 8 -11.5 33 q-3.5 25 -3.5 75 l0 894 q-78 -105 -141 -172 q-33 -33 -76 -33 q-37 0 -63 26 q-26 26 -26 61 q0 35 33 73 q145 165 275.5 386.5 q130.5 221.5 214.5 424.5 q13 33 39.5 52 q26.5 19 58.5 19 q37 0 63 -21 q28 -22 28 -62 Z" /><glyph glyph-name="uni533A" unicode="&#x533a;" d="M485 286 q0 59 70 96 q246 132 498 355 l-285 212 q-105 67 -147 110 q-32 31 -32 53 q0 41 22 63 q22 22 67 22 q43 0 286 -170 l221 -161 q135 137 244 302 q63 95 125 95 q53 0 79 -26 q22 -22 22 -61 q0 -42 -67 -132 q-80 -108 -258 -289 q357 -284 433 -397 q22 -33 22 -55 q0 -45 -25 -70 q-26 -26 -78 -26 q-57 0 -156 118 q-54 59 -157 149 l-173 149 q-196 -180 -378 -308 q-178 -128 -248 -128 q-57 0 -76 47 q-9 21 -9 52 ZM208 92 q0 14 1 28 l0 1194 q0 126 57 183 q49 49 147 49 q14 0 29 -1 l1356 0 q65 0 95 15 l16 8 l0 -116 q0 -42 -24 -65 q-27 -28 -87 -28 l-1292 0 q-53 0 -78 -25 q-25 -25 -25 -76 l0 -1084 q0 -49 24 -74 q26 -25 79 -25 l1328 0 q67 0 97 15 l16 8 l0 -116 q0 -41 -23 -65 q-29 -28 -90 -28 l-1392 0 q-15 -1 -29 -1 q-101 0 -153 52 q-52 52 -52 152 Z" /><glyph glyph-name="uni5341" unicode="&#x5341;" d="M1935 890 q0 -44 -25 -69 q-28 -28 -86 -28 l-709 0 l0 -871 q0 -76 -8 -100 q-6 -17 -19 -17 l-148 0 q-7 1 -12 5 q-11 12 -14 66 q-1 20 -1 46 l0 871 l-691 0 q-64 0 -94 -11 l-15 -6 l0 114 q0 46 25 71 q28 28 84 28 l691 0 l0 523 q0 86 11 107 q6 10 16 10 l148 0 q15 0 21 -26 q6 -27 6 -91 l0 -523 l709 0 q66 0 97 9 l14 5 l0 -113 Z" /><glyph glyph-name="uni534A" unicode="&#x534a;" d="M289 1430 q0 40 22 62 q25 25 75 25 q58 0 118 -103 q100 -173 114 -226 q3 -11 3 -18 q0 -43 -24 -67 q-26 -26 -79 -26 q-35 0 -62 26 q-17 18 -30 46 l-94 172 q-43 78 -43 109 ZM1407 1168 q0 15 9 35 q14 34 43 81 q45 73 91 177 q33 70 96 70 q55 0 82 -27 q23 -23 23 -64 q0 -23 -29.5 -85.5 q-29.5 -62.5 -102.5 -184.5 q-23 -38 -43.5 -58.5 q-20.5 -20.5 -38 -29.5 q-17.5 -9 -35.5 -9 q-47 0 -71 24 q-24 24 -24 71 ZM1109 337 l0 -421 q0 -52 -3 -72 q-3 -20 -5 -26 q-3 -10 -7.5 -14.5 q-4.5 -4.5 -11.5 -4.5 l-138 0 q-15 0 -21 26 q-6 27 -6 91 l0 421 l-701 0 q-65 0 -95 -17 l-16 -9 l0 117 q0 42 24 65 q27 28 87 28 l701 0 l0 288 l-587 0 q-67 0 -97 -15 l-16 -8 l0 116 q0 40 23 63 q28 28 90 28 l587 0 l0 525 q0 88 11 109 q6 10 16 10 l138 0 q18 0 23 -38 q4 -28 4 -81 l0 -525 l609 0 q65 0 95 15 l16 8 l0 -116 q0 -40 -23 -63 q-28 -28 -88 -28 l-609 0 l0 -288 l721 0 q67 0 97 17 l16 9 l0 -117 q0 -41 -23 -65 q-29 -28 -90 -28 l-721 0 Z" /><glyph glyph-name="uni5353" unicode="&#x5353;" d="M1504 599 q29 0 40 12 q11 12 13 41 l0 97 l-1066 0 l0 -97 q0 -29 12.5 -40 q12.5 -11 40.5 -13 l960 0 ZM491 903 l1066 0 l0 91 q0 29 -12 40 q-12 11 -41 13 l-960 0 q-27 0 -39 -12 q-12 -12 -14 -41 l0 -91 ZM1945 216 q0 -38 -22 -59 q-25 -26 -81 -26 l-733 0 l0 -235 q0 -42 -4 -64 q-5 -35 -23 -35 l-134 0 q-18 0 -23 34 q-4 23 -4 65 l0 235 l-717 0 q-56 0 -85 -22 l-18 -13 l0 120 q0 39 22 61 q26 26 81 26 l717 0 l0 134 l-421 0 q-14 -1 -28 -1 q-83 0 -126.5 43.5 q-43.5 43.5 -43.5 125.5 q0 13 1 27 l0 382 q-1 14 -1 27 q0 82 43.5 125.5 q43.5 43.5 126.5 43.5 q14 0 28 -1 l393 0 l0 349 q0 36 3 55 q6 32 24 32 l136 0 q7 0 12 -5 q5 -5 7.5 -11 q2.5 -6 4.5 -16 q3 -19 3 -55 l0 -53 l659 0 q50 0 79 25 l18 16 l0 -122 q0 -18 -5 -33 q-5 -15 -17 -26 q-24 -24 -75 -24 l-659 0 l0 -132 l467 0 q13 1 25 1 q85 0 129 -44 q44 -44 44 -130 q0 -11 -1 -22 l0 -382 q0 -108 -48 -156 q-41 -40 -121 -40 q-13 0 -28 1 l-441 0 l0 -134 l733 0 q57 0 86 20 l17 12 l0 -119 Z" /><glyph glyph-name="uni5357" unicode="&#x5357;" d="M1185 717 l42 220 l-416 0 l42 -220 l332 0 ZM1109 1449 l721 0 q59 0 88 20 l17 12 l0 -119 q0 -40 -23 -62 q-26 -27 -82 -27 l-721 0 l0 -162 l535 0 q102 0 159 -51 q28 -24 40 -63 q12 -39 12 -89 l0 -858 q0 -133 -58 -182 q-69 -59 -176 -59 q-3 0 -7 0 l-124 0 q-70 0 -101 -9 l-14 -5 l0 113 q0 43 25 68 q29 29 90 29 l112 0 q33 0 48 15 q15 15 17 50 l0 794 q0 47 -31 63 q-17 9 -42 10 l-193 0 l-40 -222 l111 0 q48 0 77 24 l18 14 l0 -121 q0 -17 -5 -32 q-17 -49 -90 -49 l-365 0 l0 -154 l399 0 q48 0 77 22 l18 13 l0 -120 q0 -36 -21 -57 q-24 -24 -74 -24 l-399 0 l0 -283 q0 -73 -9 -94 q-3 -4 -7 -8.5 q-4 -4.5 -11 -4.5 l-128 0 q-10 0 -16 11 q-11 18 -11 96 l0 283 l-387 0 q-48 0 -77 -25 l-18 -16 l0 122 q0 39 22 61 q24 24 73 24 l387 0 l0 154 l-357 0 q-48 0 -77 -24 l-18 -14 l0 121 q0 36 21 57 q24 24 74 24 l109 0 l-38 222 l-185 0 q-34 0 -51 -17 q-18 -18 -20 -56 l0 -948 q0 -75 -9 -96 q-2 -6 -6.5 -10.5 q-4.5 -4.5 -11.5 -4.5 l-136 0 q-7 0 -12 5 q-5 5 -7 12 q-2 7 -5 26 q-3 19 -3 68 l0 984 q0 102 51 159 q46 52 145 52 q8 0 15 0 q259 0 517 0 l0 162 l-703 0 q-57 0 -86 -18 l-17 -11 l0 118 q0 39 22 61 q26 26 81 26 l703 0 l0 91 q0 67 10 84 q7 11 17 11 l134 0 q12 0 18 -13 q9 -19 9 -82 l0 -91 Z" /><glyph glyph-name="uni535A" unicode="&#x535a;" d="M1135 10 q0 -44 -22.5 -66.5 q-22.5 -22.5 -66.5 -22.5 q-47 0 -101 72 l-69 75 q-39 42 -39 72 q0 35 20 55 q22 22 67 22 q21 0 51.5 -19 q30.5 -19 76 -64.5 q45.5 -45.5 64.5 -75 q19 -29.5 19 -48.5 ZM1949 320 q0 -37 -21 -58 q-23 -23 -70 -23 l-181 0 l0 -245 q0 -150 -108 -186 q-35 -11 -81 -11 l-178 0 q-36 0 -65 -22 l-18 -13 l0 120 q0 68 46 84 q13 5 29 5 l140 0 q32 0 47.5 15.5 q15.5 15.5 15.5 47.5 l0 205 l-839 0 q-44 0 -73 -25 l-18 -16 l0 122 q0 37 21 58 q23 23 70 23 l839 0 l0 13 q0 35 2.5 49 q2.5 14 5 20 q2.5 6 5.5 9 q3 3 5 4 q4 3 9 3 l118 0 q7 0 14 -6 q13 -14 13 -79 l0 -13 l181 0 q44 0 73 25 l18 16 l0 -122 ZM1377 765 l304 0 l0 80 l-304 0 l0 -80 ZM901 765 l308 0 l0 80 l-308 0 l0 -80 ZM1377 1065 l0 -76 l304 0 l0 37 q0 19 -9.5 28.5 q-9.5 9.5 -31.5 10.5 l-263 0 ZM1209 989 l0 76 l-257 0 q-27 0 -41 -14 q-10 -10 -10 -25 l0 -37 l308 0 ZM637 1364 q0 39 22 61 q22 22 69 22 l477 0 l0 111 q0 58 9 76 q6 13 18 13 l120 0 q7 0 14 -6 q13 -14 13 -83 l0 -111 l231 0 q-67 60 -70 63 q-27 27 -27 54 q0 34 19 52 q20 21 62 21 q19 0 44 -13.5 q25 -13.5 59 -40.5 q66 -54 66 -93 q0 -26 -12 -43 l91 0 q48 0 77 24 l18 14 l0 -121 q0 -38 -21 -59 q-24 -24 -74 -24 l-463 0 l0 -70 l301 0 q84 0 126 -42 q41 -41 41 -119 l0 -526 q0 -36 -2.5 -50.5 q-2.5 -14.5 -5 -20.5 q-2.5 -6 -7.5 -11 q-5 -5 -12 -5 l-112 0 q-7 0 -14 6 q-13 14 -13 81 l0 95 l-304 0 l0 -103 q0 -33 -2.5 -46.5 q-2.5 -13.5 -5 -19 q-2.5 -5.5 -7 -10.5 q-4.5 -5 -12.5 -5 l-114 0 q-8 0 -14 6 q-13 13 -13 75 l0 103 l-308 0 l0 -95 q0 -36 -3 -55 q-6 -32 -24 -32 l-108 0 q-7 0 -14 6 q-13 14 -13 81 l0 526 q0 79 41 119 q41 42 124 42 l301 0 l0 70 l-477 0 q-44 0 -73 -24 l-18 -14 l0 121 ZM527 1137 l101 0 q51 0 80 18 l17 11 l0 -118 q0 -40 -22 -62 q-25 -25 -75 -25 l-101 0 l0 -1069 q0 -42 -3.5 -64 q-3.5 -22 -11.5 -30 q-5 -5 -12 -5 l-126 0 q-18 0 -23 34 q-4 23 -4 65 l0 1069 l-135 0 q-67 0 -96 -20 l-17 -12 l0 119 q0 38 22 61 q29 28 91 28 l135 0 l0 405 q0 42 2.5 59 q2.5 17 5 23.5 q2.5 6.5 7.5 11.5 q5 5 12 5 l126 0 q7 0 12 -5 q5 -5 7.5 -11.5 q2.5 -6.5 4 -16 q1.5 -9.5 1.5 -19.5 q2 -19 2 -47 l0 -405 Z" /><glyph glyph-name="uni5360" unicode="&#x5360;" d="M1478 61 q103 0 103 103 l0 320 q0 76 -59 96 q-19 7 -44 7 l-904 0 q-52 0 -78.5 -26.5 q-26.5 -26.5 -26.5 -76.5 l0 -320 q0 -51 26.5 -77 q26.5 -26 78.5 -26 l904 0 ZM279 102 q0 7 0 14 l0 416 q0 127 58 182 q63 57 171 57 q4 0 90.5 0 q86.5 0 254.5 0 l0 747 q0 88 11 109 q6 10 16 10 l138 0 q18 0 23 -38 q4 -28 4 -81 l0 -195 l729 0 q29 0 58 29 l19 19 l0 -125 q0 -97 -63 -108 q-6 -1 -14 -1 l-729 0 l0 -366 l489 0 q124 0 180 -57 q57 -60 57 -168 q0 -7 0 -14 l0 -416 q0 -123 -58.5 -181 q-58.5 -58 -170.5 -58 q-4 0 -8 0 l-1018 0 q-121 0 -179 58.5 q-58 58.5 -58 166.5 Z" /><glyph glyph-name="uni5361" unicode="&#x5361;" d="M1747 146 q0 -51 -25.5 -75 q-25.5 -24 -75.5 -24 q-46 0 -203 122 q-81 62 -327 216 q-67 39 -67 89 q0 42 31 63.5 q31 21.5 66 21.5 q13 0 34.5 -8 q21.5 -8 46 -21 q24.5 -13 42.5 -23 q18 -10 39 -22.5 q21 -12.5 44 -26.5 q47 -28 104 -65 q200 -129 254 -183 q37 -37 37 -64 ZM1941 830 q0 -43 -24 -67 q-28 -28 -85 -28 l-799 0 l0 -841 q0 -49 -3 -68 q-3 -19 -5 -26 q-2 -7 -7 -12 q-5 -5 -12 -5 l-142 0 q-7 0 -12 5 q-8 9 -11.5 33 q-3.5 24 -3.5 73 l0 841 l-625 0 q-29 0 -58 -29 l-19 -19 l0 125 q0 65 27 92 q19 19 50 19 l625 0 l0 601 q0 82 11 100 q6 11 16 11 l142 0 q7 0 12 -5 q15 -15 15 -106 l0 -143 l619 0 q29 0 58 29 l19 19 l0 -125 q0 -86 -49 -104 q-13 -5 -28 -5 l-619 0 l0 -272 l799 0 q63 0 93 15 l16 8 l0 -116 Z" /><glyph glyph-name="uni5373" unicode="&#x5373;" d="M413 783 l361 0 q26 0 38 12 q12 12 13 37 l0 169 l-412 0 l0 -218 ZM825 1330 q0 24 -12.5 36.5 q-12.5 12.5 -38.5 14.5 l-312 0 q-23 0 -35 -12 q-12 -12 -14 -39 l0 -167 l412 0 l0 167 ZM1145 -106 l0 1460 q0 129 79 164 q20 9 39.5 11.5 q19.5 2.5 33.5 2.5 q14 0 25 -1 l342 0 q98 0 150 -49 q47 -44 47 -134 q0 -7 0 -14 l0 -1108 q0 -111 -53 -164 q-50 -49 -148 -51 l-118 0 q-74 0 -105 -9 l-14 -5 l0 113 q0 48 25.5 73.5 q25.5 25.5 75.5 25.5 l86 0 q32 0 47 15 q15 15 16 46 l0 1020 q0 27 -13.5 40.5 q-13.5 13.5 -41.5 14.5 l-234 0 q-42 0 -52 -33 q-2 -9 -3 -20 l0 -1398 q0 -43 -3.5 -65.5 q-3.5 -22.5 -11.5 -30.5 q-5 -5 -12 -5 l-130 0 q-18 0 -23 34 q-4 24 -4 67 ZM99 52 q0 47 30 72 q15 14 106 30 l0 1218 q0 128 79 163 q20 10 40 12.5 q20 2.5 33.5 2.5 q13.5 0 24.5 -1 l414 0 q96 0 139 -43 q21 -22 29.5 -52.5 q8.5 -30.5 8.5 -66.5 q0 -7 0 -15 l0 -582 q0 -95 -43 -138 q-38 -38 -112 -38 q-11 0 -22 1 l-413 0 l0 -423 q188 40 395 101 q-51 92 -60 107 q-9 15 -16.5 28.5 q-7.5 13.5 -11 22.5 q-3.5 9 -3.5 17 q0 36 20 56 q21 21 63 21 q50 0 103 -83 q108 -169 156 -262 q40 -76 40 -104 q0 -45 -24 -69 q-24 -24 -71 -24 q-67 0 -110 111 l-18 38 q-204 -80 -431 -139 q-246 -62 -257 -62 q-41 0 -63 23 q-26 25 -26 78 Z" /><glyph glyph-name="uni5382" unicode="&#x5382;" d="M117 -26 q0 33 39 111 q135 282 135 961 l-2 284 q0 101 53 154 q53 53 162 53 l1298 0 q68 0 98 13 l15 7 l0 -115 q0 -41 -23 -65 q-29 -28 -90 -28 l-1248 0 q-35 0 -52 -17 q-17 -17 -17 -52 q2 -224 2 -251 q0 -285 -26 -562 q-22 -226 -97 -419 q-39 -103 -81 -146 q-31 -31 -65 -31 q-49 0 -75 26 q-26 26 -26 77 Z" /><glyph glyph-name="uni539F" unicode="&#x539f;" d="M907 266 q0 -32 -32 -80 q-38 -59 -118 -139 q-80 -80 -152 -128 q-74 -50 -105 -50 q-63 0 -84 40 q-9 18 -9 43 q0 32 22 60 q21 26 69 58 q54 37 128 111 q59 59 105 122 q6 6 13 14 q32 32 68 32 q65 0 86 -40 q9 -18 9 -43 ZM1943 -2 q0 -55 -26 -81 q-26 -26 -73 -26 q-33 0 -83 33 q-72 48 -184 164 q-63 66 -95.5 111 q-32.5 45 -32.5 71 q0 38 20 58 l4 3 q23 20 71 20 q41 0 88 -54 q81 -93 250 -216 q61 -45 61 -83 ZM773 733 l0 -105 q0 -25 12 -37 q12 -12 39 -12 l734 0 q26 0 38.5 12.5 q12.5 12.5 12.5 38.5 l0 103 l-836 0 ZM824 1039 q-26 0 -38.5 -12.5 q-12.5 -12.5 -12.5 -38.5 l0 -97 l836 0 l0 97 q0 27 -12 38 q-12 11 -39 13 l-734 0 ZM1610 413 l-319 0 l0 -417 q0 -106 -48 -154 q-42 -42 -125 -42 q-11 0 -22 1 l-122 0 q-61 0 -91 -15 l-16 -8 l0 116 q0 46 24 70 q23 23 67 23 l96 0 q25 0 38 13 q13 13 13 44 l0 369 l-333 0 q-98 0 -142 44 q-36 37 -36 106 q0 13 1 28 l0 436 q-1 14 -1 27 q0 100 74 134 q37 17 92 17 q6 0 73 0 q67 0 194 0 l47 178 l-570 0 q-48 0 -56 -23 q-11 -28 -11 -130 l0 -298 q0 -228 -9 -391.5 q-9 -163.5 -43 -329.5 q-34 -166 -105 -322 q-29 -62 -86 -62 q-23 0 -47 13 q-46 25 -46 76 q0 28 15 61 q85 180 112 420 q27 240 27 587 l0 340 q0 124 56 180 q51 51 153 51 l1354 0 q56 0 85 22 l18 13 l0 -120 q0 -39 -22 -61 q-26 -26 -81 -26 l-554 0 l-53 -178 l399 0 q96 0 141 -45 q37 -38 37 -108 q0 -13 -1 -27 l0 -432 q1 -14 1 -27 q0 -98 -75 -134 q-41 -19 -103 -19 Z" /><glyph glyph-name="uni53BB" unicode="&#x53bb;" d="M1261 442 q0 40 22.5 62.5 q22.5 22.5 68.5 22.5 q18 0 57 -30 q71 -55 237 -234 q205 -220 235 -313 q6 -18 6 -32 q0 -46 -25.5 -71.5 q-25.5 -25.5 -77.5 -25.5 q-54 0 -113 85 q-53 75 -67 90 q-275 -45 -757 -87 q-192 -16 -576 -44 l0 0 q-7 0 -12 0 q-48 0 -73 25 q-25 25 -25 74 q0 55 52 81 q48 24 145 28 l127 4 q133 254 243 550 l-478 0 q-65 0 -94 -18 l-17 -11 l0 118 q0 37 22 59 q28 28 89 28 l667 0 l0 340 l-535 0 q-63 0 -92 -18 l-17 -11 l0 118 q0 38 22 60 q27 27 87 27 l535 0 l0 221 q0 51 3 70.5 q3 19.5 5 27.5 q4 14 16 17 q1 0 3 0 l136 0 q7 0 12 -5 q15 -15 15 -110 l0 -221 l561 0 q29 0 58 29 l19 19 l0 -125 q-1 -77 -48 -94 q-13 -5 -29 -5 l-561 0 l0 -340 l695 0 q29 0 58 29 l19 19 l0 -125 q0 -55 -25 -80 q-19 -19 -52 -19 l-865 0 q-151 -351 -261 -541 q470 17 813 55 l-94 115 q-13 19 -29 35 q-15 18 -46 57 q-31 39 -45 60 q-14 21 -14 34 Z" /><glyph glyph-name="uni53C2" unicode="&#x53c2;" d="M227 -120 q0 27 19 46 q36 36 146 39 q318 10 637 102 q315 91 530 215 q86 49 113 49 q45 0 69 -24 q24 -24 24 -73 q0 -23 -27 -50 q-51 -51 -201 -124 q-540 -267 -1193 -267 q-66 0 -95 29 q-22 22 -22 58 ZM355 108 q0 21 17 38 q29 29 110 47 q457 99 742 302 q65 46 104 46 q49 0 72 -24 q21 -20 21 -57 q0 -14 -4.5 -24 q-4.5 -10 -8.5 -17 q-19 -30 -65 -62 q-74 -53 -227 -121 q-303 -135 -626 -203 l-56 -10 q-8 -1 -16 -1 q-27 0 -44 20 q-19 24 -19 66 ZM263 302 q0 58 90 85 q344 105 604 327 q59 53 101 53 q49 0 73 -24 q22 -22 22 -61 q0 -18 -20 -42 q-43 -51 -177 -137 q-191 -121 -392 -201 q-167 -67 -211 -77 q-9 -2 -15 -2 q-37 0 -56 21.5 q-19 21.5 -19 57.5 ZM99 482 q0 61 73 92 q264 119 443 293 l-401 0 q-57 0 -86 -20 l-17 -12 l0 119 q0 40 23 63 q26 26 80 26 l544 0 q31 50 63 121 q-578 -23 -581 -23 q-49 0 -73 24 q-24 24 -24 66 q0 70 60 84 q15 4 33 4 l122 -2 q98 2 196 4 q66 97 120 212 q51 108 130 108 q97 0 103 -68 q0 -3 0 -8 q0 -45 -151 -240 l6 0 q330 4 647 16 q-140 80 -146.5 84 q-6.5 4 -11.5 7.5 q-5 3.5 -10 7 q-5 3.5 -9 6.5 q-12 9 -20 16 q-17 17 -17 35 q0 46 32 64 q20 12 53 12 q77 0 342 -172 q221 -144 257 -204 q8 -14 8 -25 q0 -75 -61 -87 q-12 -2 -26 -2 q-44 0 -113 63 q-35 28 -69 57 l-603 -32 l-58 -128 l875 0 q59 0 88 20 l17 12 l0 -119 q0 -40 -23 -62 q-26 -27 -82 -27 l-469 0 q164 -203 490 -294 q45 -13 70.5 -38 q25.5 -25 25.5 -65 q0 -50 -25 -75 q-24 -24 -70 -24 q-54 0 -139 37 q-85 37 -205 111 q-243 151 -356 348 l-311 0 q-90 -117 -246 -240 q-153 -122 -251 -179 q-101 -59 -160 -59 q-41 0 -64 23 q-23 23 -23 70 Z" /><glyph glyph-name="uni53C8" unicode="&#x53c8;" d="M105 -66 q0 89 147 121 q309 66 642 315 q-172 191 -286 421 q-113 228 -113 365 q0 34 20 54 q25 25 81 25 q39 0 63 -24 q24 -24 34 -69 q72 -350 349 -642 q176 183 318 451 q145 276 145 343 q0 28 -29 36 q-10 3 -22 3 l-1130 0 q-70 0 -100 -13 l-15 -7 l0 115 q0 42 24 66 q29 29 91 29 l1238 0 q109 0 156 -46 q33 -34 33 -89 q0 -56 -107 -294 q-199 -453 -464 -721 q227 -176 675 -317 q45 -14 66.5 -39 q21.5 -25 21.5 -65 q0 -55 -27 -82 q-25 -25 -69.5 -25 q-44.5 0 -196.5 55 q-370 132 -616 338 q-195 -164 -470.5 -285.5 q-275.5 -121.5 -365.5 -121.5 q-43 0 -67 24 q-26 26 -26 79 Z" /><glyph glyph-name="uni53CA" unicode="&#x53ca;" d="M748 1363 q-1 -21 -1 -56 q0 -35 -4 -108 l-2 -24 q90 -285 222 -499 q131 -210 312 -359 q132 139 205 284 q81 160 81 213 q0 13 -6 19 q-8 8 -29 8 l-244 0 q-161 0 -161 125 q0 17 52 238 q2 17 16 75 l12 52 q4 12 -3 19 q-15 13 -44 13 l-406 0 ZM1945 -67 q0 -12 -1.5 -23.5 q-1.5 -11.5 -4.5 -21.5 q-7 -20 -20 -33 q-26 -26 -73 -26 q-68 0 -250 77 q-187 78 -320 174 q-152 -107 -323 -186 q-191 -87 -273 -87 q-54 0 -76 37 q-13 22 -13 58 q0 66 108 97 q247 69 435 200 q-247 219 -433 604 q-73 -450 -290 -726 q-55 -71 -99 -115 q-71 -71 -116 -71 q-41 0 -64 23 q-27 27 -27 84 q0 41 51 92 q208 204 304 491 q102 307 109 782 l-273 0 q-69 0 -99 -15 l-16 -8 l0 116 q0 42 24 66 q29 29 91 29 l938 0 q145 0 174 -76 q7 -19 7 -41 l0 -1 l-16 -84 l-70 -296 l0 -7 q0 -8 9 -14.5 q9 -6.5 28 -6.5 l238 0 q133 0 162 -76 q7 -21 7 -45 q0 -107 -109 -329 q-105 -212 -243 -363 q190 -116 412 -175 q112 -31 112 -104 Z" /><glyph glyph-name="uni53CB" unicode="&#x53cb;" d="M856 1189 q-14 -145 -32 -226 l720 0 q143 0 173 -82 q8 -21 8 -46 q0 -49 -25 -117 q-30 -87 -76 -169 q-98 -181 -229 -319 q125 -78 217 -125 q92 -47 191 -76 q83 -26 116 -59 q22 -22 22 -48 q0 -57 -28 -85 q-24 -24 -67 -24 q-64 0 -251 87 q-200 94 -347 194 q-129 -102 -333 -198 q-191 -89 -287 -89 q-47 0 -71 24 q-24 24 -24 69 q0 48 38 72 q34 22 120 48 q255 83 411 191 q-93 88 -183 231 q-92 145 -92 220 q0 39 22 61 q22 22 59 22 q45 0 66 -22 q19 -18 34 -59 l0 0 q64 -189 233 -333 q107 104 180 231 q72 123 88 199 l0 5 q0 15 -23 15 l-710 0 q-100 -331 -289 -601 q-121 -175 -216 -244 q-42 -29 -69 -29 q-44 0 -67.5 23.5 q-23.5 23.5 -23.5 61.5 q0 46 71 122 l0 0 q197 200 317 464 q120 264 165 611 l-438 0 q-63 0 -92 -18 l-17 -11 l0 118 q0 39 22 62 q28 27 87 27 l454 0 l13 172 q3 49 28.5 74.5 q25.5 25.5 70.5 25.5 q47 0 69 -23.5 q22 -23.5 22 -59.5 q0 -3 0 -7 l0 0 q-7 -110 -13 -182 l954 0 q61 0 90 18 l17 11 l0 -118 q0 -40 -23 -62 q-26 -27 -84 -27 l-968 0 Z" /><glyph glyph-name="uni53CC" unicode="&#x53cc;" d="M103 -22 q0 45 58 94 l0 1 q285 233 406 541 q-153 196 -300 336 q-60 53 -60 98 q0 39 21 60 q21 21 64 21 q15 0 36 -12 q86 -49 305 -298 q70 349 72 453 q0 23 -11 34 q-13 13 -44 13 l-412 0 q-69 0 -99 -15 l-16 -8 l0 116 q0 60 48 83 q26 12 67 12 l504 0 q90 0 130 -40 q31 -31 31 -85 q0 -185 -84 -535 l-51 -188 q190 -240 229 -329 q10 -23 10 -38 q0 -42 -23 -65 q-26 -26 -78 -26 q-48 0 -97 79 q-62 97 -119 173 q-106 -212 -256 -386 q-80 -93 -138 -140 q-60 -48 -104 -48 q-41 0 -64 23 q-25 25 -25 76 ZM711 -80 q0 65 117 114 q242 102 430 303 q-113 173 -179 394 q-68 229 -68 405 q0 46 23 69 q22 22 64 22 q68 0 88 -64 q7 -22 9 -50 q29 -354 185 -622 q113 174 185 416 q78 263 78 369 q0 20 -11 31 q-14 14 -50 14 l-536 0 q-67 0 -97 -15 l-16 -8 l0 116 q0 42 24 67 q29 28 89 28 l628 0 q102 0 145 -44 q32 -31 32 -85 q0 -19 -20 -120 q-113 -604 -343 -921 q115 -123 394 -302 q63 -41 63 -98 q0 -83 -59 -104 q-19 -6 -42 -6 q-68 0 -221 126 q-162 133 -257 239 q-125 -136 -308 -257 q-181 -118 -258 -118 q-41 0 -63 23 q-26 25 -26 78 Z" /><glyph glyph-name="uni53CD" unicode="&#x53cd;" d="M1939 -84 q0 -57 -29 -85 q-26 -25 -68 -25 q-48 0 -129 24 q-65 20 -175 62 q-83 32 -156 78 q-72 45 -127 85 q-46 33 -65 47 q-117 -88 -290.5 -166 q-173.5 -78 -362.5 -125 q-14 -4 -37 -4 q-45 0 -71 26 q-24 24 -24 67 q0 35 25 60 q21 21 57 31 q354 102 553 234 q-210 202 -320 444 q-11 22 -11 49 q0 51 53 74 q23 9 38 9 q47 0 78 -58 q107 -203 314 -398 q100 90 203 240 q103 150 139 266 q1 5 1 14 q0 10 -8.5 17 q-8.5 7 -26.5 7 l-989 0 q-5 -338 -46 -575.5 q-41 -237.5 -160 -429.5 q-41 -67 -97 -67 q-19 0 -38.5 10 q-19.5 10 -30.5 21 q-24 24 -24 58 q0 28 19 63 q105 185 146 428.5 q41 243.5 41 578.5 l0 392 q0 85 45 130 q49 49 148 49 l1252 0 q63 0 93 17 l16 9 l0 -117 q0 -41 -23 -64 q-27 -27 -86 -27 l-1216 0 q-20 0 -29.5 -9.5 q-9.5 -9.5 -9.5 -29.5 l0 -263 l1091 0 q72 0 115 -32 q44 -33 44 -95 q0 -19 -6 -43 q-41 -161 -163 -357 q-117 -188 -258 -307 q110 -74 243.5 -133 q133.5 -59 274.5 -89 q48 -9 67.5 -32 q19.5 -23 19.5 -59 Z" /><glyph glyph-name="uni53D6" unicode="&#x53d6;" d="M469 569 l0 -293 l314 82 l0 211 l-314 0 ZM783 983 l-314 0 l0 -252 l314 0 l0 252 ZM1922 -138 q-23 -23 -64 -23 q-68 0 -195 98 q-121 92 -205 187 q-168 -182 -272 -249 q-62 -40 -102.5 -40 q-40.5 0 -62.5 22 q-26 26 -26 79 q0 29 35 64 q23 23 62 49 q149 99 250 220 q-109 179 -175 408 q-52 189 -52 327 q0 55 40 75 q21 10 51 10 q50 0 73 -43 q12 -23 16 -59 l0 0 q34 -354 164 -564 q90 160 159 370 q65 205 65 315 q0 18 -9.5 27.5 q-9.5 9.5 -33.5 9.5 l-502 0 q-63 0 -93 -17 l-16 -9 l0 117 q0 39 22 62 q28 27 87 27 l568 0 q103 0 146 -43 q31 -31 31 -82 q0 -134 -84 -425 q-84 -291 -225 -504 q114 -123 305 -229 q70 -40 70 -96.5 q0 -56.5 -27 -83.5 ZM469 1145 l314 0 l0 244 l-314 0 l0 -244 ZM289 1389 l-89 0 q-55 0 -84 -20 l-17 -12 l0 119 q0 38 22 59 q25 26 79 26 l908 0 q56 0 85 22 l18 13 l0 -120 q0 -39 -22 -61 q-26 -26 -81 -26 l-141 0 l0 -1513 q0 -58 -14 -71 q-5 -6 -13 -6 l-130 0 q-8 0 -14 6 q-13 13 -13 71 l0 311 l-522 -158 q-55 -12 -68 -12 q-1 0 -1 0 q-43 0 -67 24 q-26 26 -26 79 q0 40 24 64 q14 15 38 23 l128 30 l0 1152 Z" /><glyph glyph-name="uni53D7" unicode="&#x53d7;" d="M1913 -62 q0 -53 -27 -80 q-27 -27 -78 -27 q-153 0 -387 58 q-218 56 -395 147 q-65 -31 -154 -61.5 q-89 -30.5 -249 -81.5 q-247 -76 -385 -76 q-51 0 -75 24 q-24 24 -24 67 q0 44 36 68 q33 23 102 29 q131 12 278.5 49 q147.5 37 287.5 92 q-96 67 -173 150 q-49 51 -69 84 q-20 33 -20 54 q0 29 18 47 q24 24 79 24 q53 0 109 -70 q91 -116 241 -202 q88 50 167 115 q122 101 156 155 q12 20 12 31 q0 5 -2 6 l-11 3 l-860 0 q-56 0 -85 -22 l-18 -13 l0 120 q0 17 4 28 q6 18 17 29 q26 26 82 26 l968 0 q88 0 126 -39 q27 -26 27 -68 q0 -16 -5 -30 q-8 -23 -21 -45 q-31 -55 -101 -134 q-123 -141 -273 -249 q263 -101 579 -113 q69 -1 99 -32 q24 -23 24 -63 ZM625 1106 q0 -40 -22 -61 q-11 -12 -29 -18 l439 0 q-57 14 -107 129 q-37 83 -42 103 q-1 5 -1 9 q0 36 20 56 q23 23 71 23 q65 0 118 -106 q49 -100 49 -133 q0 -39 -21 -60 q-17 -16 -45 -21 l268 0 l93 192 q38 80 67 109 q25 25 53 25 q61 0 88 -27 q21 -21 21 -56 q0 -11 -8 -29 q-14 -31 -40 -75 l-48 -78 l-39 -61 l182 0 q109 0 156 -48 q40 -40 40 -117 q0 -14 -1 -28 l0 -186 q0 -44 -7 -62 q-2 -5 -7 -10 q-5 -5 -13 -5 l-134 0 q-8 0 -13 5 q-5 5 -7 10.5 q-2 5.5 -4 13.5 q-3 17 -3 48 l0 156 q0 25 -14.5 39 q-14.5 14 -38.5 14 l-1248 0 q-53 0 -53 -53 l0 -156 q0 -45 -3.5 -68.5 q-3.5 -23.5 -11.5 -31.5 q-5 -5 -12 -5 l-134 0 q-18 0 -23 35 q-4 25 -4 70 l0 186 q0 105 48 152 q41 42 125 42 q11 0 22 -1 l148 0 q-31 12 -52 50 q-77 136 -77 177 q0 34 20 54 q23 23 73 23 q57 0 94 -68 q67 -126 67 -157 ZM197 1432 q0 79 91 79 l140 0 q659 26 1013 64 l210 30 l1 0 q58 0 86 -28 q25 -25 25 -69 q0 -70 -158 -89 q-640 -74 -1295 -74 q-65 0 -92 27 q-21 21 -21 60 Z" /><glyph glyph-name="uni53E3" unicode="&#x53e3;" d="M1607 290 l0 862 q0 71 -47 95 q-25 12 -64 12 l-948 0 q-53 0 -80 -28.5 q-27 -28.5 -27 -82.5 l0 -862 q0 -79 63 -100 q21 -7 48 -7 l948 0 q53 0 80 28.5 q27 28.5 27 82.5 ZM245 236 l0 966 q0 131 57 188 q57 57 186 57 l1074 0 q129 0 185 -57.5 q56 -57.5 56 -187.5 l0 -966 q0 -132 -57 -189 q-57 -56 -184 -56 l-1074 0 q-129 0 -186 57 q-57 57 -57 188 Z" /><glyph glyph-name="uni53E4" unicode="&#x53e4;" d="M1531 126 l0 290 q0 34 -6 56 q-5 20 -14 29 q-20 20 -83 20 l-808 0 q-32 0 -53 -5.5 q-21 -5.5 -30 -14.5 q-20 -20 -20 -85 l0 -290 q0 -33 5 -55 q5 -22 14 -31 q20 -19 80 -19 l812 0 q63 0 83 20 q20 20 20 85 ZM326 53 q0 11 1 23 l0 390 q0 127 57 183 q50 51 153 51 q11 0 23 -1 l367 0 l0 330 l-717 0 q-29 0 -58 -29 l-19 -19 l0 125 q0 60 26 86 q19 19 51 19 l717 0 l0 341 q0 44 4 67 q4 27 14 33 q4 3 9 3 l140 0 q7 0 12 -5 q5 -5 7.5 -12 q2.5 -7 5 -24.5 q2.5 -17.5 2.5 -61.5 l0 -341 l717 0 q67 0 97 17 l16 9 l0 -117 q0 -40 -23 -63 q-28 -28 -90 -28 l-717 0 l0 -330 l367 0 q129 0 185 -57 q49 -48 49 -147 q0 -14 -1 -29 l0 -390 q1 -15 1 -29 q0 -102 -52 -153.5 q-52 -51.5 -159 -51.5 q-11 0 -23 1 l-928 0 q-128 0 -184 56 q-50 50 -50 154 Z" /><glyph glyph-name="uni53E6" unicode="&#x53e6;" d="M652 955 l738 0 q33 0 55 5 q22 6 32 15 q20 21 20 83 l0 206 q0 32 -5 52 q-6 22 -15.5 31 q-9.5 9 -31.5 14.5 q-22 5.5 -55 5.5 l-738 0 q-65 0 -85 -20 q-20 -20 -20 -83 l0 -206 q0 -32 5.5 -53 q5.5 -21 14.5 -30 q20 -20 85 -20 ZM1825 414 q0 -187 -34 -319 q-35 -134 -99 -180 q-84 -62 -346 -62 q-63 0 -93 30 q-26 26 -26 73 q0 47 24 71 q24 24 69 24 q3 0 64 -2 q61 -2 64 -2 q115 0 146 79 q13 35 20 103 q7 68 7 123 q0 52 -18 70 q-15 15 -47 15 l-528 0 q-44 -143 -129 -264 q-88 -126 -212 -185 l0 0 q-115 -52 -240 -91 l0 0 q-145 -42 -225 -42 q-54 0 -81 27 q-24 24 -24 68 q0 42 40 68 q37 25 105 35 q232 33 383 146 q144 106 192 238 l-555 0 q-57 0 -86 -20 l-17 -12 l0 119 q0 54 43 74 q24 11 60 11 l592 0 l9 151 q0 8 1 17 l-288 0 q-62 0 -104 14 q-45 14 -76 45 q-57 57 -57 178 l0 292 q0 64 14 106 q13 44 45 76 q57 57 178 57 l850 0 q118 0 181 -57 q56 -52 56 -182 l0 -292 q0 -127 -55 -180 q-48 -44 -124 -54 q-26 -3 -58 -3 l-375 0 l0 -5 l-11 -163 l552 0 q110 0 164 -54 q49 -49 49 -141 Z" /><glyph glyph-name="uni53EA" unicode="&#x53ea;" d="M1269 320 q0 35 20 55 q24 24 75 24 q49 0 110 -63 q149 -153 308 -244 q84 -50 124 -90 q31 -31 31 -54 q0 -49 -38 -80 q-33 -27 -63 -27 q-94 0 -333 205 q-117 100 -175.5 167 q-58.5 67 -58.5 107 ZM117 -68 q0 63 104 120 q111 61 199.5 131.5 q88.5 70.5 177.5 166.5 q22 22 49.5 37.5 q27.5 15.5 50.5 15.5 q50 0 75 -25 q22 -22 22 -62 q0 -40 -64 -115 q-61 -73 -178 -167 q-115 -95 -207 -147 q-93 -52 -140 -52 q-42 0 -64 23 q-25 24 -25 74 ZM1559 800 l0 432 q0 71 -47 95 q-25 12 -64 12 l-848 0 q-53 0 -80 -28.5 q-27 -28.5 -27 -82.5 l0 -432 q0 -53 27 -80 q27 -27 84 -27 l848 0 q53 0 80 27 q27 27 27 84 ZM546 505 q-15 -1 -30 -1 q-15 0 -36.5 1.5 q-21.5 1.5 -45.5 8.5 q-24 7 -44 18 q-20 11 -36 27 q-16 16 -27 36 q-29 51 -29 129 q0 13 1 26 l0 528 q0 127 65 192 q32 32 74.5 42.5 q42.5 10.5 99.5 10.5 l968 0 q131 0 196 -67 q53 -56 53 -170 l0 -536 q0 -133 -60 -193 q-53 -53 -160 -53 q-14 0 -29 1 l-960 0 Z" /><glyph glyph-name="uni53EF" unicode="&#x53ef;" d="M902 467 q35 0 53 18 q18 18 20 55 l0 306 q0 44 -28 61 q-17 11 -45 12 l-348 0 q-48 0 -65 -32 q-9 -16 -10 -41 l0 -306 q0 -35 18 -53 q18 -18 57 -20 l348 0 ZM298 450 q0 14 1 28 l0 430 q0 105 46 150 q38 38 113 38 q14 0 28 -1 l482 0 q106 0 152 -47 q38 -38 38 -113 q0 -13 -1 -27 l0 -430 q0 -130 -73 -169 q-35 -19 -88 -19 q-14 0 -28 1 l-482 0 q-105 0 -150 46 q-38 38 -38 113 ZM1648 15 q0 -209 -209 -209 q-14 0 -29 1 l-220 0 q-84 0 -103 57 q-6 19 -6 42 q0 48 26 73 q27 28 83 28 l180 0 q42 0 62.5 20.5 q20.5 20.5 22.5 62.5 q0 625 0 1249 l-1245 0 q-29 0 -58 -29 l-19 -19 l0 125 q0 61 26 88 q20 19 51 19 l1628 0 q29 0 58 29 l19 19 l0 -125 q0 -89 -54 -104 q-11 -3 -23 -3 l-191 0 l0 -1295 q1 -15 1 -29 Z" /></font>
</defs>
</svg>
